<svg 
 xmlns="http://www.w3.org/2000/svg"
 xmlns:xlink="http://www.w3.org/1999/xlink"
 width="70px" height="70px">
<path fill-rule="evenodd"  fill="rgb(255, 94, 133)"
 d="M35.000,28.000 C38.866,28.000 42.000,31.134 42.000,35.000 C42.000,38.866 38.866,42.000 35.000,42.000 C31.134,42.000 28.000,38.866 28.000,35.000 C28.000,31.134 31.134,28.000 35.000,28.000 Z"/>
<path fill-rule="evenodd"  opacity="0.2" fill="rgb(255, 94, 133)"
 d="M35.000,15.000 C46.046,15.000 55.000,23.954 55.000,35.000 C55.000,46.046 46.046,55.000 35.000,55.000 C23.954,55.000 15.000,46.046 15.000,35.000 C15.000,23.954 23.954,15.000 35.000,15.000 Z"/>
<path fill-rule="evenodd"  opacity="0.102" fill="rgb(255, 94, 133)"
 d="M35.000,-0.000 C54.330,-0.000 70.000,15.670 70.000,35.000 C70.000,54.330 54.330,70.000 35.000,70.000 C15.670,70.000 -0.000,54.330 -0.000,35.000 C-0.000,15.670 15.670,-0.000 35.000,-0.000 Z"/>
</svg>