<svg xmlns="http://www.w3.org/2000/svg" xmlns:xlink="http://www.w3.org/1999/xlink" width="76px" height="79px">
	<defs>
		<filter filterUnits="userSpaceOnUse" id="Filter_0" x="0px" y="0px" width="76px" height="79px"  >
			<feOffset in="SourceAlpha" dx="0" dy="10" />
			<feGaussianBlur result="blurOut" stdDeviation="4.472" />
			<feFlood flood-color="rgb(205, 80, 226)" result="floodOut" />
			<feComposite operator="atop" in="floodOut" in2="blurOut" />
			<feComponentTransfer><feFuncA type="linear" slope="0.3"/></feComponentTransfer>
			<feMerge>
				<feMergeNode/>
				<feMergeNode in="SourceGraphic"/>
			</feMerge>
		</filter>

	</defs>
	<g filter="url(#Filter_0)">
		<path fill-rule="evenodd"  fill="rgb(205, 80, 226)"
			  d="M37.697,25.571 C38.318,26.180 38.660,26.990 38.660,27.851 C38.660,28.712 38.318,29.521 37.697,30.131 C36.455,31.350 34.292,31.350 33.050,30.131 C32.428,29.521 32.087,28.712 32.087,27.851 C32.087,26.990 32.428,26.180 33.050,25.571 C33.671,24.961 34.495,24.626 35.373,24.626 C36.251,24.626 37.076,24.961 37.697,25.571 ZM44.547,37.075 C44.228,37.376 43.818,37.525 43.408,37.525 C42.977,37.525 42.546,37.360 42.224,37.031 L38.669,33.404 C37.675,33.973 36.554,34.300 35.373,34.300 C33.618,34.300 31.967,33.630 30.726,32.411 C29.484,31.194 28.800,29.573 28.800,27.851 C28.800,26.128 29.484,24.508 30.726,23.291 C33.208,20.853 37.538,20.853 40.021,23.291 C41.262,24.508 41.947,26.128 41.947,27.851 C41.947,29.029 41.605,30.148 41.005,31.134 L44.592,34.795 C45.221,35.437 45.201,36.458 44.547,37.075 ZM54.151,34.282 L52.830,32.964 C52.164,32.299 51.765,31.391 51.847,30.462 C51.926,29.567 51.921,28.673 51.834,27.790 C51.745,26.878 52.132,25.984 52.784,25.329 L54.114,23.995 C55.148,22.958 55.349,21.372 54.606,20.118 L53.798,18.756 C53.063,17.516 51.584,16.902 50.166,17.247 L48.185,17.729 C47.260,17.954 46.290,17.764 45.507,17.231 C45.165,16.998 44.811,16.779 44.442,16.574 C44.092,16.380 43.738,16.204 43.379,16.043 C42.479,15.640 41.797,14.885 41.537,13.948 L41.051,12.201 C40.656,10.775 39.323,9.797 37.818,9.824 L36.212,9.854 C34.779,9.881 33.528,10.816 33.122,12.165 L32.520,14.167 C32.261,15.025 31.656,15.747 30.832,16.131 C30.027,16.509 29.253,16.958 28.521,17.477 C27.759,18.017 26.790,18.190 25.876,17.974 L23.971,17.525 C22.545,17.189 21.064,17.820 20.342,19.072 L19.515,20.505 C18.793,21.757 19.004,23.328 20.032,24.354 L21.352,25.671 C22.019,26.337 22.418,27.245 22.336,28.174 C22.257,29.069 22.261,29.962 22.348,30.846 C22.438,31.757 22.051,32.652 21.399,33.307 L20.068,34.641 C19.034,35.677 18.833,37.264 19.577,38.518 L20.385,39.881 C21.119,41.119 22.599,41.733 24.016,41.389 L25.998,40.907 C26.923,40.682 27.892,40.872 28.675,41.404 C29.017,41.637 29.372,41.857 29.741,42.062 C30.090,42.256 30.445,42.432 30.803,42.593 C31.703,42.996 32.386,43.752 32.646,44.688 L33.131,46.435 C33.527,47.860 34.859,48.839 36.364,48.811 L37.970,48.782 C39.403,48.755 40.654,47.820 41.060,46.471 L41.663,44.469 C41.921,43.610 42.527,42.889 43.350,42.504 C44.156,42.127 44.930,41.677 45.661,41.159 C46.424,40.619 47.393,40.446 48.307,40.661 L50.212,41.110 C51.638,41.448 53.119,40.816 53.841,39.564 L54.667,38.131 C55.390,36.879 55.179,35.309 54.151,34.282 Z"/>
	</g>
</svg>