<svg xmlns="http://www.w3.org/2000/svg" xmlns:xlink="http://www.w3.org/1999/xlink" width="121px" height="111px">
	<defs>
		<filter filterUnits="userSpaceOnUse" id="Filter_0" x="0px" y="0px" width="121px" height="111px"  >
			<feOffset in="SourceAlpha" dx="0" dy="20" />
			<feGaussianBlur result="blurOut" stdDeviation="5.477" />
			<feFlood flood-color="rgb(205, 80, 226)" result="floodOut" />
			<feComposite operator="atop" in="floodOut" in2="blurOut" />
			<feComponentTransfer><feFuncA type="linear" slope="0.3"/></feComponentTransfer>
			<feMerge>
				<feMergeNode/>
				<feMergeNode in="SourceGraphic"/>
			</feMerge>
		</filter>

	</defs>
	<g filter="url(#Filter_0)">
		<path fill-rule="evenodd"  fill="rgb(205, 80, 226)"
			  d="M89.902,45.243 C89.565,45.550 89.167,45.789 88.722,45.936 C88.379,46.050 88.015,46.116 87.631,46.116 L87.543,46.116 L67.546,46.116 C65.686,46.116 64.177,44.623 64.177,42.782 L64.177,39.088 L64.177,38.054 L64.177,37.021 L64.177,35.361 C64.177,33.520 65.686,32.027 67.546,32.027 L82.665,32.027 L86.432,32.027 L87.476,32.027 L87.543,32.027 L87.631,32.027 C88.015,32.027 88.379,32.093 88.722,32.206 C89.167,32.360 89.565,32.594 89.902,32.900 C90.575,33.507 91.000,34.387 91.000,35.361 L91.000,42.782 C91.000,43.756 90.575,44.636 89.902,45.243 ZM74.580,38.628 C74.580,37.708 73.825,36.961 72.895,36.961 L72.060,36.961 L71.777,36.961 C71.386,36.961 71.029,37.101 70.739,37.321 C70.342,37.621 70.093,38.095 70.093,38.628 L70.093,39.735 C70.093,40.655 70.847,41.402 71.777,41.402 L72.895,41.402 C73.825,41.402 74.580,40.655 74.580,39.735 L74.580,38.628 ZM85.778,29.713 L84.734,29.713 L67.539,29.713 C67.310,29.713 67.081,29.726 66.858,29.753 C65.524,29.906 64.332,30.519 63.442,31.426 C62.438,32.447 61.819,33.840 61.819,35.374 L61.819,37.668 L61.819,38.702 L61.819,39.735 L61.819,42.789 C61.819,45.916 64.386,48.457 67.546,48.457 L87.537,48.457 L87.537,56.759 C87.537,58.599 86.027,60.093 84.168,60.093 L32.369,60.093 C30.509,60.093 29.000,58.599 29.000,56.759 L29.000,24.812 L29.000,22.011 L29.000,21.610 C29.000,21.311 29.047,21.017 29.121,20.738 C29.243,20.290 29.458,19.883 29.741,19.530 C30.361,18.763 31.311,18.276 32.376,18.276 L34.383,18.276 L34.983,18.276 L38.217,18.276 L42.058,18.276 L73.347,18.276 L81.318,18.276 L82.362,18.276 L83.406,18.276 L84.174,18.276 C86.034,18.276 87.543,19.770 87.537,21.610 L87.537,29.713 L86.822,29.713 L85.778,29.713 ZM52.696,15.943 L69.857,11.308 L75.476,9.788 C75.772,9.708 76.069,9.668 76.365,9.668 C77.848,9.668 79.209,10.642 79.613,12.128 L80.664,15.943 L72.175,15.943 L52.696,15.943 Z"/>
	</g>
</svg>