<svg xmlns="http://www.w3.org/2000/svg" xmlns:xlink="http://www.w3.org/1999/xlink" width="119px" height="117px">
	<defs>
		<filter filterUnits="userSpaceOnUse" id="Filter_0" x="0px" y="0px" width="119px" height="117px"  >
			<feOffset in="SourceAlpha" dx="0" dy="20" />
			<feGaussianBlur result="blurOut" stdDeviation="5.477" />
			<feFlood flood-color="rgb(205, 80, 226)" result="floodOut" />
			<feComposite operator="atop" in="floodOut" in2="blurOut" />
			<feComponentTransfer><feFuncA type="linear" slope="0.3"/></feComponentTransfer>
			<feMerge>
				<feMergeNode/>
				<feMergeNode in="SourceGraphic"/>
			</feMerge>
		</filter>

	</defs>
	<g filter="url(#Filter_0)">
		<path fill-rule="evenodd"  fill="rgb(205, 80, 226)"
			  d="M89.000,48.414 C89.000,49.955 88.377,51.348 87.370,52.378 C87.378,52.378 87.385,52.378 87.385,52.378 C87.385,52.378 86.839,53.230 82.412,57.540 C81.097,58.816 80.214,59.658 79.566,60.315 C78.738,61.109 77.852,61.831 76.915,62.484 C76.863,62.527 76.827,62.556 76.786,62.585 L76.783,62.582 C73.472,64.856 69.495,66.212 64.859,66.212 C60.288,66.212 56.065,64.896 52.637,62.679 C49.935,61.018 47.595,60.420 45.310,60.801 C45.163,62.861 45.028,64.316 45.028,64.316 L29.673,64.316 C29.673,64.316 29.000,58.747 29.000,51.882 C29.000,45.015 29.673,39.443 29.673,39.443 L45.030,39.443 C45.030,39.443 45.079,39.963 45.148,40.811 C47.503,40.303 49.993,40.024 52.579,40.024 C53.578,40.024 54.559,40.060 55.523,40.126 C55.412,39.520 55.351,38.885 55.351,38.218 C55.351,34.261 60.940,25.193 64.130,22.640 C65.950,23.039 67.880,23.256 69.894,23.256 C71.846,23.256 73.729,23.051 75.501,22.675 C78.735,25.583 83.683,34.380 83.683,38.217 C83.683,39.859 83.367,41.357 82.796,42.701 C82.932,42.693 83.063,42.670 83.203,42.670 C86.400,42.670 89.000,45.247 89.000,48.414 ZM74.073,38.491 C73.996,38.154 73.820,37.810 73.545,37.465 C73.267,37.118 72.868,36.794 72.351,36.497 C71.828,36.204 71.125,35.989 70.242,35.858 C68.814,35.645 68.103,35.214 68.103,34.560 C68.103,34.328 68.221,34.112 68.448,33.910 C68.678,33.712 69.004,33.609 69.429,33.609 C69.726,33.609 69.978,33.635 70.198,33.685 C70.418,33.736 70.616,33.809 70.799,33.903 C70.982,33.995 71.154,34.120 71.319,34.265 C71.480,34.410 71.648,34.578 71.820,34.768 L73.970,34.768 L73.970,31.601 L71.835,31.601 L71.835,32.051 C71.579,31.903 71.297,31.780 70.982,31.694 L70.982,30.543 L68.847,30.543 L68.847,31.541 C68.433,31.601 68.052,31.716 67.700,31.895 C67.349,32.067 67.045,32.289 66.785,32.558 C66.528,32.822 66.327,33.127 66.184,33.469 C66.042,33.812 65.968,34.176 65.976,34.555 C65.976,34.814 66.019,35.115 66.107,35.450 C66.192,35.785 66.378,36.117 66.657,36.439 C66.935,36.763 67.334,37.060 67.851,37.329 C68.371,37.600 69.059,37.805 69.924,37.935 C70.169,37.975 70.414,38.029 70.663,38.094 C70.912,38.158 71.139,38.247 71.348,38.357 C71.557,38.470 71.725,38.601 71.857,38.754 C71.985,38.914 72.055,39.097 72.055,39.308 C72.055,39.561 71.930,39.763 71.674,39.919 C71.418,40.075 71.099,40.151 70.714,40.151 C70.418,40.151 70.158,40.129 69.927,40.088 C69.700,40.041 69.495,39.973 69.304,39.873 C69.111,39.783 68.931,39.661 68.755,39.516 C68.572,39.368 68.400,39.197 68.213,38.993 L66.078,38.993 L66.078,42.160 L68.213,42.160 L68.213,41.696 C68.316,41.745 68.415,41.796 68.524,41.837 C68.638,41.883 68.737,41.932 68.854,41.983 L68.854,43.219 L70.989,43.219 L70.989,42.267 C71.447,42.236 71.872,42.142 72.264,41.983 C72.652,41.817 72.992,41.609 73.274,41.346 C73.560,41.089 73.780,40.782 73.941,40.434 C74.109,40.091 74.190,39.714 74.190,39.311 C74.190,39.101 74.150,38.830 74.073,38.491 ZM81.705,45.701 C81.485,45.889 81.175,46.156 80.822,46.470 C80.806,46.484 80.787,46.498 80.767,46.522 L80.767,46.518 C78.843,48.212 75.461,51.310 74.554,52.797 L74.554,52.794 C73.837,55.149 71.626,56.878 69.013,56.881 L69.013,56.899 C66.924,56.850 63.983,56.089 59.515,54.404 L60.475,51.910 C64.703,53.514 67.206,54.176 68.807,54.232 L68.814,54.197 C68.880,54.201 68.942,54.221 69.004,54.221 C70.718,54.221 72.113,52.839 72.113,51.141 C72.113,50.354 71.802,49.638 71.311,49.094 C67.126,45.133 60.295,42.606 52.576,42.606 C50.050,42.606 47.618,42.888 45.343,43.397 C45.514,45.920 45.702,49.205 45.702,51.883 C45.702,53.809 45.605,56.051 45.486,58.098 C48.479,57.806 51.503,58.764 54.084,60.322 L54.104,60.322 C57.085,62.342 60.812,63.548 64.859,63.548 C68.869,63.548 72.568,62.357 75.538,60.367 C75.915,60.093 76.283,59.810 76.636,59.498 L76.647,59.507 C77.153,58.929 78.226,57.879 80.529,55.641 C81.419,54.776 84.700,51.424 85.477,50.663 C85.931,50.066 86.312,49.266 86.308,48.417 C86.308,46.720 84.913,45.337 83.201,45.337 C82.531,45.337 82.110,45.445 81.705,45.701 ZM74.256,21.008 C74.256,21.008 72.579,21.367 70.026,21.367 C67.470,21.367 64.866,20.754 64.866,20.754 C63.247,19.564 59.906,11.339 61.962,10.108 C64.328,8.692 67.913,12.165 69.594,12.832 C71.278,13.500 74.933,6.989 77.120,9.985 C79.075,12.670 75.739,20.287 74.256,21.008 Z"/>
	</g>
</svg>