<svg xmlns="http://www.w3.org/2000/svg" xmlns:xlink="http://www.w3.org/1999/xlink" width="75px" height="69px">
	<defs>
		<filter filterUnits="userSpaceOnUse" id="Filter_0" x="0px" y="0px" width="75px" height="69px"  >
			<feOffset in="SourceAlpha" dx="0" dy="10" />
			<feGaussianBlur result="blurOut" stdDeviation="4.472" />
			<feFlood flood-color="rgb(205, 80, 226)" result="floodOut" />
			<feComposite operator="atop" in="floodOut" in2="blurOut" />
			<feComponentTransfer><feFuncA type="linear" slope="0.3"/></feComponentTransfer>
			<feMerge>
				<feMergeNode/>
				<feMergeNode in="SourceGraphic"/>
			</feMerge>
		</filter>

	</defs>
	<g filter="url(#Filter_0)">
		<path fill-rule="evenodd"  fill="rgb(205, 80, 226)"
			  d="M45.449,11.856 C42.203,11.856 39.571,14.415 39.571,17.571 C39.571,20.727 42.203,23.285 45.449,23.285 C48.695,23.285 51.326,20.727 51.326,17.571 C51.326,14.415 48.695,11.856 45.449,11.856 ZM38.158,39.000 L52.005,39.000 C53.659,39.000 55.000,37.696 55.000,36.088 L55.000,30.428 C55.000,29.346 54.155,28.130 53.122,27.727 L53.122,27.727 C47.962,25.711 42.201,25.711 37.041,27.727 L37.041,27.727 C36.008,28.130 35.163,29.346 35.163,30.428 L35.163,36.088 C35.163,37.696 36.504,39.000 38.158,39.000 ZM30.020,9.000 C26.369,9.000 23.408,11.878 23.408,15.428 C23.408,18.979 26.369,21.857 30.020,21.857 C33.672,21.857 36.633,18.979 36.633,15.428 C36.633,11.878 33.672,9.000 30.020,9.000 ZM32.798,37.887 C33.100,38.378 32.779,39.000 32.190,39.000 L21.995,39.000 C20.341,39.000 19.000,37.696 19.000,36.088 L19.000,29.270 C19.000,28.179 19.858,26.965 20.895,26.550 C24.731,25.013 28.873,24.491 32.920,24.973 C33.514,25.043 33.808,25.734 33.397,26.157 C32.694,26.880 32.224,27.861 32.224,28.771 L32.224,35.879 C32.224,36.613 32.434,37.297 32.798,37.887 Z"/>
	</g>
</svg>