<svg xmlns="http://www.w3.org/2000/svg" xmlns:xlink="http://www.w3.org/1999/xlink" viewBox="0 0 151.8 132.03">
    <defs>
        <style>

            .cls-1{
                fill:url(#linear-gradient);
                animation: swing 12s infinite both;
                transform-origin: bottom center;
            }
            .cls-2{
                fill:#fff;opacity:0.4;
                animation: swing 12s infinite both;
                transform-origin: bottom center;
            }
            .cls-3{
                fill:url( #linear-gradient-2);
                animation: swing 15s infinite both;
                transform-origin: bottom center;
            }
            .cls-4{
                fill:#fff;opacity:0.4;
                animation: swing 15s infinite both;
                transform-origin: bottom center;
            }

            @keyframes swing {
            20% {
            -webkit-transform: rotate(15deg);
            transform: rotate(15deg)
            }
            40% {
            -webkit-transform: rotate(-10deg);
            transform: rotate(-10deg)
            }
            60% {
            -webkit-transform: rotate(5deg);
            transform: rotate(5deg)
            }
            80% {
            -webkit-transform: rotate(-5deg);
            transform: rotate(-5deg)
            }
            to {
            -webkit-transform: rotate(0deg);
            transform: rotate(0deg)
            }
            }

        </style>
        <linearGradient id="linear-gradient" x1="1235.12" y1="-92.58" x2="1348.5" y2="-92.58"
                        gradientTransform="matrix(-0.96, 0.28, 0.28, 0.96, 1332.57, -208.06)"
                        gradientUnits="userSpaceOnUse">
            <stop offset="0" stop-color="#87f0b2"/>
            <stop offset="1" stop-color="#2dc9b2"/>
        </linearGradient>
        <linearGradient id="linear-gradient-2" x1="1205.22" y1="206.68" x2="1288.89" y2="206.68"
                        gradientTransform="matrix(-0.98, -0.22, -0.22, 0.98, 1381.94, 142.31)"
                        xlink:href="#linear-gradient"/>
    </defs>
    <g id="Layer_2" data-name="Layer 2">
        <g id="OBJECTS">
            <path class="cls-1" d="M144.57,129.9S85.43-31.89,18.86,5.65C-40.49,39.11,50.94,137.38,144.57,129.9Z"/>
            <path class="cls-2"
                  d="M20.8,21.43s.55.2,1.55.64,2.47,1.13,4.31,2l3,1.55,3.49,1.95c1.26.67,2.54,1.5,3.91,2.33s2.83,1.67,4.28,2.67l4.57,3,4.79,3.42,2.49,1.78c.83.63,1.65,1.29,2.49,2l5.12,4c1.72,1.4,3.41,2.88,5.15,4.34s3.53,2.92,5.22,4.52l5.19,4.73c.86.8,1.75,1.57,2.6,2.4l2.51,2.51c3.36,3.34,6.83,6.57,10,10.06s6.47,6.65,9.31,10.1l8.48,9.69c2.57,3.2,5,6.2,7.33,9l3.28,4,2.84,3.68,4.64,6c2.63,3.29,4.12,5.17,4.12,5.17L128,117.22c-1.13-1.78-2.5-4-4.08-6.43l-2.53-4q-1.43-2-3-4.22c-2.1-2.94-4.38-6.13-6.84-9.46s-5.3-6.66-8.17-10.15l-2.16-2.65c-.74-.88-1.53-1.72-2.29-2.59-1.55-1.73-3.12-3.48-4.73-5.22-3.12-3.57-6.6-6.88-10-10.3l-2.57-2.52c-.87-.83-1.78-1.6-2.66-2.41l-5.32-4.75C71.87,51,70,49.55,68.2,48.1s-3.57-2.88-5.35-4.24L57.51,40c-.88-.62-1.74-1.25-2.61-1.84l-2.62-1.68c-1.72-1.1-3.37-2.22-5-3.2l-4.83-2.74c-1.53-.91-3.06-1.65-4.5-2.38s-2.81-1.43-4.13-2l-3.68-1.62-3.18-1.22c-1.93-.71-3.47-1.18-4.52-1.47S20.8,21.43,20.8,21.43Z"/>
            <path class="cls-3" d="M148.77,132S167.61,13,111.35,12.52C61.19,12.08,85.63,103.8,148.77,132Z"/>
            <path class="cls-4"
                  d="M107,22.79s.29.31.78.93,1.2,1.55,2.07,2.74l1.4,2,1.57,2.41c.58.84,1.11,1.8,1.71,2.78s1.24,2,1.82,3.12l1.88,3.45L120.15,44c.32.65.65,1.3,1,2s.61,1.36.92,2c.63,1.38,1.26,2.79,1.91,4.22s1.19,2.94,1.8,4.44,1.25,3,1.78,4.57,1.12,3.12,1.68,4.69c.28.79.58,1.57.84,2.37l.73,2.41c1,3.2,2.1,6.37,2.89,9.59s1.83,6.3,2.46,9.4,1.4,6,2.06,8.86,1.07,5.52,1.57,8c.25,1.24.5,2.43.72,3.56l.54,3.23c.35,2,.65,3.8.9,5.26l.83,4.58s-.09-1.69-.26-4.64c-.1-1.48-.22-3.28-.36-5.34-.08-1-.16-2.13-.25-3.29s-.3-2.35-.46-3.62c-.32-2.52-.67-5.26-1.09-8.14s-1.07-5.9-1.69-9c-.16-.78-.31-1.57-.47-2.36s-.38-1.58-.57-2.38c-.38-1.6-.79-3.21-1.21-4.83-.76-3.26-1.84-6.49-2.82-9.75l-.78-2.43c-.26-.81-.58-1.6-.87-2.4-.59-1.59-1.17-3.18-1.76-4.75s-1.26-3.09-1.9-4.6-1.3-3-2-4.45l-2.09-4.22c-.35-.68-.68-1.37-1-2L122.08,43c-.73-1.27-1.41-2.52-2.12-3.7s-1.47-2.28-2.15-3.36-1.41-2.07-2.08-3-1.31-1.85-2-2.65-1.25-1.57-1.8-2.28-1.14-1.29-1.63-1.85c-1-1.11-1.82-1.93-2.4-2.48S107,22.79,107,22.79Z"/>
        </g>
    </g>
</svg>


