<svg xmlns="http://www.w3.org/2000/svg" width="800" height="1550" viewBox="0 0 800 1550"><rect width="100%" height="100%" fill="#DDDDDD"/><path fill="#999999" d="M185.685 800.66q2.87 0 5.03-.82t3.64-2.28q1.48-1.46 2.23-3.48t.75-4.37q0-5.59-3.1-8.46-3.1-2.87-8.55-2.87-5.45 0-8.56 2.87-3.1 2.87-3.1 8.46 0 2.35.75 4.37.76 2.02 2.24 3.48 1.48 1.46 3.64 2.28 2.16.82 5.03.82Zm0-51.65q-2.59 0-4.47.8t-3.12 2.14q-1.25 1.33-1.84 3.07-.58 1.74-.58 3.67 0 2.02.49 3.92.49 1.91 1.67 3.39 1.17 1.48 3.1 2.37 1.93.89 4.75.89 2.82 0 4.75-.89 1.92-.89 3.1-2.37 1.17-1.48 1.67-3.39.49-1.9.49-3.92 0-1.93-.61-3.67t-1.83-3.07q-1.23-1.34-3.11-2.14t-4.46-.8Zm11.47 24.53q6.2 2.02 9.16 6.18t2.96 10.18q0 4.51-1.71 8.18-1.72 3.66-4.82 6.25-3.1 2.58-7.45 3.99-4.35 1.41-9.61 1.41-5.27 0-9.61-1.41-4.35-1.41-7.45-3.99-3.1-2.59-4.82-6.25-1.72-3.67-1.72-8.18 0-6.02 2.97-10.18 2.96-4.16 9.16-6.18-4.93-2.07-7.4-5.87-2.47-3.81-2.47-9.17 0-3.85 1.57-7.19 1.58-3.34 4.4-5.8 2.82-2.47 6.74-3.86 3.93-1.38 8.63-1.38 4.7 0 8.62 1.38 3.93 1.39 6.75 3.86 2.82 2.46 4.39 5.8 1.58 3.34 1.58 7.19 0 5.36-2.47 9.17-2.47 3.8-7.4 5.87Zm67.96 1.46q0 8.88-1.91 15.44-1.9 6.56-5.26 10.83-3.36 4.28-7.94 6.37t-9.9 2.09q-5.31 0-9.84-2.09-4.54-2.09-7.87-6.37-3.34-4.27-5.22-10.83-1.88-6.56-1.88-15.44 0-8.93 1.88-15.46 1.88-6.54 5.22-10.81 3.33-4.28 7.87-6.37 4.53-2.09 9.84-2.09 5.32 0 9.9 2.09t7.94 6.37q3.36 4.27 5.26 10.81 1.91 6.53 1.91 15.46Zm-11.99 0q0-7.38-1.08-12.22-1.08-4.84-2.89-7.71t-4.16-4.02q-2.35-1.15-4.89-1.15-2.49 0-4.81 1.15-2.33 1.15-4.12 4.02-1.78 2.87-2.84 7.71-1.06 4.84-1.06 12.22 0 7.38 1.06 12.22 1.06 4.84 2.84 7.71 1.79 2.86 4.12 4.02 2.32 1.15 4.81 1.15 2.54 0 4.89-1.15 2.35-1.16 4.16-4.02 1.81-2.87 2.89-7.71t1.08-12.22Zm66.51 0q0 8.88-1.91 15.44-1.9 6.56-5.26 10.83-3.36 4.28-7.94 6.37t-9.9 2.09q-5.31 0-9.84-2.09-4.54-2.09-7.87-6.37-3.34-4.27-5.22-10.83-1.88-6.56-1.88-15.44 0-8.93 1.88-15.46 1.88-6.54 5.22-10.81 3.33-4.28 7.87-6.37 4.53-2.09 9.84-2.09 5.32 0 9.9 2.09t7.94 6.37q3.36 4.27 5.26 10.81 1.91 6.53 1.91 15.46Zm-11.99 0q0-7.38-1.08-12.22-1.08-4.84-2.89-7.71t-4.16-4.02q-2.35-1.15-4.89-1.15-2.49 0-4.81 1.15-2.33 1.15-4.12 4.02-1.78 2.87-2.84 7.71-1.06 4.84-1.06 12.22 0 7.38 1.06 12.22 1.06 4.84 2.84 7.71 1.79 2.86 4.12 4.02 2.32 1.15 4.81 1.15 2.54 0 4.89-1.15 2.35-1.16 4.16-4.02 1.81-2.87 2.89-7.71t1.08-12.22Zm86.62 18.42-6.15 6.07-15.94-15.94-16.07 16.03-6.16-6.06 16.08-16.12-15.32-15.33 6.11-6.11 15.32 15.33 15.23-15.23 6.2 6.11-15.28 15.27 15.98 15.98Zm64.35 6.86h12.22v8.7h-37.6v-8.7h13.77v-39.62q0-2.35.14-4.84l-9.78 8.18q-.84.66-1.67.82-.82.17-1.55.03-.72-.14-1.29-.5-.56-.35-.84-.77l-3.67-5.03 20.73-17.63h9.54v59.36Zm39.57-48.73-2.4 14.14q2.26-.47 4.33-.68 2.07-.21 3.99-.21 5.36 0 9.45 1.6 4.09 1.6 6.86 4.42 2.78 2.82 4.19 6.6 1.41 3.78 1.41 8.15 0 5.41-1.91 9.87-1.9 4.47-5.29 7.64-3.38 3.17-8.01 4.91-4.63 1.74-10.08 1.74-3.2 0-6.06-.66-2.87-.65-5.39-1.76-2.51-1.1-4.65-2.54-2.14-1.43-3.83-3.03l3.57-4.93q1.13-1.6 2.96-1.6 1.18 0 2.4.75t2.8 1.65q1.57.89 3.71 1.64 2.14.75 5.15.75 3.19 0 5.64-1.03 2.44-1.03 4.06-2.89 1.62-1.86 2.45-4.42.82-2.56.82-5.57 0-5.54-3.22-8.67t-9.52-3.13q-4.84 0-9.91 1.79l-7.24-2.07 5.64-32.99h33.56v4.93q0 2.49-1.56 4.05-1.55 1.55-5.26 1.55h-18.66Zm54.52 0-2.4 14.14q2.26-.47 4.33-.68 2.07-.21 3.99-.21 5.36 0 9.45 1.6 4.09 1.6 6.86 4.42 2.78 2.82 4.19 6.6 1.41 3.78 1.41 8.15 0 5.41-1.91 9.87-1.9 4.47-5.29 7.64-3.38 3.17-8.01 4.91-4.63 1.74-10.08 1.74-3.2 0-6.06-.66-2.87-.65-5.39-1.76-2.51-1.1-4.65-2.54-2.14-1.43-3.83-3.03l3.57-4.93q1.13-1.6 2.96-1.6 1.18 0 2.4.75t2.8 1.65q1.57.89 3.71 1.64 2.14.75 5.15.75 3.19 0 5.64-1.03 2.44-1.03 4.06-2.89 1.62-1.86 2.45-4.42.82-2.56.82-5.57 0-5.54-3.22-8.67t-9.52-3.13q-4.84 0-9.91 1.79l-7.24-2.07 5.64-32.99h33.56v4.93q0 2.49-1.56 4.05-1.55 1.55-5.26 1.55h-18.66Zm85.21 23.45q0 8.88-1.9 15.44-1.9 6.56-5.27 10.83-3.36 4.28-7.94 6.37t-9.89 2.09q-5.31 0-9.85-2.09-4.53-2.09-7.87-6.37-3.34-4.27-5.22-10.83-1.88-6.56-1.88-15.44 0-8.93 1.88-15.46 1.88-6.54 5.22-10.81 3.34-4.28 7.87-6.37 4.54-2.09 9.85-2.09t9.89 2.09q4.58 2.09 7.94 6.37 3.37 4.27 5.27 10.81 1.9 6.53 1.9 15.46Zm-11.98 0q0-7.38-1.08-12.22-1.08-4.84-2.89-7.71t-4.16-4.02q-2.35-1.15-4.89-1.15-2.49 0-4.82 1.15t-4.11 4.02q-1.79 2.87-2.85 7.71-1.05 4.84-1.05 12.22 0 7.38 1.05 12.22 1.06 4.84 2.85 7.71 1.78 2.86 4.11 4.02 2.33 1.15 4.82 1.15 2.54 0 4.89-1.15 2.35-1.16 4.16-4.02 1.81-2.87 2.89-7.71t1.08-12.22Z"/></svg>