<svg xmlns="http://www.w3.org/2000/svg" xmlns:xlink="http://www.w3.org/1999/xlink" viewBox="0 0 648.269 630.689">
  <defs>
    <style>
      .cls-1 {
        fill: #cce1ff;
        opacity: 0.25;
      }

      .cls-2 {
        fill: #008ce3;
      }

      .cls-3, .cls-33, .cls-34, .cls-35, .cls-36, .cls-38, .cls-39, .cls-40, .cls-5 {
        fill: none;
      }

      .cls-3 {
        stroke: #b4c4f0;
      }

      .cls-3, .cls-36, .cls-38, .cls-40, .cls-5 {
        stroke-linecap: round;
        stroke-linejoin: round;
      }

      .cls-3, .cls-32, .cls-33, .cls-34, .cls-35, .cls-36, .cls-38, .cls-39, .cls-40, .cls-46, .cls-5 {
        stroke-miterlimit: 10;
      }

      .cls-3, .cls-5 {
        stroke-width: 3.585px;
      }

      .cls-4 {
        fill: #36adf7;
      }

      .cls-5 {
        stroke: #b6cff0;
      }

      .cls-6 {
        fill: #edf7ff;
      }

      .cls-7 {
        fill: url(#linear-gradient);
      }

      .cls-8 {
        fill: #cce9ff;
      }

      .cls-9 {
        fill: #dbefff;
      }

      .cls-10 {
        fill: #1737a2;
      }

      .cls-11, .cls-19, .cls-32, .cls-46 {
        fill: #fff;
      }

      .cls-11 {
        opacity: 0.46;
      }

      .cls-12 {
        fill: #513554;
      }

      .cls-13 {
        fill: #2c4482;
      }

      .cls-14 {
        fill: #fcfeff;
      }

      .cls-15 {
        fill: #ffc2b0;
      }

      .cls-16 {
        fill: #edb2a1;
      }

      .cls-17 {
        fill: #3856a6;
      }

      .cls-18 {
        fill: #18bdf7;
      }

      .cls-20 {
        fill: #45446c;
      }

      .cls-21 {
        fill: #dbedff;
      }

      .cls-22 {
        fill: #8787cc;
      }

      .cls-23 {
        fill: url(#linear-gradient-2);
      }

      .cls-24, .cls-50 {
        fill: #a8c4e5;
      }

      .cls-24, .cls-54 {
        opacity: 0.4;
      }

      .cls-25 {
        fill: #e5f2ff;
      }

      .cls-26 {
        fill: url(#linear-gradient-3);
      }

      .cls-27 {
        fill: #d4e3f4;
      }

      .cls-28 {
        opacity: 0.56;
      }

      .cls-29 {
        fill: #7fb0f0;
      }

      .cls-30 {
        fill: url(#linear-gradient-4);
      }

      .cls-31 {
        fill: #ff9359;
      }

      .cls-32, .cls-33, .cls-34, .cls-35, .cls-46 {
        stroke: #b3ddff;
      }

      .cls-32 {
        stroke-width: 0.757px;
      }

      .cls-33 {
        stroke-width: 0.757px;
      }

      .cls-34 {
        stroke-width: 0.539px;
      }

      .cls-35 {
        stroke-width: 0.945px;
      }

      .cls-36, .cls-40 {
        stroke: #1737a2;
      }

      .cls-36 {
        stroke-width: 2px;
      }

      .cls-37 {
        fill: #b6d4ed;
      }

      .cls-38, .cls-39 {
        stroke: #fff;
      }

      .cls-38 {
        stroke-width: 0.584px;
      }

      .cls-39 {
        stroke-width: 0.664px;
      }

      .cls-41 {
        fill: #15a2d4;
      }

      .cls-42 {
        fill: #bad0e6;
      }

      .cls-43 {
        fill: #e87538;
      }

      .cls-44 {
        fill: #0076bf;
      }

      .cls-45 {
        fill: #b8ecff;
      }

      .cls-46 {
        stroke-width: 0.679px;
      }

      .cls-47 {
        fill: #ff5c97;
      }

      .cls-48 {
        fill: #d0e7f4;
      }

      .cls-49 {
        fill: #ea8a6c;
      }

      .cls-51 {
        fill: #e1eaf4;
      }

      .cls-52 {
        fill: #88bdeb;
      }

      .cls-53 {
        fill: #dcefff;
      }

      .cls-55 {
        fill: #1f3b82;
      }

      .cls-56 {
        fill: #21275e;
      }
    </style>
    <linearGradient id="linear-gradient" y1="0.5" x2="1" y2="0.5" gradientUnits="objectBoundingBox">
      <stop offset="0.059" stop-color="#88b6ea"/>
      <stop offset="0.941" stop-color="#bad5eb"/>
    </linearGradient>
    <linearGradient id="linear-gradient-2" x1="0" y1="0.5" x2="1" y2="0.5" xlink:href="#linear-gradient"/>
    <linearGradient id="linear-gradient-3" x1="-0.001" y1="0.5" x2="1" y2="0.5" gradientUnits="objectBoundingBox">
      <stop offset="0" stop-color="#e5f2ff"/>
      <stop offset="0.356" stop-color="#e2f0fe"/>
      <stop offset="0.605" stop-color="#d9e8fa"/>
      <stop offset="0.82" stop-color="#cadaf5"/>
      <stop offset="1" stop-color="#b6c9ed"/>
    </linearGradient>
    <linearGradient id="linear-gradient-4" x1="0" y1="0.5" x2="1" y2="0.5" xlink:href="#linear-gradient"/>
  </defs>
  <g id="development" transform="translate(-0.031)">
    <path id="Path_2904" data-name="Path 2904" class="cls-1" d="M131.3,590.1l-61-35.2c-104.1-60.1-91-165,29.1-234.4h0a384.9,384.9,0,0,1,45.1-22.1c117.1-48.2,499.3,116.7,490.2,161.8-8.1,40-40.9,80.4-97.4,113.1h0C417.1,642.7,235.3,650.2,131.3,590.1Z"/>
    <path id="Path_2905" data-name="Path 2905" class="cls-2" d="M467.5,280.2s-31.7-63.6-1.3-97.6-17.7-90.5,35-125.4S548.2,0,548.2,0s32.6,81.4,5.2,120.4c-27.4,38.9-28.9,110.4-41.2,128.7-12.3,18.2-25.9,59.3-25.9,59.3Z"/>
    <path id="Path_2906" data-name="Path 2906" class="cls-3" d="M482.9,245.8s8.5-62.6,30.9-119.6c12.8-32.6,38.7-94,36-114.9"/>
    <path id="Path_2907" data-name="Path 2907" class="cls-4" d="M468,321.9s30.8-116.8,89-151.1,91.3-6.3,91.3-6.3-28.6,4.3-49.4,33-41.3,44.5-55.6,53.9-33.4,60.8-33.4,60.8Z"/>
    <path id="Path_2908" data-name="Path 2908" class="cls-5" d="M508.1,259.1S548,196.7,571,188.2s45-26.9,64.5-25.3"/>
    <path id="Path_2909" data-name="Path 2909" class="cls-6" d="M315.7,336,136.9,232.8,314.6,130.3l180.5,103Z"/>
    <path id="Path_2910" data-name="Path 2910" class="cls-7" d="M315.7,336l.2,138.5L495.1,371.8V233.3Z"/>
    <path id="Path_2911" data-name="Path 2911" class="cls-8" d="M137.2,232.8V371.2L315.9,474.4V336Z"/>
    <g id="Group_3360" data-name="Group 3360">
      <ellipse id="Ellipse_90" data-name="Ellipse 90" class="cls-9" cx="13.2" cy="22.9" rx="13.2" ry="22.9" transform="translate(31.431 479.284) rotate(-89.689)"/>
      <path id="Path_2912" data-name="Path 2912" class="cls-10" d="M68.7,467.6l-9.2-3.1-2.8,2.2c-1.5,1.9-2.1,3-1.3,4.8.6,1.6,3.3,2.2,4.9,2.4l7.1-.1c5.2.1,5.8-1.6,6.1-3.2h0C73.7,468.8,71.7,468.1,68.7,467.6Z"/>
      <path id="Path_2913" data-name="Path 2913" class="cls-10" d="M48.1,454.8l-9.5,1.9L37.3,460c-.3,2.4-.3,3.6,1.3,4.9,1.3,1,4,.2,5.4-.4l6.1-3.7c4.5-2.5,4.2-4.3,3.7-5.9h0C53.1,453.3,51,453.7,48.1,454.8Z"/>
      <path id="Path_2914" data-name="Path 2914" class="cls-11" d="M58.8,329.9l-.1,1s-.3,3-3,1-2.1-5.7-2.1-5.7S55.9,326.3,58.8,329.9Z"/>
      <path id="Path_2915" data-name="Path 2915" class="cls-12" d="M55.7,332c3.5,2.6,3.9-.9,3.9-.9h0l.1-1.2c-3.7-4.3-6.5-4.5-6.5-4.5A6.348,6.348,0,0,0,55.7,332Zm-1.9-5.6s2.2.2,5,3.5l-.1.9s-.3,2.6-2.9.7A5.411,5.411,0,0,1,53.8,326.4Z"/>
      <path id="Path_2916" data-name="Path 2916" class="cls-12" d="M60.9,331.9l-2.1-1.3.1-1.3,2.1,1.3Z"/>
      <path id="Path_2917" data-name="Path 2917" class="cls-12" d="M53.3,326.4l-.4-.2a.756.756,0,0,1-.3-.8h0c0-.3.2-.4.4-.3l.4.2a.756.756,0,0,1,.3.8h0C53.6,326.4,53.5,326.5,53.3,326.4Z"/>
      <path id="Path_2918" data-name="Path 2918" class="cls-12" d="M67,335.3l-.4-.2a.756.756,0,0,1-.3-.8h0c0-.3.2-.4.4-.3l.4.2a.756.756,0,0,1,.3.8h0C67.3,335.3,67.2,335.4,67,335.3Z"/>
      <g id="Group_3352" data-name="Group 3352">
        <g id="Group_3351" data-name="Group 3351">
          <g id="Group_3349" data-name="Group 3349">
            <g id="Group_3348" data-name="Group 3348">
              <path id="Path_2919" data-name="Path 2919" class="cls-10" d="M66.8,334.2a12.134,12.134,0,0,0-6.5-3.9l-.1,1.2h0a7.046,7.046,0,0,0,3.6,5.8C67.4,339.3,66.8,334.2,66.8,334.2Zm-3,2.5a5.28,5.28,0,0,1-2.6-4.3v-.9a9.583,9.583,0,0,1,5.1,3S66.4,338.2,63.8,336.7Z"/>
            </g>
          </g>
          <g id="Group_3350" data-name="Group 3350">
            <path id="Path_2920" data-name="Path 2920" class="cls-13" d="M61.5,333.1h0c-.1-.1-.1-.3,0-.3l.8-.6c.1-.1.2,0,.3.1h0c.1.1.1.3,0,.3l-.8.6C61.7,333.3,61.6,333.2,61.5,333.1Z"/>
          </g>
        </g>
      </g>
      <path id="Path_2921" data-name="Path 2921" class="cls-14" d="M54,328h0c-.1-.1-.1-.3,0-.3l.8-.6c.1-.1.2,0,.3.1h0c.1.1.1.3,0,.3l-.8.6C54.2,328.2,54.1,328.1,54,328Z"/>
      <path id="Path_2922" data-name="Path 2922" class="cls-15" d="M47.8,346.6,50,337l5.8,3.9L54,349.6C53.8,351.1,47.3,349.9,47.8,346.6Z"/>
      <path id="Path_2923" data-name="Path 2923" class="cls-15" d="M53.3,322.7s-5.2-4.9-6.7,4.9A17.317,17.317,0,0,0,54,344.5c3.2,2.2,7.8.7,8.5-2.7,1.6-4.8,2.3-9.5,1.2-13.7.8-4.1-2.2-3-7-4Z"/>
      <path id="Path_2924" data-name="Path 2924" class="cls-10" d="M47.1,341.2s-6.3-3.5-4.3-12.8c2.2-10.1,11.5-7.8,16.8-7.5,2.3.1,4,0,6.1,2.5,1.9,2.2-.8,6.3-3.9,6.1-1.2-.1-1.2,3.3-1.6,4.4-.7,1.9-2.1,2.7-2.9,4.6-.7,1.8-3.9,4.3-5.7,4.2C48.4,342.6,47.1,341.2,47.1,341.2Z"/>
      <path id="Path_2925" data-name="Path 2925" class="cls-10" d="M66.8,335.6l-8.8-.5a.5.5,0,0,1-.5-.6h0a.5.5,0,0,1,.6-.5l8.8.5a.5.5,0,0,1,.5.6h0C67.3,335.3,67.1,335.6,66.8,335.6Z"/>
      <path id="Path_2926" data-name="Path 2926" class="cls-15" d="M59.1,336.7c-.1,1.6-1.1,2.9-2.3,2.8a.6.6,0,0,1-.4-.1,2.847,2.847,0,0,1-1.6-3c.1-1.6,1.1-2.9,2.3-2.8S59.2,335.1,59.1,336.7Z"/>
      <path id="Path_2927" data-name="Path 2927" class="cls-16" d="M79.8,369.9h0a2.377,2.377,0,0,1-1.5-3.1l1.9-5.5a2.377,2.377,0,0,1,3.1-1.5h0a2.377,2.377,0,0,1,1.5,3.1l-1.9,5.5A2.546,2.546,0,0,1,79.8,369.9Z"/>
      <g id="Group_3353" data-name="Group 3353">
        <path id="Path_2928" data-name="Path 2928" class="cls-16" d="M39.8,359.9a23.29,23.29,0,0,0,12.6,11.7c7.7,2.8,15.7-.6,21.9-5.3,2.8-2.1.1-6.8-2.8-4.7-5,3.8-11.4,7.1-17.7,4.7-4.2-1.6-7.3-5.2-9.3-9.2-1.5-3.1-6.2-.4-4.7,2.8Z"/>
      </g>
      <g id="Group_3354" data-name="Group 3354">
        <path id="Path_2929" data-name="Path 2929" class="cls-17" d="M52.5,407.8c3.6,10.7,4,22.2,3.6,33.4-.3,8.3-1.6,16.7-1.4,25,.1,5.5,8.6,5.5,8.5,0-.2-8.6,1.1-17.2,1.4-25.8.3-11.6-.2-23.8-4-34.9-1.7-5.1-9.9-2.9-8.1,2.3Z"/>
      </g>
      <g id="Group_3355" data-name="Group 3355">
        <path id="Path_2930" data-name="Path 2930" class="cls-17" d="M35.4,398.2a129.066,129.066,0,0,1,3.5,21.4c.4,4.2.9,8.2.4,12.4-.9,8.4-2.5,17.1-2.4,25.6,0,5.5,8.5,5.5,8.5,0-.1-8.6,1.6-17.4,2.4-26a61.05,61.05,0,0,0-.6-12.8c-.8-7.6-1.7-15.3-3.7-22.7-1.4-5.4-9.6-3.1-8.1,2.1Z"/>
      </g>
      <g id="Group_3356" data-name="Group 3356">
        <path id="Path_2931" data-name="Path 2931" class="cls-17" d="M42.3,409.5h0c.8.9-2.6-3.4-1.6-2.8,2.1,1.3,13.9,9.3,16.4,9.3,3,0,1.2-2.8,3.4-4.8,2.1-1.9,2.6-4.9,2.8-7.7a4.438,4.438,0,0,0-.2-2.3,4.205,4.205,0,0,0-1.7-1.8c-5.2-4-15.6-13.8-22.9-10.7C30.1,392.3,38.6,405.3,42.3,409.5Z"/>
      </g>
      <path id="Path_2932" data-name="Path 2932" class="cls-18" d="M36.2,346.7c-1.6,2-1.4,3.2-1.3,6a6.091,6.091,0,0,0,4.5,5.7l26.3,7.4s1.5-10.1-3.7-13.2c-2.8-1.6-7.1-4.3-10.5-6.3C46.4,343.2,39.8,342,36.2,346.7Z"/>
      <path id="Path_2933" data-name="Path 2933" class="cls-18" d="M34.8,394.2c-1.7-.6-1.3-29.4.2-45.3L64.6,363c-.1,13.5-1.9,24.2-.2,40.7Z"/>
      <path id="Path_2934" data-name="Path 2934" class="cls-18" d="M54.5,406.6c-7.3-2.7-14.3-5.6-18.4-10.6-2-1.2-1.8-3.2.6-4.5h0c2.3-1.3,5.9-1.5,7.9-.3L63,401.8c2,1.2,1.8,3.2-.6,4.5h0A9.165,9.165,0,0,1,54.5,406.6Z"/>
      <path id="Path_2935" data-name="Path 2935" class="cls-18" d="M64.6,363l-4.9-2.3c-.2,13.2-1.8,23.8-.2,40h-.1a3.129,3.129,0,0,1-1.9,2.6h0c-2.3,1.3-5.9,1.5-7.9.3a90.929,90.929,0,0,1-10-4.2c4,3.1,9.4,5.3,14.9,7.3,2,1.2,5.6,1,7.9-.3h0c1.3-.8,2-1.7,1.9-2.6h.1C62.8,387.2,64.5,376.5,64.6,363Z"/>
      <path id="Path_2936" data-name="Path 2936" class="cls-19" d="M58.6,349.9c-6.8-1-11.4,3.2-13-6.5h0a2.176,2.176,0,0,1,2.9.6,6.811,6.811,0,0,0,6.4,2.4,2.277,2.277,0,0,1,2.1,1Z"/>
      <g id="Group_3357" data-name="Group 3357">
        <path id="Path_2937" data-name="Path 2937" class="cls-16" d="M58.4,359.4c.3,4.4.3,9,1.8,13.2,1.4,3.9,3.2,8.9,6.5,11.7,8.6,7.4,14.5-8.9,16.2-14.5,1.1-3.4-4.2-4.8-5.3-1.5-1.2,3.7-2.5,8.4-5.3,11.2-1.4,1.4-1.8,1.2-3-.6-4.2-6-4.9-12.6-5.5-19.6-.2-3.4-5.6-3.4-5.4.1Z"/>
      </g>
      <path id="Path_2938" data-name="Path 2938" class="cls-18" d="M56.9,359.3c1.7,14,6.1,22.9,12.2,27.4,3.2,1.8,6.2-3.3,5-6.4-6.1-5.4-8.2-13.9-8.8-23.5a4.307,4.307,0,0,0-5.2-2.4h0A4.2,4.2,0,0,0,56.9,359.3Z"/>
      <path id="Path_2939" data-name="Path 2939" class="cls-19" d="M73.9,378.4c.5,2.2,1.2,6.9-2.4,8.6a2.02,2.02,0,0,1-1.7,0l-1.1-.5a1.976,1.976,0,0,1-.9-2.9,18.855,18.855,0,0,0,2.1-5.2,2.014,2.014,0,0,1,2.7-1.5h0A2.136,2.136,0,0,1,73.9,378.4Z"/>
      <g id="Group_3359" data-name="Group 3359">
        <g id="Group_3358" data-name="Group 3358">
          <path id="Path_2940" data-name="Path 2940" class="cls-18" d="M79.7,369.6l-5.9-4.4a.932.932,0,0,1-.2-1.3l5.8-11.8a.6.6,0,0,1,1-.3l5.9,4.3a.932.932,0,0,1,.2,1.3l-5.8,11.7c-.1.3-.3.3-.6.4Z"/>
          <path id="Path_2941" data-name="Path 2941" class="cls-18" d="M80.4,357.7s-7.1,6.7-6.8,6.2l5.8-12.2.6-.1a.9.9,0,0,1,.5.1l5.9,4.3a.6.6,0,0,1,.3.6Z"/>
          <path id="Path_2942" data-name="Path 2942" class="cls-10" d="M79.1,369.5l-5.9-4.3a1.039,1.039,0,0,1-.2-1.3l5.8-11.8a.687.687,0,0,1,1-.4l5.9,4.3a1.039,1.039,0,0,1,.2,1.3l-5.8,11.8C79.9,369.6,79.4,369.8,79.1,369.5Z"/>
          <path id="Path_2943" data-name="Path 2943" class="cls-20" d="M85.7,358.3l-.3.7a.1.1,0,0,0,.1.1h0a.1.1,0,0,0,.1-.1l.3-.7v-.1h0A.349.349,0,0,0,85.7,358.3Z"/>
          <path id="Path_2944" data-name="Path 2944" class="cls-20" d="M85.1,359.5l-.3.7a.1.1,0,0,0,.1.1h0a.1.1,0,0,0,.1-.1l.3-.7v-.1h0A.349.349,0,0,0,85.1,359.5Z"/>
          <path id="Path_2945" data-name="Path 2945" class="cls-21" d="M80,367.6l-5.8-4.2L79.3,353l5.8,4.2L80,367.3C79.9,367.4,80.1,367.6,80,367.6Z"/>
          <path id="Path_2946" data-name="Path 2946" class="cls-22" d="M83.4,355.4l-1.8-1.3c-.1,0-.1-.2,0-.2h0c0-.1.1-.1.2-.1l1.8,1.3c.1,0,.1.2,0,.2h0C83.6,355.4,83.5,355.5,83.4,355.4Z"/>
        </g>
        <path id="Path_2947" data-name="Path 2947" class="cls-16" d="M82,367.9l.7-1.5c-.6,0-1.2,2.3-1.2,1.8v-6.6c0-.5.5-.8,1.1-.8h0a.923.923,0,0,1,1,.9l-.1,3.2C83.5,365.4,82.6,367.9,82,367.9Z"/>
      </g>
    </g>
    <path id="Path_2948" data-name="Path 2948" class="cls-6" d="M236.2,542.4,122.7,476.9l112.8-65.2,114.7,65.5Z"/>
    <path id="Path_2949" data-name="Path 2949" class="cls-23" d="M236.2,542.4l.1,63.8L350.2,541V477.2Z"/>
    <path id="Path_2950" data-name="Path 2950" class="cls-8" d="M122.8,476.9v63.8l113.6,65.6V542.4Z"/>
    <g id="Group_3371" data-name="Group 3371">
      <path id="Path_2951" data-name="Path 2951" class="cls-24" d="M419.1,267.1l-102.4-58c-1.2-.7-1.1-1.9.3-2.6l48-28a5.006,5.006,0,0,1,4.6-.2l102.4,58c1.2.7,1.1,1.9-.3,2.6l-48,28A5.72,5.72,0,0,1,419.1,267.1Z"/>
      <g id="Group_3361" data-name="Group 3361">
        <path id="Path_2952" data-name="Path 2952" class="cls-25" d="M427.8,155.2a7.867,7.867,0,0,1,3.8,6l-2.5,95c-.1,2.1-1.8,2.8-4,1.6l-157.5-91a7.867,7.867,0,0,1-3.8-6l2.5-95c.1-2.1,1.8-2.8,4-1.6Z"/>
      </g>
      <path id="Path_2953" data-name="Path 2953" class="cls-26" d="M435.6,135.1h0v-.3h0v-.4h0V134h0v-.3c0-.1,0-.1-.1-.2h0c0-.1,0-.1-.1-.2,0-.1,0-.1-.1-.2h0V133c0-.1,0-.1-.1-.2a.1.1,0,0,0-.1-.1h0a1244031329956.91,1244031329956.91,0,0,1-.2-.2v-.1h0v-.1l-.1-.1-.1-.1h0c0-.1-.1-.1-.1-.2l-.1-.1a.1.1,0,0,0-.1-.1h0l-.2-.2-.1-.1h0c-.1-.1-.1-.2-.2-.3h0l-.1-.1a.1.1,0,0,0-.1-.1l-.1-.1h0v-.1l-.1-.1-.1-.1h0l-.1-.1c-.1,0-.1-.1-.2-.1h0a.349.349,0,0,0-.2-.1c-.1,0-.1-.1-.2-.1h0l-.1-.1c-.1,0-.1-.1-.2-.1h0a.1.1,0,0,1-.1-.1c-.1,0-.1-.1-.2-.1l-3.8-2.2h0L274.9,38.7h0l-.2-.1h0l-.4-.2c-.1,0-.1-.1-.2-.1s-.1-.1-.2-.1-.1,0-.2-.1c-.1,0-.1,0-.2-.1-.1,0-.1,0-.2-.1-.1,0-.1,0-.2-.1H272a.367.367,0,0,0-.3.1h0c-.1,0-.2.1-.3.1l-3.9,2.3a.367.367,0,0,1,.3-.1h1.3a.367.367,0,0,1,.3.1h0c.1,0,.2.1.4.1h0c.1.1.3.1.4.2.1,0,.1.1.2.1a.1.1,0,0,1,.1.1l.9.5,152.9,88.3-.1.1s4,2.1,4,2.2c.1,0,.1.1.2.1s.1.1.2.1.1.1.2.1l.1.1c.1.1.2.1.3.2h0c.1.1.2.1.2.2h0c.1.1.2.1.2.2h0l.2.2h0c.1.1.1.2.2.2l.1.1c0,.1.1.1.1.2s.1.1.1.2l.1.1a.1.1,0,0,0,.1.1c0,.1.1.1.1.2v.1c.1.1.1.2.2.3h0c.1.1.1.2.2.3h0c0,.1.1.2.1.3h0c0,.1.1.2.1.3h0c0,.1.1.2.1.3h0c0,.1.1.2.1.3h0c0,.1.1.2.1.3h0a.367.367,0,0,0,.1.3v1.2l-.4,15a9.223,9.223,0,0,0-.8-.5l-4.1,2.2a12.749,12.749,0,0,0,1.2.7c.1,0,.1.1.2.1s.1.1.2.1.1.1.2.1l.1.1c.1.1.2.1.3.2h0c.1.1.2.1.2.2h0c.1.1.2.1.2.2h0l.2.2h0c.1.1.1.2.2.2l.1.1c0,.1.1.1.1.2s.1.1.1.2l.1.1a.1.1,0,0,0,.1.1c0,.1.1.1.1.2v.1c.1.1.1.2.2.3h0c.1.1.1.2.2.3h0c0,.1.1.2.1.3h0c0,.1.1.2.1.3h0c0,.1.1.2.1.3h0c0,.1.1.2.1.3h0c0,.1.1.2.1.3h0a.367.367,0,0,0,.1.3v.2l-1.9,71c0,.4-1.4,3.2-1,3l1-.9-.6,21.5c0,.4-1.4,3.2-1,3l3.7-3.4a4.144,4.144,0,0,0,1.3-2.9L435,160v-1.3h0v-.3h0v-.1l.6-21.7v-1.5Z"/>
      <g id="Group_3364" data-name="Group 3364">
        <g id="Group_3363" data-name="Group 3363">
          <g id="Group_3362" data-name="Group 3362">
            <path id="Path_2954" data-name="Path 2954" class="cls-10" d="M427.9,144.1c2.1,1.2,3.6,0,3.6,2.1l-2.1,98.9c-.1,2.1-2,2.8-4.2,1.5l-157.5-91a7.867,7.867,0,0,1-3.8-6l2.5-95c.1-2.1,1.8-2.8,4-1.6Z"/>
          </g>
        </g>
      </g>
      <g id="Group_3367" data-name="Group 3367">
        <g id="Group_3366" data-name="Group 3366">
          <g id="Group_3365" data-name="Group 3365">
            <path id="Path_2955" data-name="Path 2955" class="cls-10" d="M427.9,131.6a7.867,7.867,0,0,1,3.8,6l-2.4,95c-.1,2.1-2,2.8-4.2,1.5l-157.5-91c-2.1-1.2-3.7,3.4-3.6,1.3l2.4-102.3c.1-2.1,1.8-2.8,4-1.6Z"/>
          </g>
        </g>
      </g>
      <path id="Path_2956" data-name="Path 2956" class="cls-18" d="M427.6,143.1c.1-1.8-1.5-4.1-3.5-5.3L274.9,53.1c-2-1.2-3.7-.7-3.8,1.1l-.5,11.5a1.268,1.268,0,0,0-.1.6l-2.1,79.8c-.1,1.8,2.2,5,4.2,6.1L420.1,236c2,1.2,3.7.7,3.8-1.1l.5-11.5a1.268,1.268,0,0,0,.1-.6Z"/>
      <path id="Path_2957" data-name="Path 2957" class="cls-10" d="M425.8,264.1v-6.2l-6.1,3.9-1.3-3L266.7,171.2c-1.8-1.1-5.5-.9-7.6.3l-65.7,37.7v-1.1l-10,4.9-1.4-.6.2,4.6a2.213,2.213,0,0,0,1.2,1.8l157.9,91.4c1.8,1.1,5.1,1,7.2-.2l75.7-43.6a2.944,2.944,0,0,0,1.6-2.3Z"/>
      <path id="Path_2958" data-name="Path 2958" class="cls-27" d="M341.1,304.1,183.2,212.9c-1.8-1.1-1.6-2.9.5-4.1l75.7-43.7c2.1-1.2,5.3-1.4,7.2-.3L424.4,256c1.8,1.1,1.6,2.9-.5,4.1l-75.7,43.7C346.1,305,342.9,305.2,341.1,304.1Z"/>
      <g id="Group_3370" data-name="Group 3370" class="cls-28">
        <g id="Group_3369" data-name="Group 3369">
          <g id="Group_3368" data-name="Group 3368">
            <path id="Path_2959" data-name="Path 2959" class="cls-29" d="M268.8,181.7a1.211,1.211,0,0,1-1-.1l-9.6-5.5c-.3-.2-.4-.5-.2-.6l6.4-3.7a1.211,1.211,0,0,1,1,.1l9.6,5.5c.3.2.4.5.2.6Z"/>
            <path id="Path_2960" data-name="Path 2960" class="cls-29" d="M279.9,198.2a1.211,1.211,0,0,1-1-.1l-9.6-5.5c-.3-.2-.4-.5-.2-.6l6.4-3.7a1.211,1.211,0,0,1,1,.1l9.6,5.5c.4.2.4.5.2.6Z"/>
            <path id="Path_2961" data-name="Path 2961" class="cls-29" d="M274.3,205.1a1.211,1.211,0,0,1-1-.1l-9.6-5.5c-.3-.2-.4-.5-.2-.6l6.4-3.7a1.211,1.211,0,0,1,1,.1l9.6,5.5c.3.2.4.5.2.6Z"/>
            <path id="Path_2962" data-name="Path 2962" class="cls-29" d="M259.1,206.4a1.211,1.211,0,0,1-1-.1l-9.6-5.5c-.3-.2-.4-.5-.2-.6l6.4-3.7a1.211,1.211,0,0,1,1,.1l9.6,5.5c.3.2.4.5.2.6Z"/>
            <path id="Path_2963" data-name="Path 2963" class="cls-29" d="M232.7,202.6a1.211,1.211,0,0,1-1-.1l-9.6-5.5c-.3-.2-.4-.5-.2-.6l7.5-4.3a1.211,1.211,0,0,1,1,.1l9.6,5.5c.3.2.4.5.2.6Z"/>
            <path id="Path_2964" data-name="Path 2964" class="cls-29" d="M249.3,212.1a1.884,1.884,0,0,1-1.2-.2l-12.6-7.2c-.4-.3-.6-.6-.4-.7l7.5-4.3a1.884,1.884,0,0,1,1.2.2l12.6,7.2c.5.3.6.6.4.7Z"/>
            <path id="Path_2965" data-name="Path 2965" class="cls-29" d="M331.8,259.8a1.363,1.363,0,0,1-1-.2l-9.6-5.5c-.3-.2-.5-.5-.3-.6l2.8-1.6a1.363,1.363,0,0,1,1,.2l9.6,5.5c.3.2.5.5.3.6Z"/>
            <path id="Path_2966" data-name="Path 2966" class="cls-29" d="M344.6,267.4a1.363,1.363,0,0,1-1-.2l-9.6-5.5c-.3-.2-.5-.5-.3-.6l2.8-1.6a1.363,1.363,0,0,1,1,.2l9.6,5.5c.3.2.5.5.3.6Z"/>
            <path id="Path_2967" data-name="Path 2967" class="cls-29" d="M358.2,275a1.363,1.363,0,0,1-1-.2l-9.6-5.5c-.3-.2-.5-.5-.3-.6l2.7-1.5a1.363,1.363,0,0,1,1,.2l9.6,5.5c.3.2.5.4.3.6Z"/>
            <path id="Path_2968" data-name="Path 2968" class="cls-29" d="M349.8,264.4a1.363,1.363,0,0,1-1-.2l-9.6-5.5c-.3-.2-.5-.5-.3-.6l2.7-1.5a1.363,1.363,0,0,1,1,.2l9.6,5.5c.3.2.5.4.3.6Z"/>
            <path id="Path_2969" data-name="Path 2969" class="cls-29" d="M315.2,250.1a1.211,1.211,0,0,1-1-.1l-62.4-36c-.3-.2-.4-.5-.2-.6l7.5-4.3a1.211,1.211,0,0,1,1,.1l62.4,36c.3.2.4.5.2.6Z"/>
            <path id="Path_2970" data-name="Path 2970" class="cls-29" d="M247.6,209.7h-.1l-7.3-4.2s-.1,0,0-.1l.5-.3h.1l7.3,4.2s.1,0,0,.1Z"/>
            <path id="Path_2971" data-name="Path 2971" class="cls-29" d="M228.8,198.1h0l-3.2-1.8h0l.5-.3h.1l3.1,1.8h0Z"/>
            <path id="Path_2972" data-name="Path 2972" class="cls-29" d="M272.3,214a1.211,1.211,0,0,1-1-.1l-9.6-5.5c-.3-.2-.4-.5-.2-.6l6.4-3.7a1.211,1.211,0,0,1,1,.1l9.6,5.5c.3.2.4.5.2.6Z"/>
            <path id="Path_2973" data-name="Path 2973" class="cls-29" d="M285.5,221.6a1.211,1.211,0,0,1-1-.1l-9.6-5.5c-.3-.2-.4-.5-.2-.6l6.4-3.7a1.211,1.211,0,0,1,1,.1l9.6,5.5c.3.2.4.5.2.6Z"/>
            <path id="Path_2974" data-name="Path 2974" class="cls-29" d="M298.7,229.2a1.211,1.211,0,0,1-1-.1l-9.6-5.5c-.3-.2-.4-.5-.2-.6l6.4-3.7a1.211,1.211,0,0,1,1,.1l9.6,5.5c.3.2.4.5.2.6Z"/>
            <path id="Path_2975" data-name="Path 2975" class="cls-29" d="M311.9,236.8a1.211,1.211,0,0,1-1-.1l-9.6-5.5c-.3-.2-.4-.5-.2-.6l6.4-3.7a1.211,1.211,0,0,1,1,.1l9.6,5.5c.3.2.4.5.2.6Z"/>
            <path id="Path_2976" data-name="Path 2976" class="cls-29" d="M325.1,244.4a1.211,1.211,0,0,1-1-.1l-9.6-5.5c-.3-.2-.4-.5-.2-.6l6.4-3.7a1.211,1.211,0,0,1,1,.1l9.6,5.5c.3.2.4.5.2.6Z"/>
            <path id="Path_2977" data-name="Path 2977" class="cls-29" d="M338.3,252.1a1.211,1.211,0,0,1-1-.1l-9.6-5.5c-.3-.2-.4-.5-.2-.6l6.4-3.7a1.211,1.211,0,0,1,1,.1l9.6,5.5c.3.2.4.5.2.6Z"/>
            <path id="Path_2978" data-name="Path 2978" class="cls-29" d="M368,269.2a1.211,1.211,0,0,1-1-.1L340.8,254c-.3-.2-.4-.5-.2-.6l6.4-3.7a1.211,1.211,0,0,1,1,.1l26.1,15.1c.3.2.4.5.2.6Z"/>
            <path id="Path_2979" data-name="Path 2979" class="cls-29" d="M287.5,212.7a1.211,1.211,0,0,1-1-.1l-9.6-5.5c-.3-.2-.4-.5-.2-.6l6.4-3.7a1.211,1.211,0,0,1,1,.1l9.6,5.5c.3.2.4.5.2.6Z"/>
            <path id="Path_2980" data-name="Path 2980" class="cls-29" d="M300.7,220.3a1.211,1.211,0,0,1-1-.1l-9.6-5.5c-.3-.2-.4-.5-.2-.6l6.4-3.7a1.211,1.211,0,0,1,1,.1l9.6,5.5c.3.2.4.5.2.6Z"/>
            <path id="Path_2981" data-name="Path 2981" class="cls-29" d="M313.9,227.9a1.211,1.211,0,0,1-1-.1l-9.6-5.5c-.3-.2-.4-.5-.2-.6l6.4-3.7a1.211,1.211,0,0,1,1,.1l9.6,5.5c.3.2.4.5.2.6Z"/>
            <path id="Path_2982" data-name="Path 2982" class="cls-29" d="M327.1,235.5a1.211,1.211,0,0,1-1-.1l-9.6-5.5c-.3-.2-.4-.5-.2-.6l6.4-3.7a1.211,1.211,0,0,1,1,.1l9.6,5.5c.3.2.4.5.2.6Z"/>
            <path id="Path_2983" data-name="Path 2983" class="cls-29" d="M340.3,243.1a1.211,1.211,0,0,1-1-.1l-9.6-5.5c-.3-.2-.4-.5-.2-.6l6.4-3.7a1.211,1.211,0,0,1,1,.1l9.6,5.5c.3.2.4.5.2.6Z"/>
            <path id="Path_2984" data-name="Path 2984" class="cls-29" d="M353.5,250.7a1.211,1.211,0,0,1-1-.1l-9.6-5.5c-.3-.2-.4-.5-.2-.6l6.4-3.7a1.211,1.211,0,0,1,1,.1l9.6,5.5c.3.2.4.5.2.6Z"/>
            <path id="Path_2985" data-name="Path 2985" class="cls-29" d="M366.7,258.4a1.211,1.211,0,0,1-1-.1l-9.6-5.5c-.3-.2-.4-.5-.2-.6l6.4-3.7a1.211,1.211,0,0,1,1,.1l9.6,5.5c.3.2.4.5.2.6Z"/>
            <path id="Path_2986" data-name="Path 2986" class="cls-29" d="M293.1,205.8a1.211,1.211,0,0,1-1-.1l-9.6-5.5c-.3-.2-.4-.5-.2-.6l6.4-3.7a1.211,1.211,0,0,1,1,.1l9.6,5.5c.3.2.4.5.2.6Z"/>
            <path id="Path_2987" data-name="Path 2987" class="cls-29" d="M306.3,213.4a1.211,1.211,0,0,1-1-.1l-9.6-5.5c-.3-.2-.4-.5-.2-.6l6.4-3.7a1.211,1.211,0,0,1,1,.1l9.6,5.5c.3.2.4.5.2.6Z"/>
            <path id="Path_2988" data-name="Path 2988" class="cls-29" d="M319.5,221a1.211,1.211,0,0,1-1-.1l-9.6-5.5c-.3-.2-.4-.5-.2-.6l6.4-3.7a1.211,1.211,0,0,1,1,.1l9.6,5.5c.3.2.4.5.2.6Z"/>
            <path id="Path_2989" data-name="Path 2989" class="cls-29" d="M332.7,228.6a1.211,1.211,0,0,1-1-.1l-9.6-5.5c-.3-.2-.4-.5-.2-.6l6.4-3.7a1.211,1.211,0,0,1,1,.1l9.6,5.5c.3.2.4.5.2.6Z"/>
            <path id="Path_2990" data-name="Path 2990" class="cls-29" d="M345.9,236.3a1.211,1.211,0,0,1-1-.1l-9.6-5.5c-.3-.2-.4-.5-.2-.6l6.4-3.7a1.211,1.211,0,0,1,1,.1l9.6,5.5c.3.2.4.5.2.6Z"/>
            <path id="Path_2991" data-name="Path 2991" class="cls-29" d="M359.1,243.9a1.211,1.211,0,0,1-1-.1l-9.6-5.5c-.3-.2-.4-.5-.2-.6l6.4-3.7a1.211,1.211,0,0,1,1,.1l9.6,5.5c.3.2.4.5.2.6Z"/>
            <path id="Path_2992" data-name="Path 2992" class="cls-29" d="M372.3,251.5a1.211,1.211,0,0,1-1-.1l-9.6-5.5c-.3-.2-.4-.5-.2-.6l6.4-3.7a1.211,1.211,0,0,1,1,.1l9.6,5.5c.3.2.4.5.2.6Z"/>
            <path id="Path_2993" data-name="Path 2993" class="cls-29" d="M266.8,190.6a1.211,1.211,0,0,1-1-.1l-16.3-9.4c-.3-.2-.4-.5-.2-.6l6.4-3.7a1.211,1.211,0,0,1,1,.1l16.3,9.4c.3.2.4.5.2.6Z"/>
            <path id="Path_2994" data-name="Path 2994" class="cls-29" d="M394.2,254.1a1.211,1.211,0,0,1-1-.1l-16.3-9.4c-.3-.2-.4-.5-.2-.6l6.4-3.7a1.211,1.211,0,0,1,1,.1l16.3,9.4c.3.2.4.5.2.6Z"/>
            <path id="Path_2995" data-name="Path 2995" class="cls-29" d="M261.1,197.5a1.211,1.211,0,0,1-1-.1l-19.4-11.2c-.3-.2-.4-.5-.2-.6l6.4-3.7a1.211,1.211,0,0,1,1,.1l19.4,11.2c.3.2.4.5.2.6Z"/>
            <path id="Path_2996" data-name="Path 2996" class="cls-29" d="M245.9,198.8a1.211,1.211,0,0,1-1-.1L232,191.2c-.3-.2-.4-.5-.2-.6l6.4-3.7a1.211,1.211,0,0,1,1,.1l12.9,7.5c.3.2.4.5.2.6Z"/>
            <path id="Path_2997" data-name="Path 2997" class="cls-29" d="M282,189.3a1.211,1.211,0,0,1-1-.1l-9.6-5.5c-.3-.2-.4-.5-.2-.6l6.4-3.7a1.211,1.211,0,0,1,1,.1l9.6,5.5c.3.2.4.5.2.6Z"/>
            <path id="Path_2998" data-name="Path 2998" class="cls-29" d="M295.2,196.9a1.211,1.211,0,0,1-1-.1l-9.6-5.5c-.3-.2-.4-.5-.2-.6l6.4-3.7a1.211,1.211,0,0,1,1,.1l9.6,5.5c.3.2.4.5.2.6Z"/>
            <path id="Path_2999" data-name="Path 2999" class="cls-29" d="M308.4,204.5a1.211,1.211,0,0,1-1-.1l-9.6-5.5c-.3-.2-.4-.5-.2-.6l6.4-3.7a1.211,1.211,0,0,1,1,.1l9.6,5.5c.3.2.4.5.2.6Z"/>
            <path id="Path_3000" data-name="Path 3000" class="cls-29" d="M321.6,212.1a1.211,1.211,0,0,1-1-.1l-9.6-5.5c-.3-.2-.4-.5-.2-.6l6.4-3.7a1.211,1.211,0,0,1,1,.1l9.6,5.5c.3.2.4.5.2.6Z"/>
            <path id="Path_3001" data-name="Path 3001" class="cls-29" d="M334.8,219.7a1.211,1.211,0,0,1-1-.1l-9.6-5.5c-.3-.2-.4-.5-.2-.6l6.4-3.7a1.211,1.211,0,0,1,1,.1l9.6,5.5c.3.2.4.5.2.6Z"/>
            <path id="Path_3002" data-name="Path 3002" class="cls-29" d="M348,227.4a1.211,1.211,0,0,1-1-.1l-9.6-5.5c-.3-.2-.4-.5-.2-.6l6.4-3.7a1.211,1.211,0,0,1,1,.1l9.6,5.5c.3.2.4.5.2.6Z"/>
            <path id="Path_3003" data-name="Path 3003" class="cls-29" d="M361.2,235a1.211,1.211,0,0,1-1-.1l-9.6-5.5c-.3-.2-.4-.5-.2-.6l6.4-3.7a1.211,1.211,0,0,1,1,.1l9.6,5.5c.3.2.4.5.2.6Z"/>
            <path id="Path_3004" data-name="Path 3004" class="cls-29" d="M374.4,242.6a1.211,1.211,0,0,1-1-.1l-9.6-5.5c-.3-.2-.4-.5-.2-.6l6.4-3.7a1.211,1.211,0,0,1,1,.1l9.6,5.5c.3.2.4.5.2.6Z"/>
            <path id="Path_3005" data-name="Path 3005" class="cls-29" d="M382,249.3a1.421,1.421,0,0,0-.6-.2.749.749,0,0,0-.5.1l-6.4,3.7c-.1.1-.2.2-.1.3,0,.1.2.2.3.3l2.5,1.4-8.3,4.8c-.1.1-.2.2-.1.3,0,.1.2.2.3.3l6.5,3.7a1.421,1.421,0,0,0,.6.2.749.749,0,0,0,.5-.1l15.1-8.7a.367.367,0,0,0,.1-.3c0-.1-.2-.2-.3-.3Z"/>
            <path id="Path_3006" data-name="Path 3006" class="cls-29" d="M244.2,195.7h0l-7.4-4.3s-.1,0,0-.1l.5-.3h.1l7.3,4.2s.1,0,0,.1Z"/>
          </g>
        </g>
      </g>
    </g>
    <g id="Group_3372" data-name="Group 3372">
      <path id="Path_3007" data-name="Path 3007" class="cls-24" d="M206.4,411.4l-39.3,22a2.734,2.734,0,0,0-1.3,3.8,3.161,3.161,0,0,0,4.1.8l41.9-23.4Z"/>
      <path id="Path_3008" data-name="Path 3008" class="cls-24" d="M181,396.8l-5.7-3.3-38.9,22.1a2.734,2.734,0,0,0-1.3,3.8,3.161,3.161,0,0,0,4.1.8Z"/>
      <path id="Path_3009" data-name="Path 3009" class="cls-10" d="M206.3,289.9l-.3-.1c-.9-.5-1.9.2-2.3,1.6L199,309l-28-16,4.7-17.6a3.363,3.363,0,0,0-.9-3.5l-.3-.1c-.9-.5-1.9.2-2.3,1.6l-5.1,19h0l-.5,1.9h0l-6.1,22.8h0l-.4,1.4-6.2,23.3h0v.1l-6.8,25.4-.3,1h0l-6.1,22.8h0l-.5,1.9h0l-6.4,23.8a3.363,3.363,0,0,0,.9,3.5l.3.1c.9.5,1.9-.2,2.3-1.6l6-22.4,28,16-6,22.4a3.363,3.363,0,0,0,.9,3.5l.3.1c.9.5,1.9-.2,2.3-1.6l38.3-143.2A3.275,3.275,0,0,0,206.3,289.9Zm-8.5,23.8-5.3,19.9-28-16,5.3-19.9Zm-11.9,44.5-28-16,5.3-19.9,28,16Zm-6.6,24.7-28-16,5.3-19.9,28,16Zm-34.6,8.6,5.3-19.9,28,16-5.3,19.9Z"/>
    </g>
    <path id="Path_3010" data-name="Path 3010" class="cls-6" d="M496.2,461.8,358.8,382.4l136.6-78.8,138.8,79.2Z"/>
    <path id="Path_3011" data-name="Path 3011" class="cls-30" d="M496.2,461.8l.2,77.2,137.8-79V382.8Z"/>
    <path id="Path_3012" data-name="Path 3012" class="cls-8" d="M359,382.4v77.3L496.4,539V461.8Z"/>
    <g id="Group_3374" data-name="Group 3374">
      <path id="Path_3013" data-name="Path 3013" class="cls-18" d="M234.9,158.1l-68,39.3a5.641,5.641,0,0,1-8.5-4.9V74.5a8.233,8.233,0,0,1,4.1-7.1L232.4,27a3.863,3.863,0,0,1,5.8,3.3V152.5A6.73,6.73,0,0,1,234.9,158.1Z"/>
      <g id="Group_3373" data-name="Group 3373">
        <path id="Path_3014" data-name="Path 3014" class="cls-10" d="M175.3,140c-.3,14.7,9.8,20.9,22.6,13.8,12.8-7,23.4-24.6,23.7-39.3s-9.8-20.9-22.6-13.8C186.3,107.7,175.6,125.3,175.3,140Zm22.9,2.5c-7.3,4-13.1.5-13-7.9.2-8.4,6.3-18.5,13.6-22.6,7.3-4,13.1-.5,13,7.9C211.6,128.4,205.5,138.5,198.2,142.5Z"/>
        <path id="Path_3015" data-name="Path 3015" class="cls-31" d="M176.3,132.6c2.9-12.8,12.1-26,22.7-31.9,7.8-4.3,14.6-3.6,18.7.9l-2.8,3.7h0l-5.5,7.2c-2.3-2.5-6.2-2.9-10.7-.4-6.1,3.3-11.3,10.8-13,18.1Z"/>
        <path id="Path_3016" data-name="Path 3016" class="cls-19" d="M208.1,132.1a25.555,25.555,0,0,0,3.6-12.1c.1-3.6-.9-6.2-2.6-7.9l1.9-2.5a.1.1,0,0,0-.1-.1l6-8.8c.2.1.3.3.5.5h0l.1.1.1.1.2.2c2.6,2.9,4.1,7.3,4,13-.1,6.8-2.5,14.1-6.2,20.8Z"/>
      </g>
      <path id="Path_3017" data-name="Path 3017" class="cls-19" d="M211.3,77.6l8.3-4.8a6.01,6.01,0,0,0,2.4-4.6h0c0-1.8-1.1-2.6-2.4-1.8l-8.3,4.8a6.01,6.01,0,0,0-2.4,4.6h0C208.9,77.5,210,78.3,211.3,77.6Z"/>
      <path id="Path_3018" data-name="Path 3018" class="cls-10" d="M211.3,63l8.3-4.8a6.01,6.01,0,0,0,2.4-4.6h0c0-1.8-1.1-2.6-2.4-1.8l-8.3,4.8a6.01,6.01,0,0,0-2.4,4.6h0C208.9,63,210,63.8,211.3,63Z"/>
      <path id="Path_3019" data-name="Path 3019" class="cls-10" d="M206.9,65.6l8.3-4.8a6.01,6.01,0,0,0,2.4-4.6h0c0-1.8-1.1-2.6-2.4-1.8l-8.3,4.8a6.01,6.01,0,0,0-2.4,4.6h0C204.4,65.5,205.5,66.4,206.9,65.6Z"/>
      <path id="Path_3020" data-name="Path 3020" class="cls-19" d="M194.2,87.5l8.3-4.8a6.01,6.01,0,0,0,2.4-4.6h0c0-1.8-1.1-2.6-2.4-1.8l-8.3,4.8a6.01,6.01,0,0,0-2.4,4.6h0C191.8,87.5,192.9,88.3,194.2,87.5Z"/>
      <path id="Path_3021" data-name="Path 3021" class="cls-19" d="M177.1,97.4l8.3-4.8a6.01,6.01,0,0,0,2.4-4.6h0c0-1.8-1.1-2.6-2.4-1.8L177.1,91a6.01,6.01,0,0,0-2.4,4.6h0C174.7,97.3,175.8,98.2,177.1,97.4Z"/>
    </g>
    <g id="Group_3375" data-name="Group 3375">
      <path id="Path_3022" data-name="Path 3022" class="cls-32" d="M373.7,114.6l-2,85.6,42.1,24.5,2-85.6Z"/>
      <path id="Path_3023" data-name="Path 3023" class="cls-18" d="M406.6,155.8l-19-11,.1-3.4,18.9,11Z"/>
      <path id="Path_3024" data-name="Path 3024" class="cls-18" d="M406.2,171.2l-18.9-11,.1-3.4,18.9,11Z"/>
      <path id="Path_3025" data-name="Path 3025" class="cls-18" d="M405.8,186.6l-18.9-11.1.1-3.4,18.9,11.1Z"/>
      <path id="Path_3026" data-name="Path 3026" class="cls-10" d="M382.7,143.8l-3.8-2.2a2.328,2.328,0,0,1-1-2l.1-4c0-.8.5-1.1,1.1-.8l3.8,2.2a2.328,2.328,0,0,1,1,2l-.1,4C383.7,143.8,383.2,144.1,382.7,143.8Z"/>
      <path id="Path_3027" data-name="Path 3027" class="cls-10" d="M382.3,160.3l-3.8-2.2a2.328,2.328,0,0,1-1-2l.1-4c0-.8.5-1.1,1.1-.8l3.8,2.2a2.328,2.328,0,0,1,1,2l-.1,4C383.3,160.2,382.9,160.6,382.3,160.3Z"/>
      <path id="Path_3028" data-name="Path 3028" class="cls-10" d="M381.9,176.7l-3.8-2.2a2.328,2.328,0,0,1-1-2l.1-4c0-.8.5-1.1,1.1-.8l3.8,2.2a2.328,2.328,0,0,1,1,2l-.1,4C382.9,176.7,382.5,177,381.9,176.7Z"/>
      <path id="Path_3029" data-name="Path 3029" class="cls-31" d="M392.4,208.2l-22.2-12.9c-3-1.8-5.4-6.5-5.3-10.6v-1.2c.1-4.1,2.6-5.9,5.7-4.2l22.2,12.9c3,1.8,5.4,6.5,5.3,10.6V204C398,208.1,395.5,210,392.4,208.2Z"/>
      <path id="Path_3030" data-name="Path 3030" class="cls-19" d="M390.5,199.7l-19.2-11.2a1.613,1.613,0,0,1-.7-1.4h0c0-.5.3-.8.7-.5l19.2,11.2a1.613,1.613,0,0,1,.7,1.4h0C391.3,199.7,390.9,200,390.5,199.7Z"/>
    </g>
    <g id="Group_3377" data-name="Group 3377">
      <path id="Path_3031" data-name="Path 3031" class="cls-19" d="M363.7,113.9l.1-1.3-84.4-49-1.7,77.6,84.3,49Z"/>
      <g id="Group_3376" data-name="Group 3376">
        <path id="Path_3032" data-name="Path 3032" class="cls-33" d="M354.6,172.8l-71.1-41.4,1.2-57.6,71.2,41.4Z"/>
        <line id="Line_51" data-name="Line 51" class="cls-33" x1="1.3" y2="57.5" transform="translate(306.6 87.3)"/>
        <line id="Line_52" data-name="Line 52" class="cls-33" x1="1.3" y2="57.6" transform="translate(330.6 101.2)"/>
        <line id="Line_53" data-name="Line 53" class="cls-34" x2="71.2" y2="41.3" transform="translate(284.5 83.7)"/>
        <line id="Line_54" data-name="Line 54" class="cls-34" x2="71.2" y2="41.3" transform="translate(284.3 93.3)"/>
        <line id="Line_55" data-name="Line 55" class="cls-34" x2="71.2" y2="41.3" transform="translate(284.1 102.9)"/>
        <line id="Line_56" data-name="Line 56" class="cls-34" x1="71.1" y1="41.3" transform="translate(283.9 112.5)"/>
        <line id="Line_57" data-name="Line 57" class="cls-34" x1="71.1" y1="41.3" transform="translate(283.7 122.1)"/>
      </g>
      <path id="Path_3033" data-name="Path 3033" class="cls-10" d="M303.3,148.7l-2.9-1.7a1.561,1.561,0,0,1-.7-1.3h0c0-.5.3-.8.7-.5l2.9,1.7a1.561,1.561,0,0,1,.7,1.3h0C304,148.6,303.7,148.9,303.3,148.7Z"/>
      <path id="Path_3034" data-name="Path 3034" class="cls-10" d="M327.2,162.8l-2.9-1.7a1.561,1.561,0,0,1-.7-1.3h0c0-.5.3-.8.7-.5l2.9,1.7a1.561,1.561,0,0,1,.7,1.3h0A.462.462,0,0,1,327.2,162.8Z"/>
      <path id="Path_3035" data-name="Path 3035" class="cls-10" d="M351.4,177.4l-2.9-1.7a1.561,1.561,0,0,1-.7-1.3h0c0-.5.3-.8.7-.5l2.9,1.7a1.561,1.561,0,0,1,.7,1.3h0C352.1,177.4,351.8,177.6,351.4,177.4Z"/>
      <path id="Path_3036" data-name="Path 3036" class="cls-18" d="M355.2,145.9c-9.4-4.4-11.5,10.1-16,7.9-4.5-2.1-3.6-17.8-8.5-20.7-4.9-2.8-4.2,13.4-8.9,11.1-4.7-2.4-1.6-21.1-9.6-25-9.8-4.9-3,20-12,16.4-7.2-2.9-.8-10.6-7.9-15.1-3.6-2.3-8.8,5.3-8.8,5.3l-.1,5.5,71.2,41.4Z"/>
    </g>
    <g id="Group_3379" data-name="Group 3379">
      <g id="Group_3378" data-name="Group 3378">
        <path id="Path_3037" data-name="Path 3037" class="cls-35" d="M39.4,161.5"/>
        <path id="Path_3038" data-name="Path 3038" class="cls-35" d="M115.1,147.4l25.1-14.2-.1-28.5-25.2,14.2Z"/>
        <path id="Path_3039" data-name="Path 3039" class="cls-35" d="M89.9,161.6l25.2-14.2-.2-28.5L89.7,133.1Z"/>
        <path id="Path_3040" data-name="Path 3040" class="cls-35" d="M64.7,175.9l25.2-14.3-.2-28.5L64.6,147.3Z"/>
        <path id="Path_3041" data-name="Path 3041" class="cls-35" d="M39.5,190.1l25.2-14.2-.1-28.6L39.4,161.5Z"/>
        <path id="Path_3042" data-name="Path 3042" class="cls-35" d="M115.2,176l25.2-14.2-.2-28.6-25.1,14.2Z"/>
        <path id="Path_3043" data-name="Path 3043" class="cls-35" d="M90,190.2,115.2,176l-.1-28.6L89.9,161.6Z"/>
        <path id="Path_3044" data-name="Path 3044" class="cls-35" d="M39.6,218.6l25.2-14.2-.1-28.5L39.5,190.1Z"/>
        <line id="Line_58" data-name="Line 58" class="cls-35" x2="0.1" y2="28.5" transform="translate(140.4 161.8)"/>
        <path id="Path_3045" data-name="Path 3045" class="cls-35" d="M90.1,218.7l25.2-14.2-.1-28.5L90,190.2Z"/>
        <path id="Path_3046" data-name="Path 3046" class="cls-35" d="M64.9,232.9l25.2-14.2L90,190.2,64.8,204.4Z"/>
        <path id="Path_3047" data-name="Path 3047" class="cls-35" d="M39.8,247.1l25.1-14.2-.1-28.5L39.6,218.6Z"/>
        <line id="Line_59" data-name="Line 59" class="cls-35" x2="0.1" y2="28.6" transform="translate(140.5 190.3)"/>
        <path id="Path_3048" data-name="Path 3048" class="cls-35" d="M115.4,233.1l25.2-14.2-.1-28.6-25.2,14.2Z"/>
        <path id="Path_3049" data-name="Path 3049" class="cls-35" d="M90.2,247.3l25.2-14.2-.1-28.6L90.1,218.7Z"/>
        <path id="Path_3050" data-name="Path 3050" class="cls-35" d="M65.1,261.5l25.1-14.2-.1-28.6L64.9,232.9Z"/>
        <path id="Path_3051" data-name="Path 3051" class="cls-35" d="M39.9,275.7l25.2-14.2-.2-28.6L39.8,247.1Z"/>
      </g>
    </g>
    <path id="Path_3052" data-name="Path 3052" class="cls-36" d="M46.4,267.5l15-55.7,24.5-3.2,8-41,21.3.3,14.2-33.6"/>
    <path id="Path_3053" data-name="Path 3053" class="cls-36" d="M124,136l6-2.6,1.2,5.4"/>
    <path id="Path_3054" data-name="Path 3054" class="cls-24" d="M531.1,399.1,483,371.8l-6-61.4a5.007,5.007,0,0,1,4.6-.2l102.4,58c1.2.7,1.1,1.9-.3,2.6l-48,28A5.382,5.382,0,0,1,531.1,399.1Z"/>
    <g id="Group_3383" data-name="Group 3383">
      <g id="Group_3380" data-name="Group 3380">
        <path id="Path_3055" data-name="Path 3055" class="cls-37" d="M534.1,398.4l-56-34.4c-3.4-1.9-6.1-7.2-6.1-11.7V234.4c0-4.5,2.7-6.6,6.1-4.6l56.4,32.5c3.4,1.9,6.1,7.2,6.1,11.7V391.3c0,3-.9,3.5-2.8,4.6Z"/>
        <path id="Path_3056" data-name="Path 3056" class="cls-9" d="M498.6,285.1S472,356.7,472,352.2l-2.6-120.5,4.9-2.4a4.087,4.087,0,0,1,3.8.4l56.4,32.5a12.91,12.91,0,0,1,4.2,4.7Z"/>
        <path id="Path_3057" data-name="Path 3057" class="cls-10" d="M529.3,398.8l-56.2-32.5c-3.4-1.9-6-7.2-6-11.7V236.8c0-4.5,2.7-6.6,6-4.6l56.2,32.5c3.4,1.9,5.9,7.2,5.9,11.7V394.3C535.3,398.7,532.7,400.8,529.3,398.8Z"/>
        <path id="Path_3058" data-name="Path 3058" class="cls-13" d="M537.7,285v6.7c0,.5.3.7.6.5l-.1-.1c.4-.2.5-.8.5-1.2v-6.7c0-.5-.1-.7-.5-.5v.1A1.656,1.656,0,0,0,537.7,285Z"/>
        <path id="Path_3059" data-name="Path 3059" class="cls-13" d="M537.7,296.8v6.7c0,.5.3.7.6.5l-.1-.1c.4-.2.5-.8.5-1.2V296c0-.5-.1-.7-.5-.5v.1A1.5,1.5,0,0,0,537.7,296.8Z"/>
        <path id="Path_3060" data-name="Path 3060" class="cls-18" d="M527.8,378.7,473,347a1.7,1.7,0,0,1-.9-1.6V245.9a1.867,1.867,0,0,1,2.8-1.6L529.7,276a1.7,1.7,0,0,1,.9,1.6v99.5A1.907,1.907,0,0,1,527.8,378.7Z"/>
        <path id="Path_3061" data-name="Path 3061" class="cls-19" d="M511.1,261.1l-17.4-10a2.745,2.745,0,0,1-1.1-2.1h0c0-.8.5-1.2,1.1-.8l17.4,10a2.745,2.745,0,0,1,1.1,2.1h0C512.2,261.1,511.7,261.4,511.1,261.1Z"/>
      </g>
      <g id="Group_3382" data-name="Group 3382">
        <line id="Line_60" data-name="Line 60" class="cls-38" x2="46.2" y2="27.2" transform="translate(476.3 342.5)"/>
        <path id="Path_3062" data-name="Path 3062" class="cls-10" d="M489.7,345.2l-13.4-7.7v-24l13.4,7.7Z"/>
        <path id="Path_3063" data-name="Path 3063" class="cls-19" d="M506,354.6l-13.3-7.7V331.2l13.3,7.7Z"/>
        <path id="Path_3064" data-name="Path 3064" class="cls-31" d="M522.9,364.4l-13.4-7.7V325.2l13.4,7.7Z"/>
        <g id="Group_3381" data-name="Group 3381">
          <line id="Line_61" data-name="Line 61" class="cls-39" x2="42.8" y2="24.7" transform="translate(478.5 256.2)"/>
          <line id="Line_62" data-name="Line 62" class="cls-39" x2="42.9" y2="24.7" transform="translate(478.7 279.6)"/>
          <line id="Line_63" data-name="Line 63" class="cls-39" x2="42.8" y2="24.7" transform="translate(479 303)"/>
          <path id="Path_3065" data-name="Path 3065" class="cls-39" d="M522.1,351.2"/>
          <path id="Path_3066" data-name="Path 3066" class="cls-39" d="M500.2,292l-21.5-12.4-.2-23.4,21.4,12.3Z"/>
          <path id="Path_3067" data-name="Path 3067" class="cls-39" d="M521.6,304.3,500.2,292l-.3-23.5,21.4,12.4Z"/>
          <path id="Path_3068" data-name="Path 3068" class="cls-39" d="M500.4,315.4,479,303l-.3-23.4L500.2,292Z"/>
          <path id="Path_3069" data-name="Path 3069" class="cls-39" d="M521.8,327.7l-21.4-12.3-.2-23.4,21.4,12.3Z"/>
          <line id="Line_64" data-name="Line 64" class="cls-39" x1="21.4" y1="12.4" transform="translate(479 303)"/>
          <line id="Line_65" data-name="Line 65" class="cls-39" x2="21.4" y2="12.3" transform="translate(500.4 315.4)"/>
        </g>
        <path id="Path_3070" data-name="Path 3070" class="cls-40" d="M480,301.7l11.1-5.8,12.5-1.2,14.8-8.3"/>
        <path id="Path_3071" data-name="Path 3071" class="cls-40" d="M515.9,285.2l3.1.9-1.5,3.1"/>
      </g>
    </g>
    <ellipse id="Ellipse_91" data-name="Ellipse 91" class="cls-19" cx="1.4" cy="2.4" rx="1.4" ry="2.4" transform="translate(349.061 91.136) rotate(-30.345)"/>
    <g id="Group_3384" data-name="Group 3384">
      <path id="Path_3072" data-name="Path 3072" class="cls-24" d="M288.1,495.6c23.8-13.7,23.6-36-.3-49.8l-11.2,6.5c-23.4-7.9-53.8-6.1-73.7,5.4-23.8,13.7-23.6,36,.3,49.8s62.6,13.9,86.3.2l-43.3-25,9.8-5.6Z"/>
      <path id="Path_3073" data-name="Path 3073" class="cls-41" d="M277.7,501.7c-23.8,13.7-62.4,13.7-86.3-.2-23.9-13.8-24-36.1-.3-49.8,23.8-13.7,62.4-13.7,86.3.2l-43,24.8Z"/>
      <path id="Path_3074" data-name="Path 3074" class="cls-42" d="M234.3,476.7h0l43.4,25c-10.2,5.9-22.9,9.5-36.9,10.1l-1.3.1-.4-8.6C237.4,494.6,235,481.9,234.3,476.7Z"/>
      <path id="Path_3075" data-name="Path 3075" class="cls-42" d="M277.4,492.7l.3,9-16.8-7.4Z"/>
      <path id="Path_3076" data-name="Path 3076" class="cls-43" d="M277.5,482.7s23.9-12.4,17.7-33.3-17.7,26-17.7,26Z"/>
      <path id="Path_3077" data-name="Path 3077" class="cls-44" d="M191.3,501.5c-23.9-13.8-24-36.1-.3-49.8l43.3,25Z"/>
      <path id="Path_3078" data-name="Path 3078" class="cls-18" d="M277.4,451.8c-23.9-13.8-62.6-13.9-86.3-.2l43.3,25Z"/>
      <path id="Path_3079" data-name="Path 3079" class="cls-44" d="M234.3,476.7h0l-43.2-25c-5.9,3.4-14.7,10.7-17.7,16v8.5C193,477,220.3,476.1,234.3,476.7Z"/>
      <path id="Path_3080" data-name="Path 3080" class="cls-18" d="M277.7,493.1c-23.8,13.7-62.4,13.7-86.3-.2-23.9-13.8-24-36.1-.3-49.8,23.8-13.7,62.4-13.7,86.3.2l-43,24.8Z"/>
      <path id="Path_3081" data-name="Path 3081" class="cls-2" d="M191.3,492.9c-23.9-13.8-24-36.1-.3-49.8l43.3,25Z"/>
      <path id="Path_3082" data-name="Path 3082" class="cls-45" d="M277.4,443.2c-23.9-13.8-62.6-13.9-86.3-.2l43.3,25Z"/>
      <path id="Path_3083" data-name="Path 3083" class="cls-31" d="M277.3,425.5c23.9,13.8,24,36.1.3,49.8l-43.3-25Z"/>
      <path id="Path_3084" data-name="Path 3084" class="cls-10" d="M234.3,468.1h0l-43.2-25c-10.7,6.2-16.6,14.1-17.6,22.3C193.2,466.3,220.3,467.5,234.3,468.1Z"/>
      <path id="Path_3085" data-name="Path 3085" class="cls-19" d="M234.3,468.1h0l43.4,25c-10.7,6.2-24.5,9.6-38.6,10.2C237.5,491.8,235.4,476.2,234.3,468.1Z"/>
      <path id="Path_3086" data-name="Path 3086" class="cls-43" d="M234.2,450.4v6.2l43.3,26.1v-7.3Z"/>
      <path id="Path_3087" data-name="Path 3087" class="cls-41" d="M191.3,501.5v-8.6a63.931,63.931,0,0,0,10.6,4.9Z"/>
    </g>
    <g id="Group_3386" data-name="Group 3386">
      <path id="Path_3088" data-name="Path 3088" class="cls-46" d="M474.6,261.1l-38.5-22.2v38.2l38.5,22.2Z"/>
      <g id="Group_3385" data-name="Group 3385">
        <path id="Path_3089" data-name="Path 3089" class="cls-31" d="M449.7,280.3l-7.8-4.5.2-12.1,7.7,4.5Z"/>
        <path id="Path_3090" data-name="Path 3090" class="cls-18" d="M459.1,285.8l-7.7-4.5.1-7.9,7.7,4.5Z"/>
        <path id="Path_3091" data-name="Path 3091" class="cls-47" d="M468.9,291.4l-7.7-4.4.2-15.9,7.7,4.5Z"/>
        <path id="Path_3092" data-name="Path 3092" class="cls-18" d="M448.9,261.8l-6.1-3.5a3.035,3.035,0,0,1-1.1-1.9h0c0-.7.4-1.1.9-.7l6.1,3.5a3.035,3.035,0,0,1,1.1,1.9h0C449.8,261.7,449.4,262.1,448.9,261.8Z"/>
        <path id="Path_3093" data-name="Path 3093" class="cls-18" d="M459.1,267.9l-6.1-3.5a3.035,3.035,0,0,1-1.1-1.9h0c0-.7.4-1.1.9-.7l6.1,3.5a3.035,3.035,0,0,1,1.1,1.9h0C460.1,267.8,459.6,268.2,459.1,267.9Z"/>
        <path id="Path_3094" data-name="Path 3094" class="cls-10" d="M465.1,259.7,443.2,247c-.7-.4-1.4-.2-1.5.5a2.21,2.21,0,0,0,1.1,2l21.8,12.7c.7.4,1.4.2,1.5-.5A1.948,1.948,0,0,0,465.1,259.7Z"/>
      </g>
    </g>
    <g id="Group_3399" data-name="Group 3399">
      <path id="Path_3095" data-name="Path 3095" class="cls-9" d="M411.6,589.3c-7.4,4.9-19.4,5.6-26.9,1.7-7.5-4-7.6-11.1-.3-16,7.4-4.9,19.4-5.6,26.9-1.7S418.9,584.4,411.6,589.3Z"/>
      <g id="Group_3398" data-name="Group 3398">
        <path id="Path_3096" data-name="Path 3096" class="cls-10" d="M415.2,444.8a2.464,2.464,0,0,1,1.4-3.3c1.6-.6,3.7-.6,4.6,2.1,1,3.1,3.4,9,5,12.9A1.369,1.369,0,0,1,424,458a7.07,7.07,0,0,1-2-3.6s.9,2.5,1.8,4.6a1.343,1.343,0,0,1-1.7,1.8c-1.9-.8-4-2.3-4.1-5.3C418.1,451.8,416.3,447.3,415.2,444.8Z"/>
        <path id="Path_3097" data-name="Path 3097" class="cls-31" d="M413,445.3c.8,1.3,2.2,1.9,3,1.4s.8-2-.1-3.3c-.8-1.3-2.2-1.9-3-1.4C412.1,442.6,412.1,444.1,413,445.3Z"/>
        <path id="Path_3098" data-name="Path 3098" class="cls-15" d="M397.2,489.7a4.715,4.715,0,0,0,1.5.6c1.3.2,2.7-.6,3.9-1.3.1-.1.2-.1.3-.3.2-.2.1-.6.1-.8-.5-1.6-1.2-1.5-2.3-2.4-.5-.4-.9-.9-1.4-1.3a15.316,15.316,0,0,0-2.5-1.6h0c-1-.6-4.8-2.6-5.6.3a2.979,2.979,0,0,0,.4,2.8,7.01,7.01,0,0,0,2.1,2.1C394.9,488.5,396,489.1,397.2,489.7Z"/>
        <path id="Path_3099" data-name="Path 3099" class="cls-15" d="M402.6,487a11.175,11.175,0,0,0-1.1-2.5,4,4,0,0,0-1.9-1.5c-1.5-.6-4-1.4-4.8-.9-1.1.7,0,2,.7,2.7a14.328,14.328,0,0,0,5.4,3.3.758.758,0,0,0,.7-.1c.1.2-.6-.3-.5-.1C401.5,488.8,403,488,402.6,487Z"/>
        <path id="Path_3100" data-name="Path 3100" class="cls-48" d="M402.2,486.4l1.8,1.9-3.5,4-2-2Z"/>
        <path id="Path_3101" data-name="Path 3101" class="cls-10" d="M389.9,576.2l8-6.1,4.7-.8c1.5,6.1.8,5.3-.9,6.9l-7,4.3c-3.7,1.8-4.8,2-7,1h0C386.5,580.2,387.7,578.5,389.9,576.2Z"/>
        <path id="Path_3102" data-name="Path 3102" class="cls-10" d="M398.9,582l8-6.1,4.7-.8c1.5,6.1.8,5.3-.9,6.9l-7,4.3c-3.7,1.8-4.8,2-7,1h0C395.4,586,396.6,584.3,398.9,582Z"/>
        <g id="Group_3388" data-name="Group 3388">
          <g id="Group_3387" data-name="Group 3387">
            <path id="Path_3103" data-name="Path 3103" class="cls-19" d="M414,468.3c-3.1-3.1-8.6-4.4-12.8-4.3a.951.951,0,0,0,0,1.9c3.8,0,8.7,1,11.5,3.8.8.8,2.1-.5,1.3-1.4Z"/>
          </g>
        </g>
        <g id="Group_3389" data-name="Group 3389">
          <path id="Path_3104" data-name="Path 3104" class="cls-18" d="M397.2,468.4a212.164,212.164,0,0,1-4.4,30.7c-1.1,4.8-8.6,2.8-7.4-2a184.17,184.17,0,0,0,4.1-28.6c.4-5,8.1-5.1,7.7-.1Z"/>
        </g>
        <g id="Group_3390" data-name="Group 3390">
          <path id="Path_3105" data-name="Path 3105" class="cls-15" d="M398.9,507.3a342.848,342.848,0,0,0,4.3,62.4c.8,4.9-6.6,6.9-7.4,2.1a355.974,355.974,0,0,1-4.6-64.4c0-5,7.7-5.1,7.7-.1Z"/>
        </g>
        <g id="Group_3391" data-name="Group 3391">
          <path id="Path_3106" data-name="Path 3106" class="cls-15" d="M409,513.3c1.2,21,3.1,42,3.1,63,0,5-7.7,5-7.7,0,0-21-1.9-42-3.1-63-.3-4.9,7.4-4.9,7.7,0Z"/>
        </g>
        <path id="Path_3107" data-name="Path 3107" class="cls-18" d="M416.5,515.7c-.8,10.8-7.7,11.9-14.7,7.9s-10.9-13.2-10.9-21.3c0,0,3.9-12,10.9-7.9C408.8,498.4,417.4,503.1,416.5,515.7Z"/>
        <path id="Path_3108" data-name="Path 3108" class="cls-18" d="M392.6,470.9s-4.6,7.3-4.1,11.7c.3,2.8,2.4,5.9,2.6,6.8,2.4,7.3,1.1,9.5,1.3,11.6,0,0,1.6,7,18.8.4l7.2-21.2Z"/>
        <path id="Path_3109" data-name="Path 3109" class="cls-18" d="M417.3,484.8a2.518,2.518,0,0,0,.8-1.4c.4-3.8,2.5-5.5-1.6-12-.7-1-9.7-5.7-16.4-6.9a7.076,7.076,0,0,0-7.8,4.3,33.684,33.684,0,0,0-1.5,5.3c-.3,6.9,2.8-2.2,3.2,1.7a.367.367,0,0,0-.1-.3s.8,6.5,1.5,11.5c.4,3.1.7,5.4.7,5.7h0l11.7,9.3,6.2-11.2h0Z"/>
        <path id="Path_3110" data-name="Path 3110" class="cls-15" d="M400.5,464.4s-5.9,6.1-.8,10.4,13.8-5.3,13.8-5.3C408.9,466.6,404.5,464.6,400.5,464.4Z"/>
        <path id="Path_3111" data-name="Path 3111" class="cls-18" d="M390.9,502.3l-4.2,28.6a1.5,1.5,0,0,0,.4,1.1c1.6,2.1,9.7,7.7,27.3,4.6,2-.4,2.4-.5,2.4-1.8l-1-22.8-10.4-.1Z"/>
        <path id="Path_3112" data-name="Path 3112" class="cls-15" d="M403.1,467.9l-2.8-10.8,6.8,2.1,2.3,8.8C409.8,469.5,405.1,473.4,403.1,467.9Z"/>
        <g id="Group_3393" data-name="Group 3393">
          <g id="Group_3392" data-name="Group 3392">
            <path id="Path_3113" data-name="Path 3113" class="cls-19" d="M398.3,465.2c-.3,4.1-3.3,8.3,1.9,10.5,5.1,2.1,10.2-2.3,13.6-5.6.9-.9-.5-2.2-1.4-1.4-2.8,2.7-7.9,7.4-12.1,4.9-2.8-1.6-.3-5.9-.1-8.4.1-1.2-1.8-1.2-1.9,0Z"/>
          </g>
        </g>
        <path id="Path_3114" data-name="Path 3114" class="cls-15" d="M400.6,464.7l-2-.6a5.885,5.885,0,0,1-3.9-7.4l3.1-10.2a5.885,5.885,0,0,1,7.4-3.9l2,.6a5.885,5.885,0,0,1,3.9,7.4L408,460.8A5.885,5.885,0,0,1,400.6,464.7Z"/>
        <path id="Path_3115" data-name="Path 3115" class="cls-49" d="M401.9,464.9a8.847,8.847,0,0,0,4.2-.5,7.653,7.653,0,0,1-4,2.2Z"/>
        <path id="Path_3116" data-name="Path 3116" class="cls-10" d="M404.8,446s1.8,8.6,4.2,11.2l-.8,1.6a5.511,5.511,0,0,0-.1,5l.3.7s15.9-8.8,5.8-19.9c-6.8-7.5-17.8-3.6-17.8,4.4Z"/>
        <path id="Path_3117" data-name="Path 3117" class="cls-15" d="M409.1,461.4A1.458,1.458,0,0,1,407,460a3.235,3.235,0,0,1,2.1-2.9,1.458,1.458,0,0,1,2.1,1.4A3.58,3.58,0,0,1,409.1,461.4Z"/>
        <g id="Group_3395" data-name="Group 3395">
          <path id="Path_3118" data-name="Path 3118" class="cls-15" d="M381.2,505.4l2.6,1.7c1.3.8,2.8.7,3.3-.1l.4-.6c.6-.9,0-2.3-1.3-3.1l-2.6-1.7c-1.3-.8-2.8-.7-3.3.1l-.4.6C379.3,503.3,379.9,504.6,381.2,505.4Z"/>
          <g id="Group_3394" data-name="Group 3394">
            <path id="Path_3119" data-name="Path 3119" class="cls-50" d="M402.9,502.7v-.6l-.8.3-.2-.4-20.3-11.7a1.7,1.7,0,0,0-1,0l-8.8,5.1v-.1l-1.6.6v.7h0c0,.1.1.1.2.2L391.5,509a1.7,1.7,0,0,0,1,0l10.1-5.9c.2-.2.3-.3.3-.4Z"/>
            <path id="Path_3120" data-name="Path 3120" class="cls-51" d="M391.6,508.2,370.4,496c-.2-.1-.2-.4.1-.6l10.1-5.9a.908.908,0,0,1,1,0l21.1,12.2c.2.1.2.4-.1.6l-10.1,5.9A.75.75,0,0,1,391.6,508.2Z"/>
            <path id="Path_3121" data-name="Path 3121" class="cls-50" d="M393,500.4l-5.1-3c-.1,0-.1-.1,0-.1l2.5-1.4h.2l5.1,3c.1,0,.1.1,0,.1l-2.5,1.4Z"/>
            <path id="Path_3122" data-name="Path 3122" class="cls-19" d="M391,494.5a2.263,2.263,0,0,0-1-1.5l-21-11.9a.9.9,0,0,0-.5-.1h0a.1.1,0,0,0-.1.1l-.7.7.6-.1,2,12.9a2.263,2.263,0,0,0,1,1.5l19.9,11.3.6.7.1.2c.4.1,1.4-.6,1.4-.6Z"/>
            <path id="Path_3123" data-name="Path 3123" class="cls-10" d="M391.7,508.9l-21-11.9a2.263,2.263,0,0,1-1-1.5l-2-13c-.1-.6.2-.8.7-.5l21,11.9a2.263,2.263,0,0,1,1,1.5l2,13C392.4,508.9,392.1,509.1,391.7,508.9Z"/>
            <path id="Path_3124" data-name="Path 3124" class="cls-19" d="M380.5,496.2c.1.7-.5.8-1.4.3a3.722,3.722,0,0,1-1.8-2.2c-.1-.7.5-.8,1.4-.3A4.027,4.027,0,0,1,380.5,496.2Z"/>
          </g>
        </g>
        <g id="Group_3396" data-name="Group 3396">
          <path id="Path_3125" data-name="Path 3125" class="cls-15" d="M419.1,474.3c2.2,5,5,10.1,5.6,15.6.4,4,.8,10.5-2.1,13.7-2.8,3-7.4,2.5-11,1.7-2.2-.5-4.4-1.2-6.6-1.8-1-.3-1.9-.6-2.9-.9-.4-.1-1.4-.2-1-.3-3.6.9-5.2-4.7-1.5-5.6,2.7-.7,5.7.8,8.2,1.5,2.5.8,7.2,2.9,9.8,1.7,2.1-1,1.6-7.3,1.4-9.5-.5-4.6-3-9.1-4.8-13.3-1.6-3.2,3.4-6.2,4.9-2.8Z"/>
        </g>
        <g id="Group_3397" data-name="Group 3397">
          <path id="Path_3126" data-name="Path 3126" class="cls-18" d="M420.3,473.7c4.2,8.4,4.7,17.4,4.7,26.4,0,4-7.7,4.2-7.7.2,0-8.5-.4-16.8-4.4-24.7-1.9-3.8,5.5-5.6,7.4-1.9Z"/>
        </g>
        <path id="Path_3127" data-name="Path 3127" class="cls-15" d="M392.5,501.1l-.1-.5a2.774,2.774,0,0,1,2-3.4l4.1-1.1a2.774,2.774,0,0,1,3.4,2l.1.5a2.774,2.774,0,0,1-2,3.4l-4.1,1.1A2.82,2.82,0,0,1,392.5,501.1Z"/>
      </g>
    </g>
    <g id="Group_3412" data-name="Group 3412">
      <ellipse id="Ellipse_92" data-name="Ellipse 92" class="cls-9" cx="12.2" cy="21.1" rx="12.2" ry="21.1" transform="translate(412.26 416.589) rotate(-89.689)"/>
      <path id="Path_3128" data-name="Path 3128" class="cls-10" d="M425.3,396.3l-9.1,1.8-1.2,3.1c-.3,2.3-.3,3.5,1.2,4.6,1.3,1,3.8.2,5.2-.4l5.8-3.5c4.3-2.4,4-4.1,3.5-5.6h0C430.1,394.8,428.1,395.2,425.3,396.3Z"/>
      <path id="Path_3129" data-name="Path 3129" class="cls-10" d="M444.6,407.5l-8.8-3-2.6,2.1c-1.4,1.8-2,2.8-1.3,4.6.6,1.5,3.2,2.1,4.7,2.3l6.8-.1c4.9.1,5.5-1.6,5.9-3.1h0C449.4,408.6,447.5,407.9,444.6,407.5Z"/>
      <g id="Group_3400" data-name="Group 3400">
        <path id="Path_3130" data-name="Path 3130" class="cls-15" d="M413.6,295.2c-4.9,7.5-7.1,17-9.1,25.7a8.724,8.724,0,0,0-.1,4.8c1.6,6.1,3.5,11.7,4.2,18.1.4,3.2,5.4,3.2,5,0a84.623,84.623,0,0,0-3.7-17.3c-.4-1.1-.7-2.1-1.1-3.1.4,1-.1,1.7.1.8.1-.5.2-1.1.3-1.6,1.9-8.3,3.9-17.6,8.6-24.8,2-2.7-2.4-5.3-4.2-2.6Z"/>
      </g>
      <path id="Path_3131" data-name="Path 3131" class="cls-52" d="M412.2,297.2c-3.3,5.8-5.8,15.7-8,23.6-.8,2.2-.3,4.2,1.1,4.1l4.6.6c1.1-.1,3.3-2.6,3.9-4.4l5.9-20.3c1-3.3.3-6.1-1.6-6.6l-.4-.1C417.4,293.1,414.7,293.1,412.2,297.2Z"/>
      <path id="Path_3132" data-name="Path 3132" class="cls-10" d="M427.8,334.1l-23.3,13.5a1.744,1.744,0,0,1-2.6-1.5V329.9a1.65,1.65,0,0,1,.9-1.5l23.3-13.5a1.744,1.744,0,0,1,2.6,1.5v16.2A1.65,1.65,0,0,1,427.8,334.1Z"/>
      <path id="Path_3133" data-name="Path 3133" class="cls-19" d="M419,329.5a6.287,6.287,0,0,1-3,5.1c-1.6.9-3,.2-3-1.7a6.287,6.287,0,0,1,3-5.1C417.7,326.9,419,327.6,419,329.5Z"/>
      <path id="Path_3134" data-name="Path 3134" class="cls-15" d="M415.2,344.6l-1.7.8a2.53,2.53,0,0,1-3.4-1.3h0a2.53,2.53,0,0,1,1.3-3.4l1.7-.8a2.53,2.53,0,0,1,3.4,1.3h0A2.593,2.593,0,0,1,415.2,344.6Z"/>
      <path id="Path_3135" data-name="Path 3135" class="cls-11" d="M434.9,278.9v1s.1,2.9-2.7,1.4-2.7-5.1-2.7-5.1S431.6,275.9,434.9,278.9Z"/>
      <path id="Path_3136" data-name="Path 3136" class="cls-12" d="M432.2,281.3c3.7,1.9,3.6-1.4,3.6-1.4h0l-.1-1.1c-4.1-3.5-6.7-3.4-6.7-3.4A6.036,6.036,0,0,0,432.2,281.3Zm-2.6-5s2.1-.1,5.3,2.6v.8s.1,2.5-2.6,1.1A5.1,5.1,0,0,1,429.6,276.3Z"/>
      <path id="Path_3137" data-name="Path 3137" class="cls-12" d="M437.1,280.5l-2.2-1-.1-1.2,2.2,1Z"/>
      <path id="Path_3138" data-name="Path 3138" class="cls-12" d="M429.1,276.3l-.4-.2a.842.842,0,0,1-.4-.7h0q0-.45.3-.3l.4.2a.842.842,0,0,1,.4.7h0C429.5,276.3,429.3,276.4,429.1,276.3Z"/>
      <path id="Path_3139" data-name="Path 3139" class="cls-12" d="M443.3,282.8l-.4-.2a.842.842,0,0,1-.4-.7h0q0-.45.3-.3l.4.2a.842.842,0,0,1,.4.7h0C443.7,282.8,443.5,282.9,443.3,282.8Z"/>
      <g id="Group_3405" data-name="Group 3405">
        <g id="Group_3404" data-name="Group 3404">
          <g id="Group_3402" data-name="Group 3402">
            <g id="Group_3401" data-name="Group 3401">
              <path id="Path_3140" data-name="Path 3140" class="cls-13" d="M443,281.8a11.421,11.421,0,0,0-6.7-2.8l.1,1.1h0a6.838,6.838,0,0,0,4.2,5C444.3,286.6,443,281.8,443,281.8Zm-2.5,2.8a5.131,5.131,0,0,1-3.1-3.7l-.1-.9a8.668,8.668,0,0,1,5.2,2.1S443.2,285.6,440.5,284.6Z"/>
            </g>
          </g>
          <g id="Group_3403" data-name="Group 3403">
            <path id="Path_3141" data-name="Path 3141" class="cls-13" d="M437.9,281.5h0a.367.367,0,0,1-.1-.3l.7-.7c.1-.1.2,0,.3.1h0a.367.367,0,0,1,.1.3l-.7.7C438.1,281.7,438,281.6,437.9,281.5Z"/>
          </g>
        </g>
      </g>
      <path id="Path_3142" data-name="Path 3142" class="cls-14" d="M430,277.8h0a.367.367,0,0,1-.1-.3l.7-.7c.1-.1.2,0,.3.1h0a.367.367,0,0,1,.1.3l-.7.7A.367.367,0,0,1,430,277.8Z"/>
      <g id="Group_3408" data-name="Group 3408">
        <g id="Group_3407" data-name="Group 3407">
          <g id="Group_3406" data-name="Group 3406">
            <path id="Path_3143" data-name="Path 3143" class="cls-10" d="M429.2,352.1c3.4,9.8,3.7,20.4,3.4,30.7-.2,7.7-1.4,15.4-1.3,23.1.1,5,8,5.1,7.8,0-.2-7.9,1.1-15.9,1.3-23.7.3-10.7-.2-21.9-3.6-32.2-1.7-4.7-9.2-2.7-7.6,2.1Z"/>
          </g>
        </g>
      </g>
      <g id="Group_3410" data-name="Group 3410">
        <g id="Group_3409" data-name="Group 3409">
          <path id="Path_3144" data-name="Path 3144" class="cls-10" d="M413.4,343.3a108.3,108.3,0,0,1,3.2,19.6,55.355,55.355,0,0,1,.4,11.5c-.8,7.8-2.3,15.8-2.2,23.6,0,5,7.9,5.1,7.8,0-.1-8,1.4-16.1,2.3-24a59.311,59.311,0,0,0-.5-11.9c-.7-7-1.5-14.1-3.4-20.9-1.4-4.9-8.9-2.8-7.6,2.1Z"/>
        </g>
      </g>
      <path id="Path_3145" data-name="Path 3145" class="cls-10" d="M419.8,353.6h0c.7.8-2.4-3.1-1.5-2.6,1.9,1.2,12.8,8.6,15.1,8.6,2.7,0,1.1-2.6,3.2-4.4,1.9-1.7,2.4-4.6,2.6-7.1a3.713,3.713,0,0,0-.2-2.1,4.314,4.314,0,0,0-1.6-1.7c-4.8-3.7-14.4-12.7-21.1-9.8C408.6,337.8,416.4,349.7,419.8,353.6Z"/>
      <path id="Path_3146" data-name="Path 3146" class="cls-9" d="M414.2,295.7c-1.4,1.8-1.3,3-1.2,5.5a5.672,5.672,0,0,0,4.1,5.3l24.2,6.8s1.4-9.3-3.4-12.1c-2.6-1.5-6.6-3.9-9.7-5.8C423.6,292.5,417.5,291.4,414.2,295.7Z"/>
      <path id="Path_3147" data-name="Path 3147" class="cls-15" d="M425.2,295.3l2.1-9.1,5.6,3.8-1.7,8.3C431,299.6,424.8,298.5,425.2,295.3Z"/>
      <path id="Path_3148" data-name="Path 3148" class="cls-15" d="M428.6,272.9s-5.6-3.9-5.6,5.6a16.689,16.689,0,0,0,9.4,14.9c3.4,1.6,7.5-.4,7.7-3.7.8-4.8.8-9.2-.8-13.1.2-4-2.5-2.5-7.2-2.8Z"/>
      <path id="Path_3149" data-name="Path 3149" class="cls-10" d="M425.4,291.2s-6.5-2.4-5.9-11.5c.7-9.8,9.7-9,14.7-9.5,2.2-.2,3.8-.5,6.1,1.5,2.1,1.9.1,6-2.8,6.3-1.2.1-.6,3.3-.9,4.4-.4,1.9-1.6,2.9-2.1,4.8-.4,1.8-3,4.6-4.8,4.8A6.194,6.194,0,0,1,425.4,291.2Z"/>
      <path id="Path_3150" data-name="Path 3150" class="cls-9" d="M412.9,339.5c-1.5-.6-1.2-27.1.2-41.8l27.3,13c-.1,12.5-1.7,22.3-.2,37.5Z"/>
      <path id="Path_3151" data-name="Path 3151" class="cls-9" d="M431.1,350.9c-6.7-2.5-13.2-5.2-16.9-9.8-1.9-1.1-1.6-3,.5-4.2h0c2.1-1.2,5.4-1.4,7.3-.3l16.9,9.8c1.9,1.1,1.6,3-.5,4.2h0C436.2,351.9,432.9,352,431.1,350.9Z"/>
      <path id="Path_3152" data-name="Path 3152" class="cls-9" d="M440.4,310.7l-4.5-2.1c-.2,12.2-1.7,21.9-.2,36.9h-.1a3.067,3.067,0,0,1-1.8,2.4h0c-2.1,1.2-5.4,1.4-7.3.3a77.043,77.043,0,0,1-9.2-3.9c3.7,2.9,8.6,4.8,13.7,6.7,1.9,1.1,5.1.9,7.3-.3h0a3.067,3.067,0,0,0,1.8-2.4h.1C438.7,333,440.3,323.2,440.4,310.7Z"/>
      <path id="Path_3153" data-name="Path 3153" class="cls-13" d="M443.1,283.1l-8.3.8a.56.56,0,0,1-.6-.5h0a.56.56,0,0,1,.5-.6l8.3-.8a.56.56,0,0,1,.6.5h0A.5.5,0,0,1,443.1,283.1Z"/>
      <path id="Path_3154" data-name="Path 3154" class="cls-53" d="M434.8,299.2c-6.3-.9-10.5,3-12-6h0a1.954,1.954,0,0,1,2.7.6,6.219,6.219,0,0,0,5.9,2.2,1.983,1.983,0,0,1,1.9.9Z"/>
      <g id="Group_3411" data-name="Group 3411">
        <path id="Path_3155" data-name="Path 3155" class="cls-15" d="M435.8,307.4a44.341,44.341,0,0,0,3.4,14.8c1.6,3.4,3.2,8.4,6.6,10.5,7.7,4.9,15.8-7.6,19.5-12.4,2-2.6-2.4-5.1-4.4-2.5-2.1,2.7-9.6,14.5-13.5,9.4-4.2-5.5-6-13.1-6.5-19.8-.3-3.2-5.3-3.3-5.1,0Z"/>
      </g>
      <path id="Path_3156" data-name="Path 3156" class="cls-19" d="M433.3,307.3c1.5,12.9,5.6,21.1,11.2,25.3,3,1.6,5.7-3,4.6-5.9-5.6-5-7.6-12.8-8.1-21.7a4.075,4.075,0,0,0-4.8-2.3h0A3.946,3.946,0,0,0,433.3,307.3Z"/>
      <path id="Path_3157" data-name="Path 3157" class="cls-15" d="M458.8,322.3l.7.6a3.186,3.186,0,0,0,4.5-.5l2.5-3.1a3.186,3.186,0,0,0-.5-4.5l-.7-.6a3.186,3.186,0,0,0-4.5.5l-2.5,3.1A3.186,3.186,0,0,0,458.8,322.3Z"/>
      <path id="Path_3158" data-name="Path 3158" class="cls-10" d="M431.4,288c-.3.2-1,6.8,4.5,5.7s4.4-6.6,4.4-6.6-4.4,1.1-5.6-4.3S431.4,288,431.4,288Z"/>
      <path id="Path_3159" data-name="Path 3159" class="cls-15" d="M436.1,285.3c.1,1.6-.7,2.9-1.8,3h-.4a2.658,2.658,0,0,1-1.9-2.6c-.1-1.6.7-2.9,1.8-3C434.9,282.5,435.9,283.7,436.1,285.3Z"/>
    </g>
    <g id="Group_3413" data-name="Group 3413" class="cls-54">
      <path id="Path_3160" data-name="Path 3160" class="cls-50" d="M252.8,339.9a4.471,4.471,0,0,0,.9-4.5c-1.7-6.3-1.9-13.2-1.9-19.6a36.179,36.179,0,0,1,.2-4.7c-.1,1.3.1-.2.2-.5s.3-.7.4-1a15.054,15.054,0,0,1,1.1-2.2v-.1l.1-.1a5.718,5.718,0,0,0,.7-.8l.1-.1a4.233,4.233,0,0,1,.7-.5c.1-.1,1.6-1.4,1.7-1.5l-8.3-4.9c-1.3,1.5-4.4,4.8-5.1,6.7-1.5,3.7-1.3,7.7-1.2,11.8a79.806,79.806,0,0,0,2.5,19.9,3.38,3.38,0,0,0,.6,1.2l-4.5,6.8c-1.3,2.6-1.8,4.6,0,5.5,2.4.3,3.4-.2,6.1-2.8l4.9-5.8C252.7,341.4,253.3,341.2,252.8,339.9Zm2.2-33.7Z"/>
      <path id="Path_3161" data-name="Path 3161" class="cls-50" d="M266.1,307.4a40.988,40.988,0,0,0-5,7.3c-1.4,3.3-1.7,6.9-2.5,10.4-1.4,6.2-2.9,12.4-3.8,18.8a4.594,4.594,0,0,0,1.8,4.3l-3.2,8.1c-.7,2.9-.8,4.9,1.1,5.5,2.3-.1,3.2-.8,5.3-3.9l3.5-6.7c.4-1.4,1-1.7-.1-3.2a3.594,3.594,0,0,0,.7-1.8c.9-6.2,2.3-12.2,3.7-18.3.4-1.5.6-3,.9-4.6.2-.8.3-1.6.5-2.4.1-.4.2-.7.3-1.1,0-.1,0-.2.1-.2,0-.1.1-.1.1-.2.8-1.9,4.6-5.5,6-6.7Z"/>
    </g>
    <g id="Group_3427" data-name="Group 3427">
      <path id="Path_3162" data-name="Path 3162" class="cls-55" d="M234.9,340.7l5.2-7.7,4.1-2c3.7,5.2,2.8,4.7,1.7,6.6l-4.9,5.8c-2.8,2.6-3.8,3.1-6.1,2.8h0C233.2,345.4,233.7,343.4,234.9,340.7Z"/>
      <path id="Path_3163" data-name="Path 3163" class="cls-55" d="M247.2,351.4l3.4-8.7,3.5-2.7c4.6,4.5,3.6,4.2,3,6.3l-3.5,6.7c-2.1,3.1-3,3.8-5.3,3.9h0C246.5,356.3,246.5,354.2,247.2,351.4Z"/>
      <g id="Group_3426" data-name="Group 3426">
        <g id="Group_3414" data-name="Group 3414">
          <path id="Path_3164" data-name="Path 3164" class="cls-15" d="M267.3,256.8c-3.8,4.7-6.5,8.8-8,14.7a163.768,163.768,0,0,0-3.1,17c-.6,3.6-6.5,2.1-5.9-1.5,1-6.6,1.9-13.1,3.8-19.5,1.7-5.8,4.9-10.1,8.6-14.8,2.1-2.7,6.8,1.3,4.6,4.1Z"/>
        </g>
        <path id="Path_3165" data-name="Path 3165" class="cls-31" d="M259.4,250.2l-6.1,13.5c-.8,4.3,9.6,7.2,10.6,3.8l4.6-13.5a5.008,5.008,0,0,0-3-5.7h0A4.565,4.565,0,0,0,259.4,250.2Z"/>
        <g id="Group_3417" data-name="Group 3417">
          <g id="Group_3416" data-name="Group 3416">
            <g id="Group_3415" data-name="Group 3415">
              <path id="Path_3166" data-name="Path 3166" class="cls-55" d="M269.5,283.8c-5.7,2.2-11.6,4.1-17.4,6-3.1,1-6.5,2.1-9.1,4a16.09,16.09,0,0,0-5.3,7.3c-1.5,3.7-1.3,7.7-1.2,11.8a79.806,79.806,0,0,0,2.5,19.9c.6,2.4,3.9,3.7,6.1,3.1,2.6-.7,3.3-3.1,2.7-5.5-1.7-6.3-1.9-13.2-1.9-19.6a36.179,36.179,0,0,1,.2-4.7c-.1,1.3.1-.2.2-.5s.3-.7.4-1a15.054,15.054,0,0,1,1.1-2.2c.4-.6-.6.6.2-.2a5.718,5.718,0,0,0,.7-.8c.2-.2.9-.7-.1,0l.9-.6a15.056,15.056,0,0,1,2.2-1.1c-1,.4,0,0,.3-.1a8.8,8.8,0,0,1,1.5-.5c6.5-2.3,13.1-4.3,19.6-6.8a4.134,4.134,0,0,0,2.7-5.5c-1.1-2.1-4.1-3.9-6.3-3Z"/>
            </g>
          </g>
        </g>
        <g id="Group_3420" data-name="Group 3420">
          <g id="Group_3419" data-name="Group 3419">
            <g id="Group_3418" data-name="Group 3418">
              <path id="Path_3167" data-name="Path 3167" class="cls-55" d="M277.1,291.9c-5.1,3.1-10.4,6-15.1,9.6-3,2.2-5.7,4.8-7.1,8.3-1.4,3.3-1.7,6.9-2.5,10.4-1.4,6.2-2.9,12.4-3.8,18.8-.8,5.5,8.4,7.9,9.2,2.4.9-6.2,2.3-12.2,3.7-18.3.4-1.5.6-3,.9-4.6.2-.8.3-1.6.5-2.4.1-.4.2-.7.3-1.1.2-.9-.3.6.1-.4a11.743,11.743,0,0,1,4.6-5.7c4.7-3.4,9.8-6.3,14.7-9.3s-.6-10.7-5.5-7.7Z"/>
            </g>
          </g>
        </g>
        <path id="Path_3168" data-name="Path 3168" class="cls-56" d="M270.7,301.8l-11.3-5.9a5.4,5.4,0,0,1-2.7-7h0a5.191,5.191,0,0,1,7.1-1.9l11.3,5.9a5.4,5.4,0,0,1,2.7,7h0A5.191,5.191,0,0,1,270.7,301.8Z"/>
        <path id="Path_3169" data-name="Path 3169" class="cls-31" d="M257.2,284.3c1.2.1,4.4-10.1,2.2-31.4l29.1,14.2c-1.6,13.8,1.1,14.1-3.6,30.9Z"/>
        <path id="Path_3170" data-name="Path 3170" class="cls-31" d="M273.6,292c.7,1.1,10.1-3.6,9.5-21-.1-2.2.2-2.4,2.5-1.6l3-1.6c-.5,11.2,1.3,14.6-.8,25.2-.7,3.6-5.1,5-8.5,2.8Z"/>
        <path id="Path_3171" data-name="Path 3171" class="cls-31" d="M278.2,300.6c-8.2-3-16.1-6.3-21-11.7-2.3-1.3-2.2-3.4.3-4.7h0c2.4-1.3,5.9-3.2,8.2-1.9l20,12.2c2.3,1.3,1,2.7-1.4,4l-.1-1.4C281.7,298.4,280.5,301.9,278.2,300.6Z"/>
        <path id="Path_3172" data-name="Path 3172" class="cls-31" d="M285.9,295.2l-6.2-7.9c-10.8,15.7-18.7,3.8-21.8,2.3,4.9,4.6,11.7,7.7,19.2,10.5a9.974,9.974,0,0,0,8.6-.1h0C288,298.6,288.2,296.5,285.9,295.2Z"/>
        <path id="Path_3173" data-name="Path 3173" class="cls-31" d="M261.1,248.1c-1.8,1.8-1.6,3.2-1.7,6a7.177,7.177,0,0,0,4.7,6.5L292.7,272s2-10.2-3.5-14.1c-3-2.1-7.7-5.4-11.3-8.1C272.5,246,265.2,243.8,261.1,248.1Z"/>
        <path id="Path_3174" data-name="Path 3174" class="cls-15" d="M273.3,252.8,269.7,241l7.7,2.8,2.9,9.6C281,255,275.8,258.9,273.3,252.8Z"/>
        <path id="Path_3175" data-name="Path 3175" class="cls-49" d="M272.6,250.1c.1.3,3.7-.9,3.5-1.2a7.685,7.685,0,0,1-3.1,2.9Z"/>
        <g id="Group_3421" data-name="Group 3421">
          <path id="Path_3176" data-name="Path 3176" class="cls-15" d="M291.4,263.9c1.1,5.1,2.6,10.2,3.6,15.4.8,4.5,2.3,10.4.2,14.4-3.5,6.8-15.4,4-22,5.9-3.6,1.1-5.8-4.5-2.2-5.5a44.088,44.088,0,0,1,10.9-1.5c3-.1,7.2.4,8.1-2.9,1-3.7-.7-9.1-1.6-12.9-.9-4.3-2.1-8.6-3.1-12.9-.7-3.6,5.3-3.6,6.1,0Z"/>
        </g>
        <path id="Path_3177" data-name="Path 3177" class="cls-15" d="M254.1,284.6h0c1.6.9,2.4,2.8,1.7,4.2l-2.5,5.1A3.051,3.051,0,0,1,249,295h0c-1.6-.9-2.4-2.8-1.7-4.2l2.5-5.1A3.224,3.224,0,0,1,254.1,284.6Z"/>
        <path id="Path_3178" data-name="Path 3178" class="cls-31" d="M283.2,263.2l2.5,15.3c1.8,4.3,11.7,1.8,10.6-1.8l-3.7-14.6a5.412,5.412,0,0,0-5.5-3.7h0A4.082,4.082,0,0,0,283.2,263.2Z"/>
        <g id="Group_3422" data-name="Group 3422">
          <path id="Path_3179" data-name="Path 3179" class="cls-50" d="M275.2,298.5l-2.5-.7-.8.3-.2-.4L249,285.9a1.7,1.7,0,0,0-1,0l-8.7,5.1v-.1l-1.6.7.1.7h0c0,.1.1.1.2.2l23.6,12.3.1.1c.5,1.8,1.3,3.4,2.9,2.5l9.6-5.6a2.245,2.245,0,0,0,1.2-2.1Z"/>
          <path id="Path_3180" data-name="Path 3180" class="cls-51" d="M262.5,306.5l-27.2-14.1c-.3-.2-.3-.5,0-.6l11.5-6.8a1.271,1.271,0,0,1,1.2,0l27.2,14.1c.3.2.3.5,0,.6l-11.5,6.8A1.271,1.271,0,0,1,262.5,306.5Z"/>
          <path id="Path_3181" data-name="Path 3181" class="cls-50" d="M263.3,297.4l-6.6-3.4c-.1,0-.1-.1,0-.2l2.8-1.6c.1,0,.2-.1.3,0l6.6,3.4c.1,0,.1.1,0,.2l-2.8,1.6C263.5,297.5,263.3,297.5,263.3,297.4Z"/>
          <path id="Path_3182" data-name="Path 3182" class="cls-19" d="M260.1,290.6a3.33,3.33,0,0,0-1.4-1.7l-26.9-13.8a1.268,1.268,0,0,0-.6-.1h0l-.1.1-.8.8.8-.1,4,14.9a3.33,3.33,0,0,0,1.4,1.7L262,305.5l.9.8.1.2c.5.1,1.6-.7,1.6-.7Z"/>
          <path id="Path_3183" data-name="Path 3183" class="cls-18" d="M262.7,307.3l-26.9-13.8a3.33,3.33,0,0,1-1.4-1.7l-4.1-15.1c-.2-.6.2-.9.7-.6l26.9,13.8a3.33,3.33,0,0,1,1.4,1.7l4.1,15.1C263.6,307.3,263.3,307.6,262.7,307.3Z"/>
          <path id="Path_3184" data-name="Path 3184" class="cls-19" d="M247.6,292.7c.2.8-.5,1-1.7.4a5.178,5.178,0,0,1-2.4-2.5c-.2-.8.5-1,1.7-.4A4.8,4.8,0,0,1,247.6,292.7Z"/>
        </g>
        <path id="Path_3185" data-name="Path 3185" class="cls-15" d="M263.6,299.3h0a3,3,0,0,1,1.8-4.2l6-2a3.918,3.918,0,0,1,4.6,2.1h0a3,3,0,0,1-1.8,4.2l-6,2A3.869,3.869,0,0,1,263.6,299.3Z"/>
        <g id="Group_3424" data-name="Group 3424">
          <g id="Group_3423" data-name="Group 3423">
            <path id="Path_3186" data-name="Path 3186" class="cls-14" d="M270.9,250.7c-1.1,3.2,3,5.8,5.8,5.5,1.4-.1,3.5-.4,4.4-1.8a4.72,4.72,0,0,0-.2-4.6c-.7-1.1-2.4-.1-1.7,1a2.617,2.617,0,0,1,0,2.7,5.664,5.664,0,0,1-2.9.7c-1.4,0-4.1-1.2-3.5-3a.982.982,0,1,0-1.9-.5Z"/>
          </g>
        </g>
        <g id="Group_3425" data-name="Group 3425">
          <path id="Path_3187" data-name="Path 3187" class="cls-15" d="M273.1,250.1l-2.2.2a7,7,0,0,1-7.5-5.3L261,234.2a5.386,5.386,0,0,1,4.9-6.6l2.2-.2a7,7,0,0,1,7.5,5.3l2.4,10.8A5.386,5.386,0,0,1,273.1,250.1Z"/>
          <path id="Path_3188" data-name="Path 3188" class="cls-10" d="M270.4,235.8c-2.1,1.2-4.1.8-6.8,0-3-.8-4.3-3.4-2.5-5.5,1-1.1,1.6-2.4,3.9-3.5,6.6-3.3,14.9-.6,16.6,7.2,0,0,2.2,8.7-1.9,11.9a1.669,1.669,0,0,1-2.4-.7h0s2.2-2.5-1.1-4.4a5.3,5.3,0,0,1-2.3-3.3C273.8,236.3,271.5,235.2,270.4,235.8Z"/>
          <path id="Path_3189" data-name="Path 3189" class="cls-15" d="M278.9,243.7c-.7,1-1.9.9-2.7-.2a3.344,3.344,0,0,1,0-3.6c.7-1,1.9-.9,2.7.2A3.347,3.347,0,0,1,278.9,243.7Z"/>
        </g>
        <path id="Path_3190" data-name="Path 3190" class="cls-10" d="M263.4,235.8c0,.2,7.4,1.7,10.3,6.1a1.212,1.212,0,0,0,2.1-.4,5.9,5.9,0,0,0-1-5.8C271.9,232,263.7,234.3,263.4,235.8Z"/>
      </g>
    </g>
    <path id="Path_3191" data-name="Path 3191" class="cls-18" d="M29.8,196.5l-7.1,4.1c-1,.6-1.7,0-1.7-1.3h0a4.144,4.144,0,0,1,1.7-3.3l7.1-4.1c1-.6,1.7,0,1.7,1.3h0A3.886,3.886,0,0,1,29.8,196.5Z"/>
    <path id="Path_3192" data-name="Path 3192" class="cls-18" d="M29.8,170.2l-7.1,4.1c-1,.6-1.7,0-1.7-1.3h0a4.144,4.144,0,0,1,1.7-3.3l7.1-4.1c1-.6,1.7,0,1.7,1.3h0A3.886,3.886,0,0,1,29.8,170.2Z"/>
    <path id="Path_3193" data-name="Path 3193" class="cls-18" d="M29.8,222.1l-7.1,4.1c-1,.6-1.7,0-1.7-1.3h0a4.144,4.144,0,0,1,1.7-3.3l7.1-4.1c1-.6,1.7,0,1.7,1.3h0A3.886,3.886,0,0,1,29.8,222.1Z"/>
    <path id="Path_3194" data-name="Path 3194" class="cls-18" d="M29.8,247.8l-7.1,4.1c-1,.6-1.7,0-1.7-1.3h0a4.144,4.144,0,0,1,1.7-3.3l7.1-4.1c1-.6,1.7,0,1.7,1.3h0A4.164,4.164,0,0,1,29.8,247.8Z"/>
    <path id="Path_3195" data-name="Path 3195" class="cls-18" d="M29.8,276.2l-7.1,4.1c-1,.6-1.7,0-1.7-1.3h0a4.144,4.144,0,0,1,1.7-3.3l7.1-4.1c1-.6,1.7,0,1.7,1.3h0A4.164,4.164,0,0,1,29.8,276.2Z"/>
  </g>
</svg>