<?xml version="1.0" encoding="UTF-8" standalone="no"?>
<svg xmlns:dc="http://purl.org/dc/elements/1.1/" xmlns:cc="http://creativecommons.org/ns#" xmlns:rdf="http://www.w3.org/1999/02/22-rdf-syntax-ns#" xmlns:svg="http://www.w3.org/2000/svg" xmlns="http://www.w3.org/2000/svg" xmlns:xlink="http://www.w3.org/1999/xlink" xmlns:sodipodi="http://sodipodi.sourceforge.net/DTD/sodipodi-0.dtd" xmlns:inkscape="http://www.inkscape.org/namespaces/inkscape" viewBox="0 0 666.66669 666.66669" height="666.66669" width="666.66669" xml:space="preserve" id="svg2" inkscape:version="0.48.4 r9939" sodipodi:docname="xtrapunch-development.svg" version="1.1"><sodipodi:namedview pagecolor="#ffffff" bordercolor="#666666" borderopacity="1" objecttolerance="10" gridtolerance="10" guidetolerance="10" inkscape:pageopacity="0" inkscape:pageshadow="2" inkscape:window-width="1366" inkscape:window-height="744" id="namedview5239" showgrid="false" inkscape:zoom="0.89549997" inkscape:cx="379.51811" inkscape:cy="383.6536" inkscape:window-x="0" inkscape:window-y="24" inkscape:window-maximized="1" inkscape:current-layer="svg2"/><metadata id="metadata8"><rdf:RDF><cc:Work rdf:about=""><dc:format>image/svg+xml</dc:format><dc:type rdf:resource="http://purl.org/dc/dcmitype/StillImage"/></cc:Work></rdf:RDF></metadata><defs id="defs6"><clipPath id="clipPath20"><path id="path18" d="M 5000,0 H 0 V 5000 H 5000 V 0 M 260,4050 V 810 H 4880 V 4050 H 260"/></clipPath><linearGradient id="linearGradient26" spreadMethod="pad" gradientTransform="matrix(2990,-7250,-7250,-2990,1680.65,4486.72)" gradientUnits="userSpaceOnUse" y2="0" x2="1" y1="0" x1="0"><stop id="stop22" offset="0" style="stop-opacity:1;stop-color:#a25eb6"/><stop id="stop24" offset="1" style="stop-opacity:1;stop-color:#4760b5"/></linearGradient><clipPath id="clipPath36"><path id="path34" d="M 4880,810 H 260 V 4050 H 4880 V 810 m -3002.36,355 v 0 H 4470 c 48.79,0 88.33,39.55 88.33,88.33 v 2503.33 0 c 0,48.79 -39.54,88.34 -88.33,88.34 H 526.668 c -48.785,0 -88.332,-39.55 -88.332,-88.34 V 1253.33 c 0,-48.78 39.547,-88.33 88.332,-88.33 H 1877.64"/></clipPath><clipPath id="clipPath3158"><path inkscape:connector-curvature="0" id="path3156" d="m 1300.06,629.801 v 0 l -248.04,143.23 9.55,5.559 0.04,-0.02 248,-143.218 -9.55,-5.551"/></clipPath><radialGradient inkscape:collect="always" xlink:href="#radialGradient3164" id="radialGradient9555" gradientUnits="userSpaceOnUse" gradientTransform="matrix(2537.01,0,0,-2537.01,2193.09,2046.52)" spreadMethod="pad" cx="0" cy="0" fx="0" fy="0" r="1"/><radialGradient id="radialGradient3164" spreadMethod="pad" gradientTransform="matrix(2537.01,0,0,-2537.01,2193.09,2046.52)" gradientUnits="userSpaceOnUse" r="1" cy="0" cx="0" fy="0" fx="0"><stop id="stop3160" offset="0" style="stop-opacity:1;stop-color:#72c8e3"/><stop id="stop3162" offset="1" style="stop-opacity:1;stop-color:#61c2e2"/></radialGradient><linearGradient gradientTransform="matrix(0.6617176,0,0,-0.6617176,186.022,718.20978)" y2="481.01801" x2="642.86963" y1="502.02802" x1="655.67963" gradientUnits="userSpaceOnUse" id="SVGID_23_"><stop id="stop26073" style="stop-color:#000000" offset="0"/><stop id="stop26075" style="stop-color:#000000;stop-opacity:0.7" offset="1"/></linearGradient><linearGradient gradientTransform="matrix(0.6617176,0,0,-0.6617176,186.022,718.20978)" y2="457.40439" x2="649.86853" y1="476.87439" x1="657.29852" gradientUnits="userSpaceOnUse" id="SVGID_22_"><stop id="stop26064" style="stop-color:#000000" offset="0"/><stop id="stop26066" style="stop-color:#000000;stop-opacity:0.7" offset="1"/></linearGradient><linearGradient gradientTransform="matrix(0.6617176,0,0,-0.6617176,186.022,718.20978)" y2="436.46078" x2="652.00989" y1="450.55081" x1="656.35999" gradientUnits="userSpaceOnUse" id="SVGID_21_"><stop id="stop26053" style="stop-color:#000000" offset="0"/><stop id="stop26055" style="stop-color:#000000;stop-opacity:0.7" offset="1"/></linearGradient><linearGradient gradientTransform="matrix(1,0,0,-1,-444.89,843)" y2="643.64673" x2="575.6286" y1="680.69672" x1="489.79861" gradientUnits="userSpaceOnUse" id="SVGID_5_"><stop id="stop25851" style="stop-color:#EFECF7" offset="0"/><stop id="stop25853" style="stop-color:#FBF9FC" offset="1"/></linearGradient><linearGradient gradientTransform="matrix(1,0,0,-1,-444.89,843)" y2="643.64673" x2="575.6286" y1="680.69672" x1="489.79861" gradientUnits="userSpaceOnUse" id="SVGID_5_-1"><stop id="stop25851-0" style="stop-color:#EFECF7" offset="0"/><stop id="stop25853-7" style="stop-color:#FBF9FC" offset="1"/></linearGradient><linearGradient gradientTransform="matrix(1,0,0,-1,-444.89,843)" y2="643.64673" x2="575.6286" y1="680.69672" x1="489.79861" gradientUnits="userSpaceOnUse" id="SVGID_5_-10"><stop id="stop25851-2" style="stop-color:#EFECF7" offset="0"/><stop id="stop25853-5" style="stop-color:#FBF9FC" offset="1"/></linearGradient><linearGradient y2="643.64673" x2="575.6286" y1="680.69672" x1="489.79861" gradientTransform="matrix(1,0,0,-1.1167454,-69.212656,859.44692)" gradientUnits="userSpaceOnUse" id="linearGradient27745-1" xlink:href="#SVGID_5_-10" inkscape:collect="always"/><linearGradient gradientTransform="matrix(1,0,0,-1,-444.89,843)" y2="643.64673" x2="575.6286" y1="680.69672" x1="489.79861" gradientUnits="userSpaceOnUse" id="SVGID_5_-7"><stop id="stop25851-1" style="stop-color:#EFECF7" offset="0"/><stop id="stop25853-3" style="stop-color:#FBF9FC" offset="1"/></linearGradient><linearGradient y2="643.64673" x2="575.6286" y1="680.69672" x1="489.79861" gradientTransform="matrix(1,0,0,0.42124791,-69.212656,-174.85357)" gradientUnits="userSpaceOnUse" id="linearGradient27745-12" xlink:href="#SVGID_5_-7" inkscape:collect="always"/><linearGradient inkscape:collect="always" xlink:href="#SVGID_5_-10" id="linearGradient27811" gradientUnits="userSpaceOnUse" gradientTransform="matrix(1,0,0,-1.1167454,-69.212656,859.44692)" x1="489.79861" y1="680.69672" x2="575.6286" y2="643.64673"/><linearGradient inkscape:collect="always" xlink:href="#SVGID_5_-7" id="linearGradient27813" gradientUnits="userSpaceOnUse" gradientTransform="matrix(1,0,0,0.42124791,-69.212656,-174.85357)" x1="489.79861" y1="680.69672" x2="575.6286" y2="643.64673"/><linearGradient inkscape:collect="always" xlink:href="#SVGID_5_-10-7" id="linearGradient27811-8" gradientUnits="userSpaceOnUse" gradientTransform="matrix(1,0,0,-1.1167454,-69.212656,859.44692)" x1="489.79861" y1="680.69672" x2="575.6286" y2="643.64673"/><linearGradient gradientTransform="matrix(1,0,0,-1,-444.89,843)" y2="643.64673" x2="575.6286" y1="680.69672" x1="489.79861" gradientUnits="userSpaceOnUse" id="SVGID_5_-10-7"><stop id="stop25851-2-4" style="stop-color:#EFECF7" offset="0"/><stop id="stop25853-5-9" style="stop-color:#FBF9FC" offset="1"/></linearGradient><linearGradient inkscape:collect="always" xlink:href="#SVGID_5_-7-4" id="linearGradient27813-2" gradientUnits="userSpaceOnUse" gradientTransform="matrix(1,0,0,0.42124791,-69.212656,-174.85357)" x1="489.79861" y1="680.69672" x2="575.6286" y2="643.64673"/><linearGradient gradientTransform="matrix(1,0,0,-1,-444.89,843)" y2="643.64673" x2="575.6286" y1="680.69672" x1="489.79861" gradientUnits="userSpaceOnUse" id="SVGID_5_-7-4"><stop id="stop25851-1-4" style="stop-color:#EFECF7" offset="0"/><stop id="stop25853-3-5" style="stop-color:#FBF9FC" offset="1"/></linearGradient><linearGradient y2="643.64673" x2="575.6286" y1="680.69672" x1="489.79861" gradientTransform="matrix(1,0,0,0.42124791,-69.212656,-174.85357)" gradientUnits="userSpaceOnUse" id="linearGradient27836" xlink:href="#SVGID_5_-7-4" inkscape:collect="always"/><linearGradient y2="643.64673" x2="575.6286" y1="680.69672" x1="489.79861" gradientTransform="matrix(1,0,0,-1,-414.27129,736.50126)" gradientUnits="userSpaceOnUse" id="linearGradient27745-8" xlink:href="#SVGID_5_-9" inkscape:collect="always"/><linearGradient gradientTransform="matrix(1,0,0,-1,-444.89,843)" y2="643.64673" x2="575.6286" y1="680.69672" x1="489.79861" gradientUnits="userSpaceOnUse" id="SVGID_5_-9"><stop id="stop25851-6" style="stop-color:#EFECF7" offset="0"/><stop id="stop25853-0" style="stop-color:#FBF9FC" offset="1"/></linearGradient><linearGradient y2="643.64673" x2="575.6286" y1="680.69672" x1="489.79861" gradientTransform="matrix(1,0,0,-1,-44.91565,711.74336)" gradientUnits="userSpaceOnUse" id="linearGradient27882-4" xlink:href="#SVGID_5_-9-0" inkscape:collect="always"/><linearGradient gradientTransform="matrix(1,0,0,-1,-444.89,843)" y2="643.64673" x2="575.6286" y1="680.69672" x1="489.79861" gradientUnits="userSpaceOnUse" id="SVGID_5_-9-0"><stop id="stop25851-6-9" style="stop-color:#EFECF7" offset="0"/><stop id="stop25853-0-4" style="stop-color:#FBF9FC" offset="1"/></linearGradient><linearGradient gradientUnits="userSpaceOnUse" gradientTransform="scale(1.8835124,0.53092296)" inkscape:collect="always" xlink:href="#linear-gradient-249-0" id="linearGradient119767-4-98" x1="2275.2969" y1="2654.1614" x2="2326.2107" y2="2654.1614"/><linearGradient id="linear-gradient-249-0" x1="324.22" y1="484.47" x2="380.97" y2="484.47" gradientTransform="matrix(0.94443375,0.32870182,-0.32870182,0.94443375,176.86,-91.4)" gradientUnits="userSpaceOnUse"><stop offset="0" stop-color="#006b8b" stop-opacity="0.5" id="stop93309-9-2" style="stop-color:#009500;stop-opacity:1;"/><stop offset="1" stop-color="#008cd1" id="stop93311-9-49" style="stop-color:#00da29;stop-opacity:1;"/></linearGradient></defs><path id="path130-8" style="fill:#f57933;fill-opacity:1;fill-rule:nonzero;stroke:none" d="M 551.06436,376.30389 H 219.9479 c -4.3808,0 -7.93155,-3.55075 -7.93155,-7.93154 v -204.2212 c 0,-4.38357 3.55075,-7.93154 7.93155,-7.93154 h 331.11646 c 4.38079,0 7.93155,3.54797 7.93155,7.93154 v 204.2212 c 0,4.38079 -3.55076,7.93154 -7.93155,7.93154" inkscape:connector-curvature="0"/><path id="path104" style="fill:#004455;fill-opacity:1;fill-rule:nonzero;stroke:none" d="M 479.81839,507.24108 H 86.58271 c -10.66741,0 -19.321257,-8.64828 -19.321257,-19.32126 v -268.2164 c 0,-10.6702 8.653847,-19.32126 19.321257,-19.32126 h 393.23568 c 10.67022,0 19.32129,8.65106 19.32129,19.32126 v 268.2164 c 0,10.67298 -8.65107,19.32126 -19.32129,19.32126" inkscape:connector-curvature="0"/><path id="path106" style="fill:#84b6e5;fill-opacity:1;fill-rule:nonzero;stroke:none" d="M 478.14508,503.2056 H 88.25881 c -8.45582,0 -15.31365,-6.85783 -15.31365,-15.31369 V 219.7341 c 0,-8.45864 6.85783,-15.31368 15.31365,-15.31368 h 389.88627 c 8.45584,0 15.31087,6.85504 15.31087,15.31368 v 268.15781 c 0,8.45586 -6.85503,15.31369 -15.31087,15.31369" inkscape:connector-curvature="0"/><path id="path108" style="fill:#d7e3f4;fill-opacity:1;fill-rule:nonzero;stroke:none" d="M 465.83781,476.83964 H 100.56608 c -5.21239,0 -9.43753,-4.22513 -9.43753,-9.43472 V 227.91663 c 0,-5.21239 4.22514,-9.43474 9.43753,-9.43474 h 365.27173 c 5.21239,0 9.43474,4.22235 9.43474,9.43474 v 239.48829 c 0,5.20959 -4.22235,9.43472 -9.43474,9.43472" inkscape:connector-curvature="0"/><path id="path110" style="fill:#b7c4c8;fill-opacity:1;fill-rule:nonzero;stroke:none" d="m 56.775323,491.3306 c -1.24384,2.29244 -2.01357,4.88053 -2.01357,7.67216 0,8.9439 7.25105,16.19495 16.194967,16.19495 H 495.4472 c 8.94389,0 16.19217,-7.25105 16.19217,-16.19495 0,-2.79163 -0.76973,-5.37972 -2.01357,-7.67216 H 56.775323" inkscape:connector-curvature="0"/><path id="path112" style="fill:#dbe2e3;fill-opacity:1;fill-rule:nonzero;stroke:none" d="m 56.775323,506.67493 c 2.74425,5.05343 8.02913,8.52278 14.181397,8.52278 H 495.4472 c 6.15226,0 11.43715,-3.46935 14.1786,-8.52278 H 56.775323" inkscape:connector-curvature="0"/><path id="path114" style="fill:#004455;fill-opacity:1;fill-rule:nonzero;stroke:none" d="m 499.13968,400.6813 h -5.68373 v -8.67337 h 5.68373 v 8.67337 M 202.23421,204.42042 h -10.60326 v -4.03826 h 10.60326 v 4.03826" inkscape:connector-curvature="0"/><path id="path116" style="fill:#699bd9;fill-opacity:1;fill-rule:nonzero;stroke:none" d="m 493.45595,400.6813 h -18.1834 v -8.67337 h 18.1834 v 8.67337 M 202.23421,218.48189 h -10.60326 v -14.06147 h 10.60326 v 14.06147" inkscape:connector-curvature="0"/><path id="path118" style="fill:#455ab1;fill-opacity:1;fill-rule:nonzero;stroke:none" d="m 475.27255,400.6813 h -275.9276 c -4.26141,0 -7.714,-3.44983 -7.714,-7.70844 V 218.48189 h 10.60326 V 384.2967 c 0,4.26141 3.45262,7.71123 7.714,7.71123 h 265.32434 v 8.67337" inkscape:connector-curvature="0"/><path id="path120" style="fill:#96c3ea;fill-opacity:1;fill-rule:nonzero;stroke:none" d="M 527.42993,392.00793 H 499.13968 V 219.70342 c 0,-10.6702 -8.65107,-19.32126 -19.32129,-19.32126 H 202.23421 v -14.64435 c 0,-4.2586 3.45262,-7.71121 7.714,-7.71121 h 321.93274 c 4.25859,0 7.714,3.45261 7.714,7.71121 v 166.36144 c -1.58406,1.48367 -3.15697,3.00083 -4.72154,4.56257 -7.10882,7.10325 -13.3754,14.57743 -18.83879,22.31094 4.19724,3.28808 7.91758,7.32356 10.86262,12.14272 0.18135,0.29563 0.35976,0.59403 0.53269,0.89245" inkscape:connector-curvature="0"/><path id="path122" style="fill:#7da5dc;fill-opacity:1;fill-rule:nonzero;stroke:none" d="m 531.88095,392.00793 h -4.45102 c -0.17299,-0.29842 -0.3514,-0.59682 -0.53269,-0.89245 -2.94504,-4.81916 -6.66538,-8.85464 -10.86262,-12.14272 5.46339,-7.73351 11.72997,-15.20769 18.83879,-22.31094 1.56457,-1.56174 3.13748,-3.0789 4.72154,-4.56257 v 32.19745 c 0,4.26141 -3.45541,7.71123 -7.714,7.71123" inkscape:connector-curvature="0"/><path id="path124" style="fill:#004455;fill-opacity:1;fill-rule:nonzero;stroke:none" d="m 499.13968,392.00793 h -5.68373 V 219.7341 c 0,-8.45864 -6.85503,-15.31368 -15.31087,-15.31368 H 202.23421 v -4.03826 h 277.58418 c 10.67022,0 19.32129,8.65106 19.32129,19.32126 v 172.30451" inkscape:connector-curvature="0"/><path id="path126" style="fill:#83ade0;fill-opacity:1;fill-rule:nonzero;stroke:none" d="m 493.45595,392.00793 h -18.1834 v -164.0913 c 0,-5.21239 -4.22235,-9.43474 -9.43474,-9.43474 h -263.6036 v -14.06147 h 275.91087 c 8.45584,0 15.31087,6.85504 15.31087,15.31368 v 172.27383" inkscape:connector-curvature="0"/><path id="path128" style="fill:#596fbf;fill-opacity:1;fill-rule:nonzero;stroke:none" d="M 475.27255,392.00793 H 209.94821 c -4.26138,0 -7.714,-3.44982 -7.714,-7.71123 V 218.48189 h 263.6036 c 5.21239,0 9.43474,4.22235 9.43474,9.43474 v 164.0913" inkscape:connector-curvature="0"/><path id="path130" style="fill:#fbfdfe;fill-opacity:1;fill-rule:nonzero;stroke:none" d="M 545.37628,377.55044 H 223.44075 c -4.2586,0 -7.71123,-3.45262 -7.71123,-7.71122 V 171.28033 c 0,-4.26138 3.45263,-7.7112 7.71123,-7.7112 h 321.93553 c 4.25859,0 7.71123,3.44982 7.71123,7.7112 v 198.55889 c 0,4.2586 -3.45264,7.71122 -7.71123,7.71122" inkscape:connector-curvature="0"/><path id="path132" style="fill:#455ab1;fill-opacity:1;fill-rule:nonzero;stroke:none" d="m 153.4402,309.59693 h -34.21938 c -2.66336,0 -4.81917,-2.15858 -4.81917,-4.81917 v -36.14648 c 0,-2.66337 2.15581,-4.81916 4.81917,-4.81916 h 34.21938 c 2.66058,0 4.81638,2.15579 4.81638,4.81916 v 36.14648 c 0,2.66059 -2.1558,4.81917 -4.81638,4.81917" inkscape:connector-curvature="0"/><path id="path134" style="fill:#84b6e5;fill-opacity:1;fill-rule:nonzero;stroke:none" d="m 150.91071,376.10581 h -34.21939 c -2.66339,0 -4.81916,-2.16137 -4.81916,-4.82196 v -36.14648 c 0,-2.66058 2.15577,-4.81638 4.81916,-4.81638 h 34.21939 c 2.66057,0 4.81636,2.1558 4.81636,4.81638 v 36.14648 c 0,2.66059 -2.15579,4.82196 -4.81636,4.82196" inkscape:connector-curvature="0"/><path id="path136" style="fill:#84b6e5;fill-opacity:1;fill-rule:nonzero;stroke:none" d="m 150.91071,441.16727 h -34.21939 c -2.66339,0 -4.81916,-2.16138 -4.81916,-4.82197 v -36.14648 c 0,-2.66058 2.15577,-4.81638 4.81916,-4.81638 h 34.21939 c 2.66057,0 4.81636,2.1558 4.81636,4.81638 v 36.14648 c 0,2.66059 -2.15579,4.82197 -4.81636,4.82197" inkscape:connector-curvature="0"/><path id="path138" style="fill:#8063b8;fill-opacity:1;fill-rule:nonzero;stroke:none" d="m 143.38077,413.23119 c 0,-5.75621 -4.66578,-10.42477 -10.42479,-10.42477 -5.75621,0 -10.42477,4.66856 -10.42477,10.42477 0,0 -1.46696,11.04112 10.42477,19.82327 11.8945,-8.78215 10.42479,-19.82327 10.42479,-19.82327" inkscape:connector-curvature="0"/><path id="path140" style="fill:#fbfdfe;fill-opacity:1;fill-rule:nonzero;stroke:none" d="m 133.56953,420.75555 c -4.65183,0.36813 -8.50605,-3.48609 -8.1407,-8.13792 0.28725,-3.65898 3.2546,-6.62634 6.91359,-6.91359 4.65183,-0.36534 8.50605,3.48887 8.13792,8.1407 -0.28724,3.65899 -3.25182,6.62357 -6.91081,6.91081" inkscape:connector-curvature="0"/><path id="path142" style="fill:#8063b8;fill-opacity:1;fill-rule:nonzero;stroke:none" d="m 147.17363,352.60682 c 0,7.96501 -6.45902,14.42403 -14.42124,14.42403 -7.96778,0 -14.42401,-6.45902 -14.42401,-14.42403 0,-7.96499 6.45623,-14.42122 14.42401,-14.42122 7.96222,0 14.42124,6.45623 14.42124,14.42122" inkscape:connector-curvature="0"/><path id="path144" style="fill:#fbfdfe;fill-opacity:1;fill-rule:nonzero;stroke:none" d="m 144.38196,352.60682 c 0,6.42555 -5.20681,11.63236 -11.62957,11.63236 -6.42555,0 -11.63236,-5.20681 -11.63236,-11.63236 0,-6.42276 5.20681,-11.62957 11.63236,-11.62957 6.42276,0 11.62957,5.20681 11.62957,11.62957" inkscape:connector-curvature="0"/><path id="path146" style="fill:#a97bc4;fill-opacity:1;fill-rule:nonzero;stroke:none" d="m 132.75239,340.97725 c 5.27095,0 9.71919,3.50561 11.14989,8.31361 l 0.44344,0.34025 c 0.30955,0 0.53824,-0.29842 0.44901,-0.59403 -1.53667,-5.19845 -6.34748,-8.99132 -12.04234,-8.99132 -5.69766,0 -10.50566,3.79287 -12.04233,8.99132 -0.092,0.29561 0.13379,0.59403 0.44623,0.59403 l 0.44622,-0.34025 c 1.42789,-4.808 5.87614,-8.31361 11.14988,-8.31361" inkscape:connector-curvature="0"/><path id="path148" style="fill:#6a52ae;fill-opacity:1;fill-rule:nonzero;stroke:none" d="m 145.65368,352.98053 c -0.69163,0 -1.28846,0.50199 -1.37769,1.18806 -0.76694,5.6865 -5.63352,10.07059 -11.5236,10.07059 -5.89287,0 -10.75945,-4.38409 -11.52359,-10.07059 -0.092,-0.68607 -0.68885,-1.18806 -1.3805,-1.18806 -0.83942,0 -1.49761,0.73626 -1.38606,1.56735 0.95101,7.04746 6.98332,12.48297 14.29015,12.48297 7.30404,0 13.33915,-5.43551 14.28737,-12.48297 0.11152,-0.83109 -0.54662,-1.56735 -1.38608,-1.56735" inkscape:connector-curvature="0"/><path id="path150" style="fill:#fbfdfe;fill-opacity:1;fill-rule:nonzero;stroke:none" d="m 144.38196,352.60682 c 0,6.42555 -5.20681,11.63236 -11.62957,11.63236 -6.42555,0 -11.63236,-5.20681 -11.63236,-11.63236 0,-6.42276 5.20681,-11.62957 11.63236,-11.62957 6.42276,0 11.62957,5.20681 11.62957,11.62957" inkscape:connector-curvature="0"/><path id="path152" style="fill:#8063b8;fill-opacity:1;fill-rule:nonzero;stroke:none" d="m 144.08635,356.36063 -0.43785,0.30957 c -1.64821,4.42035 -5.90403,7.56898 -10.89611,7.56898 -4.99487,0 -9.25066,-3.14863 -10.89888,-7.56898 l -0.44064,-0.30957 c -0.32353,0 -0.5522,0.32351 -0.43785,0.6275 1.7765,4.77732 6.37813,8.17974 11.77737,8.17974 5.39368,0 9.99808,-3.40242 11.77739,-8.17974 0.11152,-0.30399 -0.11712,-0.6275 -0.44343,-0.6275" inkscape:connector-curvature="0"/><path id="path154" style="fill:#8063b8;fill-opacity:1;fill-rule:nonzero;stroke:none" d="m 132.71892,353.63033 v 0 c -0.30677,0 -0.55776,-0.25099 -0.55776,-0.55777 v -8.1909 c 0,-0.30677 0.25099,-0.55499 0.55776,-0.55499 0.30956,0 0.55778,0.24822 0.55778,0.55499 v 8.1909 c 0,0.30678 -0.24822,0.55777 -0.55778,0.55777" inkscape:connector-curvature="0"/><path id="path156" style="fill:#8063b8;fill-opacity:1;fill-rule:nonzero;stroke:none" d="m 132.31732,352.76299 v 0 l 0.78647,-0.067 5.05064,4.26697 0.067,0.78926 -0.78646,0.0643 -5.05064,-4.26696 -0.067,-0.78647" inkscape:connector-curvature="0"/><path id="path158" style="fill:#d4d4ee;fill-opacity:1;fill-rule:nonzero;stroke:none" d="m 132.42609,342.88484 h 0.41833 v -1.11881 h -0.41833 z" inkscape:connector-curvature="0"/><path id="path160" style="fill:#d4d4ee;fill-opacity:1;fill-rule:nonzero;stroke:none" d="m 132.42609,363.26028 h 0.41833 v -1.11554 h -0.41833 z" inkscape:connector-curvature="0"/><path id="path162" style="fill:#d4d4ee;fill-opacity:1;fill-rule:nonzero;stroke:none" d="m 121.88698,352.72396 h 1.1188 v -0.4216 h -1.1188 z" inkscape:connector-curvature="0"/><path id="path164" style="fill:#d4d4ee;fill-opacity:1;fill-rule:nonzero;stroke:none" d="m 142.2652,352.72396 h 1.11557 v -0.4216 h -1.11557 z" inkscape:connector-curvature="0"/><path id="path166" style="fill:#d4d4ee;fill-opacity:1;fill-rule:nonzero;stroke:none" d="m 125.97266,345.55656 -0.29561,0.29562 -0.78927,-0.78923 0.29564,-0.29842 0.78924,0.79203" inkscape:connector-curvature="0"/><path id="path168" style="fill:#d4d4ee;fill-opacity:1;fill-rule:nonzero;stroke:none" d="m 140.38272,359.96664 -0.29561,0.29562 -0.78925,-0.78926 0.29562,-0.2984 0.78924,0.79204" inkscape:connector-curvature="0"/><path id="path170" style="fill:#d4d4ee;fill-opacity:1;fill-rule:nonzero;stroke:none" d="m 125.67705,359.1746 0.29561,0.2984 -0.78924,0.78926 -0.29564,-0.29562 0.78927,-0.79204" inkscape:connector-curvature="0"/><path id="path172" style="fill:#d4d4ee;fill-opacity:1;fill-rule:nonzero;stroke:none" d="m 140.08711,344.76453 0.29561,0.29842 -0.78924,0.78923 -0.29562,-0.29562 0.78925,-0.79203" inkscape:connector-curvature="0"/><path id="path174" style="fill:#84b6e5;fill-opacity:1;fill-rule:nonzero;stroke:none" d="m 150.91071,308.1495 h -34.21939 c -2.66339,0 -4.81916,-2.15578 -4.81916,-4.81915 v -36.14648 c 0,-2.66059 2.15577,-4.81917 4.81916,-4.81917 h 34.21939 c 2.66057,0 4.81636,2.15858 4.81636,4.81917 v 36.14648 c 0,2.66337 -2.15579,4.81915 -4.81636,4.81915" inkscape:connector-curvature="0"/><path id="path176" style="fill:#f6ce9b;fill-opacity:1;fill-rule:nonzero;stroke:none" d="m 109.76378,303.45307 3.61437,-2.52953 1.6259,-5.96535 -1.80718,-0.36257 -1.08208,2.16973 1.08208,-10.30206 -1.80719,0.35976 -1.80719,9.9423 -2.16973,4.69925 1.98845,1.26335" inkscape:connector-curvature="0"/><path id="path178" style="fill:#f6ce9b;fill-opacity:1;fill-rule:nonzero;stroke:none" d="m 131.14881,314.17624 0.48245,-4.33946 5.30164,-5.29885 1.20479,1.68447 -1.92989,2.16696 10.12079,-2.4068 v 2.16694 l -9.39569,3.61439 -1.9271,3.37451 -3.85699,-0.96216" inkscape:connector-curvature="0"/><path id="path180" style="fill:#5149a7;fill-opacity:1;fill-rule:nonzero;stroke:none" d="m 65.167023,421.40814 19.711687,96.43064 14.91764,-1.59802 -10.12078,-3.72872 3.7287,-1.06534 -5.32952,-90.03856 H 65.167023" inkscape:connector-curvature="0"/><path id="path182" style="fill:#5149a7;fill-opacity:1;fill-rule:nonzero;stroke:none" d="m 96.60031,419.81291 c 0,0 25.04123,23.44042 21.30974,51.67492 -4.26417,22.37506 -13.31964,30.90063 -13.31964,30.90063 l -2.66335,-0.53268 4.13032,10.92398 -11.98934,-12.78693 c 0,0 14.78655,-20.37826 5.59444,-41.55689 -9.1893,-21.17868 -29.16874,-28.76996 -29.16874,-28.76996 0,0 17.18222,-15.58139 18.38142,-15.18538 1.19643,0.4016 7.72515,5.33231 7.72515,5.33231" inkscape:connector-curvature="0"/><path id="path184" style="fill:#f57933;fill-opacity:1;fill-rule:nonzero;stroke:none" d="m 107.2538,299.80523 c 0,0 -41.155297,49.94579 -45.949377,59.93551 0,0 -1.9996,3.59764 -1.9996,13.98617 0,10.38853 3.59762,48.74938 3.59762,48.74938 l 41.955697,2.39563 c 0,0 -13.58736,-46.75255 -13.98614,-47.94897 -0.39882,-1.19921 -7.19249,-8.3917 -13.58458,-9.98972 l 35.16204,-63.53316 -5.19566,-3.59484" inkscape:connector-curvature="0"/><path id="path186" style="fill:#f6ce9b;fill-opacity:1;fill-rule:nonzero;stroke:none" d="m 81.19463,362.10849 c 0,0 1.74861,5.1845 2.71355,8.32198 0,0 -8.56459,-0.18135 -11.57934,-4.16098 l 3.19604,-7.65825 5.66975,3.49725" inkscape:connector-curvature="0"/><path id="path188" style="fill:#f6ce9b;fill-opacity:1;fill-rule:nonzero;stroke:none" d="m 87.70662,345.8996 c 0,0 2.53229,14.75031 0,18.10253 -2.53227,3.35221 -11.21681,-2.34823 -14.83675,-7.71121 -3.617165,-5.36577 -4.339487,-17.43321 1.80998,-18.43721 6.15224,-1.00678 11.57936,2.68012 13.02677,8.04589" inkscape:connector-curvature="0"/><path id="path190" style="fill:#f57933;fill-opacity:1;fill-rule:nonzero;stroke:none" d="m 83.81336,373.2054 c 0,0 32.99509,-20.75753 35.65568,-25.01613 2.66057,-4.25582 10.1124,-35.92339 10.1124,-35.92339 l 6.38652,1.59523 c 0,0 -3.72593,35.39349 -4.79127,39.11942 -1.06256,3.72593 -33.52775,38.31902 -40.97961,38.31902 -7.44904,0 -10.10963,-9.58254 -6.38372,-18.09415" inkscape:connector-curvature="0"/><path id="path192" style="fill:#5149a7;fill-opacity:1;fill-rule:nonzero;stroke:none" d="m 69.941545,338.5119 c 0,0 4.339485,-6.02395 12.050705,-4.57653 7.70842,1.44464 9.6383,-0.23985 9.6383,-0.23985 0,0 -1.68725,8.43074 -6.98888,10.35784 -5.30163,1.92991 -6.74627,1.44743 -6.74627,1.44743 0,0 2.89206,2.89206 3.61437,5.059 0.72232,2.16973 -2.40957,-2.64942 -3.61437,-0.96215 -1.20478,1.68446 0,5.30164 2.40958,5.059 2.40959,-0.23984 0.96216,1.68725 0,3.61438 -0.96494,1.92988 -2.40958,4.33946 -3.857,3.61437 -1.44464,-0.72233 -6.506435,-3.61437 -8.433527,-9.63833 -1.9271,-6.02395 -2.40958,-11.80526 1.927092,-13.73516" inkscape:connector-curvature="0"/><path id="path194" style="fill:#e8ebf8;fill-opacity:1;fill-rule:nonzero;stroke:none" d="m 334.04718,356.58653 h -93.98201 c -1.99404,0 -3.61158,-1.61753 -3.61158,-3.61438 V 189.59203 c 0,-1.99684 1.61754,-3.61438 3.61158,-3.61438 h 93.98201 c 1.99403,0 3.61436,1.61754 3.61436,3.61438 v 163.38012 c 0,1.99685 -1.62033,3.61438 -3.61436,3.61438" inkscape:connector-curvature="0"/><path id="path196" style="fill:#37abc8;fill-opacity:1;fill-rule:nonzero;stroke:none" d="M 316.45501,214.17309 H 256.6924 c -1.59525,0 -2.88926,-1.29682 -2.88926,-2.89205 v -8.67618 c 0,-1.59802 1.29401,-2.89203 2.88926,-2.89203 h 59.76261 c 1.59523,0 2.89206,1.29401 2.89206,2.89203 v 8.67618 c 0,1.59523 -1.29683,2.89205 -2.89206,2.89205" inkscape:connector-curvature="0"/><path id="path198" style="fill:#37abc8;fill-opacity:1;fill-rule:nonzero;stroke:none" d="m 275.73198,294.53427 h -13.01563 c -3.0594,0 -5.54147,-2.4821 -5.54147,-5.54147 0,-3.05939 2.48207,-5.53868 5.54147,-5.53868 h 13.01563 c 3.05938,0 5.54147,2.47929 5.54147,5.53868 0,3.05937 -2.48209,5.54147 -5.54147,5.54147" inkscape:connector-curvature="0"/><path id="path200" style="fill:#8063b8;fill-opacity:1;fill-rule:nonzero;stroke:none" d="m 313.32312,294.53427 h -13.01565 c -3.0594,0 -5.5387,-2.4821 -5.5387,-5.54147 0,-3.05939 2.4793,-5.53868 5.5387,-5.53868 h 13.01565 c 3.06217,0 5.54147,2.47929 5.54147,5.53868 0,3.05937 -2.4793,5.54147 -5.54147,5.54147" inkscape:connector-curvature="0"/><path id="path202" style="fill:#fbfdfe;fill-opacity:1;fill-rule:nonzero;stroke:none" d="m 252.3585,239.71354 h 70.36001 V 228.63105 H 252.3585 z" inkscape:connector-curvature="0"/><path id="path204" style="fill:#fbfdfe;fill-opacity:1;fill-rule:nonzero;stroke:none" d="m 252.3585,258.51048 h 70.36001 V 247.42692 H 252.3585 z" inkscape:connector-curvature="0"/><path id="path206" style="fill:#d4d3ee;fill-opacity:1;fill-rule:nonzero;stroke:none" d="m 267.53829,268.02888 h 40.48318 v -2.52957 h -40.48318 z" inkscape:connector-curvature="0"/><path id="path208" style="fill:#84b6e5;fill-opacity:1;fill-rule:nonzero;stroke:none" d="M 546.22131,325.01657 H 419.70997 c -7.78652,0 -14.09493,-6.30841 -14.09493,-14.09493 0,-7.78373 6.30841,-14.09772 14.09493,-14.09772 h 126.51134 c 7.78372,0 14.09493,6.31399 14.09493,14.09772 0,7.78652 -6.31121,14.09493 -14.09493,14.09493" inkscape:connector-curvature="0"/><path id="path210" style="fill:#e8ebf8;fill-opacity:1;fill-rule:nonzero;stroke:none" d="m 436.69975,205.49693 h -78.7994 c -6.38652,0 -11.56545,-5.17892 -11.56545,-11.56542 0,-6.38929 5.17893,-11.56822 11.56545,-11.56822 h 78.7994 c 6.38649,0 11.56821,5.17893 11.56821,11.56822 0,6.3865 -5.18172,11.56542 -11.56821,11.56542" inkscape:connector-curvature="0"/><path id="path212" style="fill:#fabc29;fill-opacity:1;fill-rule:nonzero;stroke:none" d="m 376.70008,193.93151 c 0,1.99403 -1.62033,3.61436 -3.61716,3.61436 -1.99683,0 -3.61436,-1.62033 -3.61436,-3.61436 0,-1.99683 1.61753,-3.61437 3.61436,-3.61437 1.99683,0 3.61716,1.61754 3.61716,3.61437" inkscape:connector-curvature="0"/><path id="path214" style="fill:#82c92a;fill-opacity:1;fill-rule:nonzero;stroke:none" d="m 401.51821,193.93151 c 0,1.99403 -1.61756,3.61436 -3.61438,3.61436 -1.99683,0 -3.61717,-1.62033 -3.61717,-3.61436 0,-1.99683 1.62034,-3.61437 3.61717,-3.61437 1.99682,0 3.61438,1.61754 3.61438,3.61437" inkscape:connector-curvature="0"/><path id="path216" style="fill:#eb3e1f;fill-opacity:1;fill-rule:nonzero;stroke:none" d="m 424.40921,193.93151 c 0,1.99403 -1.61755,3.61436 -3.61437,3.61436 -1.99683,0 -3.61436,-1.62033 -3.61436,-3.61436 0,-1.99683 1.61753,-3.61437 3.61436,-3.61437 1.99682,0 3.61437,1.61754 3.61437,3.61437" inkscape:connector-curvature="0"/><path id="path218" style="fill:#ffffff;fill-opacity:1;fill-rule:nonzero;stroke:none" d="m 142.10068,288.07526 c 0,4.86099 -3.94067,8.80444 -8.80446,8.80444 -4.861,0 -8.80445,-3.94345 -8.80445,-8.80444 0,-4.86378 3.94345,-8.80445 8.80445,-8.80445 4.86379,0 8.80446,3.94067 8.80446,8.80445" inkscape:connector-curvature="0"/><path id="path220" style="fill:#8063b8;fill-opacity:1;fill-rule:nonzero;stroke:none" d="m 133.43008,294.56774 c -3.56974,0 -6.46738,-2.89484 -6.46738,-6.46739 0,-3.56976 2.89764,-6.46459 6.46738,-6.46459 3.57254,0 6.46739,2.89483 6.46739,6.46459 0,3.57255 -2.89485,6.46739 -6.46739,6.46739 z m 8.99409,-17.12642 h -1.55061 l -2.23109,-3.14027 c -0.17297,-0.24822 -0.46016,-0.39323 -0.76414,-0.39323 h -8.89648 c -0.30399,0 -0.58847,0.145 -0.76417,0.39323 l -2.22829,3.14027 h -1.5534 c -2.41237,0 -4.38688,1.97451 -4.38688,4.38687 v 12.76466 c 0,2.41235 1.97451,4.38686 4.38688,4.38686 h 17.98818 c 2.41516,0 4.3869,-1.97451 4.3869,-4.38686 v -12.76466 c 0,-2.41236 -1.97174,-4.38687 -4.3869,-4.38687" inkscape:connector-curvature="0"/><path id="path222" style="fill:#84b6e5;fill-opacity:1;fill-rule:nonzero;stroke:none" d="m 137.7054,288.10035 c 0,2.36218 -1.91314,4.27534 -4.27532,4.27534 -2.36217,0 -4.27533,-1.91316 -4.27533,-4.27534 0,-2.35938 1.91316,-4.27254 4.27533,-4.27254 2.36218,0 4.27532,1.91316 4.27532,4.27254" inkscape:connector-curvature="0"/><path id="path224" style="fill:#e8ebf8;fill-opacity:1;fill-rule:nonzero;stroke:none" d="m 448.14526,280.11862 h -66.14913 c -3.14863,0 -5.70044,-2.55181 -5.70044,-5.70323 v -39.53497 c 0,-3.14862 2.55181,-5.70043 5.70044,-5.70043 h 66.14913 c 3.14861,0 5.70322,2.55181 5.70322,5.70043 v 39.53497 c 0,3.15142 -2.55461,5.70323 -5.70322,5.70323" inkscape:connector-curvature="0"/><path id="path226" style="fill:#ef363e;fill-opacity:1;fill-rule:nonzero;stroke:none" d="m 415.14739,254.25469 h -0.15331 c -0.34581,0 -0.68606,-0.0864 -0.98726,-0.25658 L 384.11297,237.3904 c -0.98446,-0.54382 -1.34144,-1.78486 -0.79204,-2.76934 0.54662,-0.98447 1.78488,-1.33866 2.77213,-0.79204 l 28.97631,16.10014 28.98191,-16.10014 c 0.98447,-0.54662 2.22273,-0.19243 2.76933,0.79204 0.54663,0.98448 0.19244,2.22552 -0.79202,2.76934 l -29.89385,16.60771 c -0.3012,0.17005 -0.64145,0.25658 -0.98726,0.25658" inkscape:connector-curvature="0"/><path id="path228" style="fill:#e8ebf8;fill-opacity:1;fill-rule:nonzero;stroke:none" d="m 562.48597,274.89787 h -86.02814 c -2.79445,0 -5.05902,-2.26736 -5.05902,-5.0618 V 155.61528 c 0,-2.79446 2.26457,-5.05902 5.05902,-5.05902 h 86.02814 c 2.79444,0 5.059,2.26456 5.059,5.05902 v 114.22079 c 0,2.79444 -2.26456,5.0618 -5.059,5.0618" inkscape:connector-curvature="0"/><path id="path230" style="fill:#5fccf5;fill-opacity:1;fill-rule:nonzero;stroke:none" d="m 492.88146,167.22253 h -6.40603 c -0.34304,0 -0.61913,-0.55219 -0.61913,-1.23825 0,-0.68328 0.27609,-1.23827 0.61913,-1.23827 h 6.40603 c 0.34022,0 0.61355,0.55499 0.61355,1.23827 0,0.68606 -0.27333,1.23825 -0.61355,1.23825" inkscape:connector-curvature="0"/><path id="path232" style="fill:#5fccf5;fill-opacity:1;fill-rule:nonzero;stroke:none" d="m 532.53913,167.22253 h -36.64292 c -0.34025,0 -0.61912,-0.55219 -0.61912,-1.23825 0,-0.68328 0.27887,-1.23827 0.61912,-1.23827 h 36.64292 c 0.34304,0 0.61633,0.55499 0.61633,1.23827 0,0.68606 -0.27329,1.23825 -0.61633,1.23825" inkscape:connector-curvature="0"/><path id="path234" style="fill:#f030a2;fill-opacity:1;fill-rule:nonzero;stroke:none" d="m 507.58435,172.34288 h -11.68814 c -0.34025,0 -0.61912,-0.55498 -0.61912,-1.23825 0,-0.68326 0.27887,-1.23825 0.61912,-1.23825 h 11.68814 c 0.34025,0 0.61913,0.55499 0.61913,1.23825 0,0.68327 -0.27888,1.23825 -0.61913,1.23825" inkscape:connector-curvature="0"/><path id="path236" style="fill:#e8ebf8;fill-opacity:1;fill-rule:nonzero;stroke:none" d="m 526.8108,172.34288 h -16.84475 c -0.34025,0 -0.61912,-0.55498 -0.61912,-1.23825 0,-0.68326 0.27887,-1.23825 0.61912,-1.23825 h 16.84475 c 0.34025,0 0.61634,0.55499 0.61634,1.23825 0,0.68327 -0.27609,1.23825 -0.61634,1.23825" inkscape:connector-curvature="0"/><path id="path238" style="fill:#e8ebf8;fill-opacity:1;fill-rule:nonzero;stroke:none" d="m 532.53913,197.26978 h -36.64292 c -0.34025,0 -0.61912,-0.555 -0.61912,-1.23826 0,-0.68327 0.27887,-1.23825 0.61912,-1.23825 h 36.64292 c 0.34304,0 0.61633,0.55498 0.61633,1.23825 0,0.68326 -0.27329,1.23826 -0.61633,1.23826" inkscape:connector-curvature="0"/><path id="path240" style="fill:#5fccf5;fill-opacity:1;fill-rule:nonzero;stroke:none" d="m 492.88146,202.39015 h -6.40603 c -0.34304,0 -0.61913,-0.555 -0.61913,-1.23827 0,-0.68327 0.27609,-1.23826 0.61913,-1.23826 h 6.40603 c 0.34022,0 0.61355,0.55499 0.61355,1.23826 0,0.68327 -0.27333,1.23827 -0.61355,1.23827" inkscape:connector-curvature="0"/><path id="path242" style="fill:#e8ebf8;fill-opacity:1;fill-rule:nonzero;stroke:none" d="m 507.58435,202.39015 h -11.68814 c -0.34025,0 -0.61912,-0.555 -0.61912,-1.23827 0,-0.68327 0.27887,-1.23826 0.61912,-1.23826 h 11.68814 c 0.34025,0 0.61913,0.55499 0.61913,1.23826 0,0.68327 -0.27888,1.23827 -0.61913,1.23827" inkscape:connector-curvature="0"/><path id="path244" style="fill:#f030a2;fill-opacity:1;fill-rule:nonzero;stroke:none" d="m 526.8108,202.39015 h -16.84475 c -0.34025,0 -0.61912,-0.555 -0.61912,-1.23827 0,-0.68327 0.27887,-1.23826 0.61912,-1.23826 h 16.84475 c 0.34025,0 0.61634,0.55499 0.61634,1.23826 0,0.68327 -0.27609,1.23827 -0.61634,1.23827" inkscape:connector-curvature="0"/><path id="path246" style="fill:#f030a2;fill-opacity:1;fill-rule:nonzero;stroke:none" d="m 541.62804,177.46324 h -45.73183 c -0.34025,0 -0.61912,-0.55498 -0.61912,-1.23826 0,-0.68606 0.27887,-1.24104 0.61912,-1.24104 h 45.73183 c 0.34025,0 0.61635,0.55498 0.61635,1.24104 0,0.68328 -0.2761,1.23826 -0.61635,1.23826" inkscape:connector-curvature="0"/><path id="path248" style="fill:#5fccf5;fill-opacity:1;fill-rule:nonzero;stroke:none" d="m 532.0427,182.58359 h -10.64787 c -0.35977,0 -0.65261,-0.29282 -0.65261,-0.65259 v -1.1741 c 0,-0.35976 0.29284,-0.65259 0.65261,-0.65259 h 10.64787 c 0.36257,0 0.6526,0.29283 0.6526,0.65259 v 1.1741 c 0,0.35977 -0.29003,0.65259 -0.6526,0.65259" inkscape:connector-curvature="0"/><path id="path250" style="fill:#e8ebf8;fill-opacity:1;fill-rule:nonzero;stroke:none" d="m 511.08718,182.58359 h -15.19097 c -0.34025,0 -0.61912,-0.55496 -0.61912,-1.24102 0,-0.68329 0.27887,-1.23826 0.61912,-1.23826 h 15.19097 c 0.34022,0 0.61632,0.55497 0.61632,1.23826 0,0.68606 -0.2761,1.24102 -0.61632,1.24102" inkscape:connector-curvature="0"/><path id="path252" style="fill:#5fccf5;fill-opacity:1;fill-rule:nonzero;stroke:none" d="m 519.1721,182.58359 h -6.02674 c -0.34025,0 -0.61357,-0.55496 -0.61357,-1.24102 0,-0.68329 0.27332,-1.23826 0.61357,-1.23826 h 6.02674 c 0.34023,0 0.61633,0.55497 0.61633,1.23826 0,0.68606 -0.2761,1.24102 -0.61633,1.24102" inkscape:connector-curvature="0"/><path id="path254" style="fill:#e8ebf8;fill-opacity:1;fill-rule:nonzero;stroke:none" d="m 492.88146,187.53107 h -6.40603 c -0.34304,0 -0.61913,-0.555 -0.61913,-1.23826 0,-0.68329 0.27609,-1.23825 0.61913,-1.23825 h 6.40603 c 0.34022,0 0.61355,0.55496 0.61355,1.23825 0,0.68326 -0.27333,1.23826 -0.61355,1.23826" inkscape:connector-curvature="0"/><path id="path256" style="fill:#e8ebf8;fill-opacity:1;fill-rule:nonzero;stroke:none" d="m 541.62804,187.53107 h -45.73183 c -0.34025,0 -0.61912,-0.555 -0.61912,-1.23826 0,-0.68329 0.27887,-1.23825 0.61912,-1.23825 h 45.73183 c 0.34025,0 0.61635,0.55496 0.61635,1.23825 0,0.68326 -0.2761,1.23826 -0.61635,1.23826" inkscape:connector-curvature="0"/><path id="path258" style="fill:#e8ebf8;fill-opacity:1;fill-rule:nonzero;stroke:none" d="m 492.88146,207.13121 h -6.40603 c -0.34304,0 -0.61913,-0.5522 -0.61913,-1.23827 0,-0.68326 0.27609,-1.23826 0.61913,-1.23826 h 6.40603 c 0.34022,0 0.61355,0.555 0.61355,1.23826 0,0.68607 -0.27333,1.23827 -0.61355,1.23827" inkscape:connector-curvature="0"/><path id="path260" style="fill:#e8ebf8;fill-opacity:1;fill-rule:nonzero;stroke:none" d="m 536.51046,207.13121 h -15.00131 c -0.42389,0 -0.76693,-0.34304 -0.76693,-0.76693 v -0.94264 c 0,-0.42392 0.34304,-0.76696 0.76693,-0.76696 h 15.00131 c 0.42671,0 0.76973,0.34304 0.76973,0.76696 v 0.94264 c 0,0.42389 -0.34302,0.76693 -0.76973,0.76693" inkscape:connector-curvature="0"/><path id="path262" style="fill:#e8ebf8;fill-opacity:1;fill-rule:nonzero;stroke:none" d="m 511.08718,207.13121 h -15.19097 c -0.34025,0 -0.61912,-0.5522 -0.61912,-1.23827 0,-0.68326 0.27887,-1.23826 0.61912,-1.23826 h 15.19097 c 0.34022,0 0.61632,0.555 0.61632,1.23826 0,0.68607 -0.2761,1.23827 -0.61632,1.23827" inkscape:connector-curvature="0"/><path id="path264" style="fill:#e8ebf8;fill-opacity:1;fill-rule:nonzero;stroke:none" d="m 519.1721,207.13121 h -6.02674 c -0.34025,0 -0.61357,-0.5522 -0.61357,-1.23827 0,-0.68326 0.27332,-1.23826 0.61357,-1.23826 h 6.02674 c 0.34023,0 0.61633,0.555 0.61633,1.23826 0,0.68607 -0.2761,1.23827 -0.61633,1.23827" inkscape:connector-curvature="0"/><path id="path266" style="fill:#fabd41;fill-opacity:1;fill-rule:nonzero;stroke:none" d="m 492.88146,212.08145 h -6.40603 c -0.34304,0 -0.61913,-0.55498 -0.61913,-1.23827 0,-0.68606 0.27609,-1.23825 0.61913,-1.23825 h 6.40603 c 0.34022,0 0.61355,0.55219 0.61355,1.23825 0,0.68329 -0.27333,1.23827 -0.61355,1.23827" inkscape:connector-curvature="0"/><path id="path268" style="fill:#5fccf5;fill-opacity:1;fill-rule:nonzero;stroke:none" d="m 503.81379,212.08145 h -7.91758 c -0.34025,0 -0.61912,-0.55498 -0.61912,-1.23827 0,-0.68606 0.27887,-1.23825 0.61912,-1.23825 h 7.91758 c 0.34025,0 0.61635,0.55219 0.61635,1.23825 0,0.68329 -0.2761,1.23827 -0.61635,1.23827" inkscape:connector-curvature="0"/><path id="path270" style="fill:#5fccf5;fill-opacity:1;fill-rule:nonzero;stroke:none" d="m 486.47543,192.65142 c -0.34304,0 -0.61913,-0.555 -0.61913,-1.23825 0,-0.68607 0.27609,-1.23826 0.61913,-1.23826 h 6.40603 c 0.34022,0 0.61355,0.55219 0.61355,1.23826 0,0.68325 -0.27333,1.23825 -0.61355,1.23825" inkscape:connector-curvature="0"/><path id="path272" style="fill:#e8ebf8;fill-opacity:1;fill-rule:nonzero;stroke:none" d="m 538.61048,192.65142 h -17.05113 c -0.4518,0 -0.81713,-0.36534 -0.81713,-0.81714 v -0.84503 c 0,-0.44901 0.36533,-0.81434 0.81713,-0.81434 h 17.05113 c 0.4518,0 0.81715,0.36533 0.81715,0.81434 v 0.84503 c 0,0.4518 -0.36535,0.81714 -0.81715,0.81714" inkscape:connector-curvature="0"/><path id="path274" style="fill:#fabd41;fill-opacity:1;fill-rule:nonzero;stroke:none" d="m 511.08718,192.65142 h -15.19097 c -0.34025,0 -0.61912,-0.555 -0.61912,-1.23825 0,-0.68607 0.27887,-1.23826 0.61912,-1.23826 h 15.19097 c 0.34022,0 0.61632,0.55219 0.61632,1.23826 0,0.68325 -0.2761,1.23825 -0.61632,1.23825" inkscape:connector-curvature="0"/><path id="path276" style="fill:#fabd41;fill-opacity:1;fill-rule:nonzero;stroke:none" d="m 519.1721,192.65142 h -6.02674 c -0.34025,0 -0.61357,-0.555 -0.61357,-1.23825 0,-0.68607 0.27332,-1.23826 0.61357,-1.23826 h 6.02674 c 0.34023,0 0.61633,0.55219 0.61633,1.23826 0,0.68325 -0.2761,1.23825 -0.61633,1.23825" inkscape:connector-curvature="0"/><path id="path278" style="fill:#e8ebf8;fill-opacity:1;fill-rule:nonzero;stroke:none" d="m 532.53913,217.34403 h -36.64292 c -0.34025,0 -0.61912,-0.55498 -0.61912,-1.23825 0,-0.68329 0.27887,-1.23825 0.61912,-1.23825 h 36.64292 c 0.34304,0 0.61633,0.55496 0.61633,1.23825 0,0.68327 -0.27329,1.23825 -0.61633,1.23825" inkscape:connector-curvature="0"/><path id="path280" style="fill:#e8ebf8;fill-opacity:1;fill-rule:nonzero;stroke:none" d="m 507.58435,222.46439 h -11.68814 c -0.34025,0 -0.61912,-0.55497 -0.61912,-1.23826 0,-0.68606 0.27887,-1.23825 0.61912,-1.23825 h 11.68814 c 0.34025,0 0.61913,0.55219 0.61913,1.23825 0,0.68329 -0.27888,1.23826 -0.61913,1.23826" inkscape:connector-curvature="0"/><path id="path282" style="fill:#e8ebf8;fill-opacity:1;fill-rule:nonzero;stroke:none" d="m 526.8108,222.46439 h -16.84475 c -0.34025,0 -0.61912,-0.55497 -0.61912,-1.23826 0,-0.68606 0.27887,-1.23825 0.61912,-1.23825 h 16.84475 c 0.34025,0 0.61634,0.55219 0.61634,1.23825 0,0.68329 -0.27609,1.23826 -0.61634,1.23826" inkscape:connector-curvature="0"/><path id="path284" style="fill:#e8ebf8;fill-opacity:1;fill-rule:nonzero;stroke:none" d="m 532.53913,247.39127 h -36.64292 c -0.34025,0 -0.61912,-0.5522 -0.61912,-1.23826 0,-0.68326 0.27887,-1.23825 0.61912,-1.23825 h 36.64292 c 0.34304,0 0.61633,0.55499 0.61633,1.23825 0,0.68606 -0.27329,1.23826 -0.61633,1.23826" inkscape:connector-curvature="0"/><path id="path286" style="fill:#f030a2;fill-opacity:1;fill-rule:nonzero;stroke:none" d="m 492.88146,252.51164 h -6.40603 c -0.34304,0 -0.61913,-0.55221 -0.61913,-1.23827 0,-0.68326 0.27609,-1.23826 0.61913,-1.23826 h 6.40603 c 0.34022,0 0.61355,0.555 0.61355,1.23826 0,0.68606 -0.27333,1.23827 -0.61355,1.23827" inkscape:connector-curvature="0"/><path id="path288" style="fill:#5fccf5;fill-opacity:1;fill-rule:nonzero;stroke:none" d="m 507.58435,252.51164 h -11.68814 c -0.34025,0 -0.61912,-0.55221 -0.61912,-1.23827 0,-0.68326 0.27887,-1.23826 0.61912,-1.23826 h 11.68814 c 0.34025,0 0.61913,0.555 0.61913,1.23826 0,0.68606 -0.27888,1.23827 -0.61913,1.23827" inkscape:connector-curvature="0"/><path id="path290" style="fill:#e8ebf8;fill-opacity:1;fill-rule:nonzero;stroke:none" d="m 526.8108,252.51164 h -16.84475 c -0.34025,0 -0.61912,-0.55221 -0.61912,-1.23827 0,-0.68326 0.27887,-1.23826 0.61912,-1.23826 h 16.84475 c 0.34025,0 0.61634,0.555 0.61634,1.23826 0,0.68606 -0.27609,1.23827 -0.61634,1.23827" inkscape:connector-curvature="0"/><path id="path292" style="fill:#f030a2;fill-opacity:1;fill-rule:nonzero;stroke:none" d="m 492.88146,227.58474 h -6.40603 c -0.34304,0 -0.61913,-0.55496 -0.61913,-1.23825 0,-0.68606 0.27609,-1.23826 0.61913,-1.23826 h 6.40603 c 0.34022,0 0.61355,0.5522 0.61355,1.23826 0,0.68329 -0.27333,1.23825 -0.61355,1.23825" inkscape:connector-curvature="0"/><path id="path294" style="fill:#f030a2;fill-opacity:1;fill-rule:nonzero;stroke:none" d="M 528.60683,227.58474 H 496.0245 c -0.41275,0 -0.74741,-0.33466 -0.74741,-0.74462 v -0.98725 c 0,-0.41275 0.33466,-0.74464 0.74741,-0.74464 h 32.58233 c 0.41274,0 0.74742,0.33189 0.74742,0.74464 v 0.98725 c 0,0.40996 -0.33468,0.74462 -0.74742,0.74462" inkscape:connector-curvature="0"/><path id="path296" style="fill:#e8ebf8;fill-opacity:1;fill-rule:nonzero;stroke:none" d="m 492.88146,232.70511 h -6.40603 c -0.34304,0 -0.61913,-0.55498 -0.61913,-1.24104 0,-0.68327 0.27609,-1.23548 0.61913,-1.23548 h 6.40603 c 0.34022,0 0.61355,0.55221 0.61355,1.23548 0,0.68606 -0.27333,1.24104 -0.61355,1.24104" inkscape:connector-curvature="0"/><path id="path298" style="fill:#e8ebf8;fill-opacity:1;fill-rule:nonzero;stroke:none" d="m 511.08718,232.70511 h -15.19097 c -0.34025,0 -0.61912,-0.55498 -0.61912,-1.24104 0,-0.68327 0.27887,-1.23548 0.61912,-1.23548 h 15.19097 c 0.34022,0 0.61632,0.55221 0.61632,1.23548 0,0.68606 -0.2761,1.24104 -0.61632,1.24104" inkscape:connector-curvature="0"/><path id="path300" style="fill:#e8ebf8;fill-opacity:1;fill-rule:nonzero;stroke:none" d="m 519.1721,232.70511 h -6.02674 c -0.34025,0 -0.61357,-0.55498 -0.61357,-1.24104 0,-0.68327 0.27332,-1.23548 0.61357,-1.23548 h 6.02674 c 0.34023,0 0.61633,0.55221 0.61633,1.23548 0,0.68606 -0.2761,1.24104 -0.61633,1.24104" inkscape:connector-curvature="0"/><path id="path302" style="fill:#e8ebf8;fill-opacity:1;fill-rule:nonzero;stroke:none" d="m 492.88146,237.65255 h -6.40603 c -0.34304,0 -0.61913,-0.55498 -0.61913,-1.23825 0,-0.68326 0.27609,-1.23827 0.61913,-1.23827 h 6.40603 c 0.34022,0 0.61355,0.55501 0.61355,1.23827 0,0.68327 -0.27333,1.23825 -0.61355,1.23825" inkscape:connector-curvature="0"/><path id="path304" style="fill:#e8ebf8;fill-opacity:1;fill-rule:nonzero;stroke:none" d="m 537.34992,237.65255 h -41.23617 c -0.46017,0 -0.83666,-0.3737 -0.83666,-0.83386 v -0.80599 c 0,-0.46295 0.37649,-0.83667 0.83666,-0.83667 h 41.23617 c 0.46295,0 0.83667,0.37372 0.83667,0.83667 v 0.80599 c 0,0.46016 -0.37372,0.83386 -0.83667,0.83386" inkscape:connector-curvature="0"/><path id="path306" style="fill:#e8ebf8;fill-opacity:1;fill-rule:nonzero;stroke:none" d="m 492.88146,257.25271 h -6.40603 c -0.34304,0 -0.61913,-0.55498 -0.61913,-1.23826 0,-0.68328 0.27609,-1.23825 0.61913,-1.23825 h 6.40603 c 0.34022,0 0.61355,0.55497 0.61355,1.23825 0,0.68328 -0.27333,1.23826 -0.61355,1.23826" inkscape:connector-curvature="0"/><path id="path308" style="fill:#e8ebf8;fill-opacity:1;fill-rule:nonzero;stroke:none" d="m 541.58062,257.25271 h -20.21926 c -0.34025,0 -0.61914,-0.55498 -0.61914,-1.23826 0,-0.68328 0.27889,-1.23825 0.61914,-1.23825 h 20.21926 c 0.34025,0 0.61357,0.55497 0.61357,1.23825 0,0.68328 -0.27332,1.23826 -0.61357,1.23826" inkscape:connector-curvature="0"/><path id="path310" style="fill:#e8ebf8;fill-opacity:1;fill-rule:nonzero;stroke:none" d="m 511.08718,257.25271 h -15.19097 c -0.34025,0 -0.61912,-0.55498 -0.61912,-1.23826 0,-0.68328 0.27887,-1.23825 0.61912,-1.23825 h 15.19097 c 0.34022,0 0.61632,0.55497 0.61632,1.23825 0,0.68328 -0.2761,1.23826 -0.61632,1.23826" inkscape:connector-curvature="0"/><path id="path312" style="fill:#e8ebf8;fill-opacity:1;fill-rule:nonzero;stroke:none" d="m 519.1721,257.25271 h -6.02674 c -0.34025,0 -0.61357,-0.55498 -0.61357,-1.23826 0,-0.68328 0.27332,-1.23825 0.61357,-1.23825 h 6.02674 c 0.34023,0 0.61633,0.55497 0.61633,1.23825 0,0.68328 -0.2761,1.23826 -0.61633,1.23826" inkscape:connector-curvature="0"/><path id="path314" style="fill:#fabd41;fill-opacity:1;fill-rule:nonzero;stroke:none" d="m 522.94542,262.20295 h -26.98786 c -0.37369,0 -0.68047,-0.304 -0.68047,-0.67769 v -1.12113 c 0,-0.37371 0.30678,-0.67769 0.68047,-0.67769 h 26.98786 c 0.37372,0 0.6777,0.30398 0.6777,0.67769 v 1.12113 c 0,0.37369 -0.30398,0.67769 -0.6777,0.67769" inkscape:connector-curvature="0"/><path id="path316" style="fill:#f030a2;fill-opacity:1;fill-rule:nonzero;stroke:none" d="m 539.68699,242.77291 h -18.10532 c -0.46294,0 -0.83945,-0.3765 -0.83945,-0.83944 v -0.79761 c 0,-0.46297 0.37651,-0.83946 0.83945,-0.83946 h 18.10532 c 0.46295,0 0.83944,0.37649 0.83944,0.83946 v 0.79761 c 0,0.46294 -0.37649,0.83944 -0.83944,0.83944" inkscape:connector-curvature="0"/><path id="path318" style="fill:#fabd41;fill-opacity:1;fill-rule:nonzero;stroke:none" d="m 511.08718,242.77291 h -15.19097 c -0.34025,0 -0.61912,-0.55498 -0.61912,-1.23826 0,-0.68325 0.27887,-1.23825 0.61912,-1.23825 h 15.19097 c 0.34022,0 0.61632,0.555 0.61632,1.23825 0,0.68328 -0.2761,1.23826 -0.61632,1.23826" inkscape:connector-curvature="0"/><path id="path320" style="fill:#fabd41;fill-opacity:1;fill-rule:nonzero;stroke:none" d="m 519.1721,242.77291 h -6.02674 c -0.34025,0 -0.61357,-0.55498 -0.61357,-1.23826 0,-0.68325 0.27332,-1.23825 0.61357,-1.23825 h 6.02674 c 0.34023,0 0.61633,0.555 0.61633,1.23825 0,0.68328 -0.2761,1.23826 -0.61633,1.23826" inkscape:connector-curvature="0"/><path id="path322" style="fill:#fabc29;fill-opacity:1;fill-rule:nonzero;stroke:none" d="m 580.03631,153.12481 c 0,11.17778 -9.06382,20.23879 -20.2416,20.23879 -11.18056,0 -20.24436,-9.06101 -20.24436,-20.23879 0,-11.18056 9.0638,-20.2416 20.24436,-20.2416 11.17778,0 20.2416,9.06104 20.2416,20.2416" inkscape:connector-curvature="0"/><path id="path324" style="fill:#fbfdfe;fill-opacity:1;fill-rule:nonzero;stroke:none" d="m 558.32777,151.22559 -8.0403,2.94505 8.0403,2.91994 v 3.02034 l -11.4957,-4.37016 v -3.14025 l 11.4957,-4.36736 v 2.99244" inkscape:connector-curvature="0"/><path id="path326" style="fill:#fbfdfe;fill-opacity:1;fill-rule:nonzero;stroke:none" d="m 560.9521,148.23315 11.4929,4.36736 v 3.14025 l -11.4929,4.37016 v -3.02034 l 8.0403,-2.91994 -8.0403,-2.94505 v -2.99244" inkscape:connector-curvature="0"/><path id="path332" style="fill:#84b6e5;fill-opacity:1;fill-rule:nonzero;stroke:none" d="M 286.28227,85.291217 H 148.5346 c -11.18895,0 -20.25834,9.069395 -20.25834,20.255533 0,11.18893 9.06939,20.25832 20.25834,20.25832 h 10.12914 l 9.79173,9.78893 9.78891,-9.78893 h 108.03789 c 11.18614,0 20.25553,-9.06939 20.25553,-20.25832 0,-11.186138 -9.06939,-20.255533 -20.25553,-20.255533" inkscape:connector-curvature="0"/><path id="path334" style="fill:#ffffff;fill-opacity:1;fill-rule:nonzero;stroke:none" d="m 246.86723,112.00577 h -90.64095 c -1.25221,0 -2.26735,-1.01516 -2.26735,-2.26735 0,-1.24942 1.01514,-2.26457 2.26735,-2.26457 h 90.64095 c 1.2494,0 2.26453,1.01515 2.26453,2.26457 0,1.25219 -1.01513,2.26735 -2.26453,2.26735" inkscape:connector-curvature="0"/><path id="path336" style="fill:#ffffff;fill-opacity:1;fill-rule:nonzero;stroke:none" d="m 218.5407,99.542316 h -62.31442 c -1.25221,0 -2.26735,-1.015128 -2.26735,-2.264565 0,-1.252178 1.01514,-2.267337 2.26735,-2.267337 h 62.31442 c 1.25221,0 2.26456,1.015159 2.26456,2.267337 0,1.249437 -1.01235,2.264565 -2.26456,2.264565" inkscape:connector-curvature="0"/><path id="path338" style="fill:#f6ce9b;fill-opacity:1;fill-rule:nonzero;stroke:none" d="m 503.83611,371.25876 c 0,0 -1.68446,5.00044 -2.61596,8.02357 0,0 8.26065,-0.17299 11.16663,-4.01039 l -3.08168,-7.38771 -5.46899,3.37453" inkscape:connector-curvature="0"/><path id="path340" style="fill:#f68965;fill-opacity:1;fill-rule:nonzero;stroke:none" d="m 502.59509,509.17099 0.70834,3.14303 4.5598,0.25659 -0.96494,-3.85142 -4.3032,0.4518" inkscape:connector-curvature="0"/><path id="path342" style="fill:#5149a7;fill-opacity:1;fill-rule:nonzero;stroke:none" d="m 503.30343,512.31402 c 0,0 -7.64148,3.9825 -7.58013,4.23908 0.067,0.25937 12.90966,-1.09323 12.90966,-1.09323 l -0.76973,-2.88926 -4.5598,-0.25659" inkscape:connector-curvature="0"/><path id="path344" style="fill:#f68965;fill-opacity:1;fill-rule:nonzero;stroke:none" d="m 541.13441,502.8291 1.78768,2.68288 4.34782,-1.40279 -2.28687,-3.24623 -3.84863,1.96614" inkscape:connector-curvature="0"/><path id="path346" style="fill:#5149a7;fill-opacity:1;fill-rule:nonzero;stroke:none" d="m 542.92209,505.51198 -5.54428,6.68213 11.6519,-5.66697 -1.7598,-2.41795 -4.34782,1.40279" inkscape:connector-curvature="0"/><path id="path348" style="fill:#fabc29;fill-opacity:1;fill-rule:nonzero;stroke:none" d="m 494.11972,426.00141 c 0,0 -13.09932,42.77283 7.70841,84.00065 h 6.16341 c 0,0 -12.32959,-46.62147 3.08168,-84.38273 l -16.9535,0.38208" inkscape:connector-curvature="0"/><path id="path350" style="fill:#fabc29;fill-opacity:1;fill-rule:nonzero;stroke:none" d="m 505.49271,427.51576 c 0,0 2.03307,44.68601 35.48274,76.52928 l 5.80642,-2.07214 c 0,0 -27.2779,-39.772 -25.44842,-80.51733 l -15.84074,6.06019" inkscape:connector-curvature="0"/><path id="path352" style="fill:#f68965;fill-opacity:1;fill-rule:nonzero;stroke:none" d="m 499.49385,326.82934 0.0167,-2.63829 -0.0445,-0.34302 -0.50199,-1.88527 -1.50599,0.38209 -1.52831,-1.41676 c -0.64982,-0.59403 -1.69005,-0.3988 -2.06377,0.39604 -0.47409,1.00118 -1.01236,2.29521 -1.18247,3.28248 -0.067,0.39044 0.0643,0.78645 0.33189,1.08207 l 2.34264,2.56298 c 0.33745,0.36814 0.8534,0.51314 1.33308,0.37091 l 1.86852,-0.55219 c 0.5522,-0.16461 0.93151,-0.66655 0.93428,-1.24104" inkscape:connector-curvature="0"/><path id="path354" style="fill:#ef316f;fill-opacity:1;fill-rule:nonzero;stroke:none" d="m 522.09204,384.66763 c 0,0 -17.08739,-18.3117 -18.21131,-25.16672 -1.12669,-6.85225 -3.62551,-32.35085 -3.62551,-32.35085 l -5.26818,1.01794 c 0,0 -1.80996,36.46719 -0.21194,40.66722 1.60359,4.20003 11.87498,25.60461 18.56825,27.57912 6.69049,1.9773 11.39252,-4.62116 8.74869,-11.74671" inkscape:connector-curvature="0"/><path id="path356" style="fill:#f68965;fill-opacity:1;fill-rule:nonzero;stroke:none" d="m 498.35878,354.46141 c 0,0 -3.85421,12.82322 -1.41395,16.0555 2.44303,3.23232 11.42876,0.30401 14.91764,-4.86656 3.48886,-5.17335 4.18888,-16.81408 -1.74304,-17.78181 -5.93192,-0.97054 -10.36344,1.41953 -11.76065,6.59287" inkscape:connector-curvature="0"/><path id="path358" style="fill:#ef316f;fill-opacity:1;fill-rule:nonzero;stroke:none" d="m 521.4785,429.47078 c 0,0 3.46654,-36.98874 3.46654,-47.00915 0,-0.45738 -0.009,-0.88686 -0.0151,-1.31914 -2.57969,-6.51478 -8.98292,-6.38649 -11.5459,-5.87335 -2.56856,0.51316 -12.58616,3.72594 -12.522,4.1108 l -0.0279,-0.0335 c -3.44982,2.50439 -6.08809,5.47732 -6.33072,6.19685 0,0 -9.2479,19.26827 -1.15458,42.38799 l 28.12851,1.53945" inkscape:connector-curvature="0"/><path id="path360" style="fill:#f68965;fill-opacity:1;fill-rule:nonzero;stroke:none" d="m 472.50599,328.71739 -0.449,-2.59643 -0.10318,-0.32907 -0.82549,-1.77095 -1.41117,0.64146 -1.75976,-1.12394 c -0.73906,-0.47408 -1.72911,-0.0977 -1.96059,0.753 -0.28725,1.06815 -0.59403,2.43748 -0.58566,3.43588 0.002,0.39883 0.19808,0.76415 0.51595,1.00399 l 2.75539,2.11397 c 0.39881,0.30677 0.93149,0.35697 1.3777,0.13379 l 1.74304,-0.87292 c 0.51595,-0.25657 0.80041,-0.81993 0.70278,-1.38885" inkscape:connector-curvature="0"/><path id="path362" style="fill:#ef316f;fill-opacity:1;fill-rule:nonzero;stroke:none" d="m 504.90704,381.69191 c 0,0 -20.03522,-15.02642 -22.34441,-21.58024 -2.31473,-6.54826 -9.25064,-31.21021 -9.25064,-31.21021 l -5.00882,1.92712 c 0,0 4.62395,36.22179 6.93591,40.0732 2.31197,3.85422 16.18379,23.11971 23.1197,23.89222 6.93591,0.76973 10.40249,-6.55382 6.54826,-13.10209" inkscape:connector-curvature="0"/><path id="path364" style="fill:#5149a7;fill-opacity:1;fill-rule:nonzero;stroke:none" d="m 512.61546,347.78208 c 0,0 -10.27697,-4.36458 -15.15747,4.62674 -2.56854,5.65023 5.65302,0.25378 7.19247,2.05259 1.54225,1.79883 -2.05537,5.39645 -1.02629,6.67934 1.02629,1.28288 2.82511,-2.31197 3.8542,-0.25658 1.02631,2.05541 -1.54224,2.31198 -3.34105,4.62395 -1.79883,2.31196 1.54223,5.65025 -1.02631,7.70843 -2.56855,2.05259 -9.76102,3.59485 -5.39646,14.64154 4.37016,11.04391 -7.19247,13.86903 -2.30918,29.02652 4.88053,15.15471 38.01781,23.63285 44.18401,5.65024 6.16339,-17.97982 -14.38497,-22.34997 -13.10211,-30.31218 1.28568,-7.96222 5.90963,-10.01762 -0.25655,-17.97981 -6.16618,-7.96501 -10.0204,-12.58896 -8.2188,-17.72604 1.79603,-5.13989 -3.08447,-8.73474 -5.39646,-8.73474" inkscape:connector-curvature="0"/><path id="path368" style="fill:#fbfdfe;fill-opacity:1;fill-rule:nonzero;stroke:none" d="m 212.51954,464.86985 -1.29124,-2.58809 35.0142,-17.5057 44.17565,0.72231 47.9657,-18.06628 h 36.63454 l 39.11384,-13.04073 0.32073,0.0362 31.36916,3.56417 17.68141,-9.19489 1.33309,2.56574 -18.46229,9.60208 -0.44066,-0.0502 -31.48907,-3.57812 -39.19195,12.98496 h -36.60384 l -47.72307,18.08022 -0.27612,-0.006 -43.74336,-0.71675 -34.38672,17.19058" inkscape:connector-curvature="0"/><path id="path370" style="fill:#5149a7;fill-opacity:1;fill-rule:nonzero;stroke:none" d="m 341.03607,395.49958 c 0,0 34.69906,56.20124 30.35957,95.30114 l 23.61614,0.48525 -10.12081,-5.8622 2.89206,-0.49083 c 0,0 -8.67616,-60.59926 -16.86984,-82.10423 -8.58135,-22.52287 -11.08297,-14.17301 -11.08297,-14.17301 l -18.79415,6.84388" inkscape:connector-curvature="0"/><path id="path372" style="fill:#5149a7;fill-opacity:1;fill-rule:nonzero;stroke:none" d="m 328.5029,392.00793 c 0,0 1.92991,39.03855 -0.96215,53.97571 -2.89207,14.94273 -11.56823,44.34018 -11.56823,44.34018 l 22.1687,0.48248 -5.82037,-4.11081 -3.69803,-2.153 c 0,0 15.78499,-42.41306 17.22963,-62.65187 1.44741,-20.24438 3.85699,-31.8126 3.85699,-31.8126 l -21.20654,1.92991" inkscape:connector-curvature="0"/><path id="path374" style="fill:#f6ce9b;fill-opacity:1;fill-rule:nonzero;stroke:none" d="m 373.86659,276.46242 3.61438,-2.5295 1.6259,-5.96539 -1.80719,-0.35976 -1.08207,2.16695 1.08207,-10.29928 -1.80717,0.35976 -1.80441,9.93952 -2.17251,4.69923 1.98845,1.26616" inkscape:connector-curvature="0"/><path id="path376" style="fill:#f6ce9b;fill-opacity:1;fill-rule:nonzero;stroke:none" d="m 395.25162,287.18562 0.48246,-4.3367 5.30165,-5.30163 1.20478,1.68725 -1.9299,2.16976 10.12081,-2.41239 v 2.16976 l -9.39569,3.61437 -1.9271,3.37451 -3.85701,-0.96493" inkscape:connector-curvature="0"/><path id="path378" style="fill:#84b6e5;fill-opacity:1;fill-rule:nonzero;stroke:none" d="m 371.3594,272.81737 c 0,0 -41.15808,49.9458 -45.95214,59.93552 0,0 -1.99962,3.59484 -1.99962,13.98337 0,10.39131 3.59764,48.74938 3.59764,48.74938 l 41.95569,2.39563 c 0,0 -13.58734,-46.74696 -13.98337,-47.94619 -0.4016,-1.1992 -7.19527,-8.39169 -13.59014,-9.98971 l 35.16481,-63.53315 -5.19287,-3.59485" inkscape:connector-curvature="0"/><path id="path380" style="fill:#f6ce9b;fill-opacity:1;fill-rule:nonzero;stroke:none" d="m 345.29745,335.11784 c 0,0 1.74862,5.19009 2.71077,8.32477 0,0 -8.5618,-0.18135 -11.57657,-4.16099 l 3.19883,-7.66103 5.66697,3.49725" inkscape:connector-curvature="0"/><path id="path382" style="fill:#f6ce9b;fill-opacity:1;fill-rule:nonzero;stroke:none" d="m 351.80946,318.90895 c 0,0 2.53228,14.7531 0,18.10253 -2.5323,3.35221 -11.21682,-2.34544 -14.83678,-7.71121 -3.61437,-5.36021 -4.33946,-17.43321 1.81277,-18.43721 6.14945,-1.00399 11.5766,2.68291 13.02401,8.04589" inkscape:connector-curvature="0"/><path id="path384" style="fill:#84b6e5;fill-opacity:1;fill-rule:nonzero;stroke:none" d="m 347.91619,346.21475 c 0,0 32.99509,-20.75475 35.65566,-25.01335 2.66336,-4.25581 10.11242,-35.92336 10.11242,-35.92336 l 6.38652,1.59802 c 0,0 -3.72315,35.39068 -4.7885,39.11662 -1.06534,3.72592 -33.53052,38.31622 -40.98238,38.31622 -7.44906,0 -10.10963,-9.57695 -6.38372,-18.09415" inkscape:connector-curvature="0"/><path id="path386" style="fill:#5149a7;fill-opacity:1;fill-rule:nonzero;stroke:none" d="m 349.4696,315.62088 c 0,0 1.68447,-5.7841 -1.9271,-8.67616 -3.61438,-2.88926 -9.88096,-2.40679 -10.84592,-1.44464 0,1.68727 3.85701,2.64942 2.89207,3.61437 -0.96495,0.96496 -6.02395,0 -7.22875,5.06179 -1.20479,5.05901 0.48248,6.02395 0.48248,6.02395 0,0 -2.65221,3.13192 0.47969,7.46859 3.13469,4.33669 10.21283,7.91202 11.97538,7.44906 1.76257,-0.46295 0.79763,-7.20921 0.79763,-7.20921 0,0 -4.09685,-0.4797 -4.33949,-3.13191 -0.23984,-2.64941 1.9299,-2.89204 2.89206,-1.92709 0.96495,0.96493 1.2048,3.13189 1.92989,2.64942 0.72232,-0.48248 -0.24264,-5.54148 -0.24264,-5.54148 0,0 2.65221,-2.16696 3.1347,-4.33669" inkscape:connector-curvature="0"/><path id="path396" style="fill:#fabc29;fill-opacity:1;fill-rule:nonzero;stroke:none" d="m 250.91107,445.50117 c 0,2.53228 -2.04981,4.57931 -4.57931,4.57931 -2.52952,0 -4.57652,-2.04703 -4.57652,-4.57931 0,-2.52671 2.047,-4.57652 4.57652,-4.57652 2.5295,0 4.57931,2.04981 4.57931,4.57652" inkscape:connector-curvature="0"/><path id="path398" style="fill:#ef316f;fill-opacity:1;fill-rule:nonzero;stroke:none" d="m 419.11035,416.10373 c 0,2.52949 -2.05259,4.57931 -4.57931,4.57931 -2.52949,0 -4.57931,-2.04982 -4.57931,-4.57931 0,-2.52671 2.04982,-4.57653 4.57931,-4.57653 2.52672,0 4.57931,2.04982 4.57931,4.57653" inkscape:connector-curvature="0"/><g id="g9607" transform="matrix(0.17733925,0,0,-0.17733925,-467.157,698.75466)"><g id="g3152" transform="translate(4206.6862,-53.931875)"><g id="g3154" clip-path="url(#clipPath3158)"><path inkscape:connector-curvature="0" d="m 1300.06,629.801 v 0 l -248.04,143.23 9.55,5.559 0.04,-0.02 248,-143.218 -9.55,-5.551" style="fill:url(#radialGradient9555);fill-opacity:1;fill-rule:nonzero;stroke:none" id="path3166"/></g></g><path inkscape:connector-curvature="0" d="m 5674.0962,595.85712 c 0.06,-8.488 -5.56,-17.008 -16.73,-23.5 l -115.72,-66.777 -0.04,26.5 c 0,4.457 -2.81,8.847 -8.26,12.41 l 40.42,23.348 c 4.43,2.562 6.67,5.949 6.67,9.371 l -0.16,54.32 c 0,3.348 -2.17,6.719 -6.57,9.269 l -449.247,261.051 c -8.835,5.168 -23.339,5.129 -32.148,0 l -106.687,-61.582 c -0.032,7.84 -0.032,15.59 -0.059,22.34 0,1.85901 -1.262,3.742 -3.676,5.10901 -4.937,2.922 -12.937,2.922 -17.879,0.051 l -76.269,-44.01901 c -2.52,-1.481 -3.758,-3.371 -3.758,-5.25 l 0.105,-36.84 -55.625,-32.149 c -4.492,-2.57 -6.699,-5.941 -6.699,-9.39 l 0.078,-32.5 -47.312,27.519 c -10.981,6.36 -16.426,14.762 -16.465,23.141 0.066,-18.16 0.105,-36.262 0.137,-54.383 0.066,-8.379 5.547,-16.789 16.511,-23.137 l 540.283,-314.03099 c 22.14,-12.84 58.37,-12.808 80.56,0 l 261.96,151.27 c 11.21,6.468 16.76,14.98 16.76,23.519 -0.06,18.11 -0.12,36.211 -0.18,54.34" style="fill:#bbbabb;fill-opacity:1;fill-rule:nonzero;stroke:none" id="path5478"/><path inkscape:connector-curvature="0" d="m 5573.7062,640.79813 -449.247,261.05099 c -8.835,5.168 -23.339,5.129 -32.148,0 l -263.848,-152.33999 c -8.886,-5.101 -8.945,-13.461 -0.175,-18.601 l 449.328,-261.07001 c 8.83,-5.14099 23.21,-5.14099 32.15,0 l 263.86,152.312 c 8.81,5.14801 8.9,13.5 0.08,18.64801" style="fill:#8fd6f4;fill-opacity:1;fill-rule:nonzero;stroke:none" id="path5480"/><path inkscape:connector-curvature="0" d="m 5485.5662,545.38813 c 12.88,7.41 33.68,7.5 46.51,0.039 12.78,-7.48801 12.68,-19.539 -0.19,-26.961 l -47.54,-27.437 c -12.93,-7.40201 -33.7,-7.473 -46.53,-0.051 -12.8,7.46901 -12.66,19.539 0.24,26.961 l 47.51,27.449" style="fill:#9eb5ce;fill-opacity:1;fill-rule:nonzero;stroke:none" id="path5482"/><path inkscape:connector-curvature="0" d="m 4887.7412,823.74812 c -5,-2.918 -5,-7.551 -0.098,-10.442 4.91,-2.789 12.91,-2.789 17.922,0.082 l 76.297,44.051 c 4.89,2.789 4.941,7.461 0.027,10.27701 -4.937,2.922 -12.937,2.922 -17.879,0.051 z m 644.145,-305.28199 c 12.87,7.422 12.97,19.47299 0.19,26.961 -12.83,7.461 -33.63,7.371 -46.51,-0.039 l -47.51,-27.449 c -12.9,-7.422 -13.04,-19.492 -0.24,-26.961 12.83,-7.422 33.6,-7.351 46.53,0.051 z m 41.82,122.332 -449.247,261.05099 c -8.835,5.168 -23.339,5.129 -32.148,0 l -263.848,-152.33999 c -8.886,-5.101 -8.945,-13.461 -0.175,-18.601 l 449.328,-261.07001 c 8.83,-5.14099 23.21,-5.14099 32.15,0 l 263.86,152.312 c 8.81,5.14801 8.9,13.5 0.08,18.64801 z m -536.942,292.211 c 22.235,12.82899 58.457,12.82899 80.547,0 l 540.315,-314 c 22.13,-12.83901 21.95,-33.812 -0.26,-46.65201 l -261.99,-151.277 c -22.23,-12.78199 -58.4,-12.81299 -80.55,0.019 l -540.296,314.039 c -22.043,12.821 -21.946,33.84 0.222,46.629 l 262.012,151.242" style="fill:#fafbfe;fill-opacity:1;fill-rule:nonzero;stroke:none" id="path5484"/><path inkscape:connector-curvature="0" d="m 4964.0102,867.76712 c 4.942,2.871 12.942,2.871 17.879,-0.051 4.914,-2.816 4.863,-7.488 -0.027,-10.277 l -76.297,-44.05099 c -5.012,-2.871 -13.012,-2.871 -17.922,-0.082 -4.902,2.891 -4.902,7.524 0.098,10.442 l 76.269,44.019" style="fill:#9eb5ce;fill-opacity:1;fill-rule:nonzero;stroke:none" id="path5486"/></g><ellipse transform="matrix(0.6617176,0,0,0.6617176,480.41354,160.38184)" style="fill:none" sodipodi:ry="24.4" sodipodi:rx="40.099998" sodipodi:cy="382.39999" sodipodi:cx="218.8" id="ellipse26059" ry="24.4" rx="40.099998" cy="382.39999" cx="218.8" class="st0"/><g id="g28066" transform="matrix(0.66941768,0,0,0.64398811,139.0816,-15.939499)"><path inkscape:connector-curvature="0" d="m 447.8608,494.42624 c 0,12.12878 -9.83076,21.95675 -21.95677,21.95675 -12.12598,0 -21.95674,-9.82797 -21.95674,-21.95675 0,-12.1232 9.83076,-21.95674 21.95674,-21.95674 12.12601,0 21.95677,9.83354 21.95677,21.95674" style="fill:#fabc29;fill-opacity:1;fill-rule:nonzero;stroke:none" id="path328"/><path inkscape:connector-curvature="0" d="m 422.959,494.94777 c 0,1.99681 0.81436,2.99524 2.44026,2.99524 0.85061,0 1.5004,-0.3012 1.94664,-0.90082 0.44343,-0.60239 0.71394,-1.5785 0.80876,-2.93388 l 0.18406,-3.13748 c -0.48246,-0.10318 -1.02629,-0.15625 -1.63428,-0.15625 -1.18246,0 -2.10279,0.36813 -2.76097,1.10718 -0.65537,0.73903 -0.98447,1.74583 -0.98447,3.02591 z m 14.53836,-1.77653 c 0,1.36376 -0.21753,2.61038 -0.65259,3.74267 -0.43507,1.1295 -1.05142,2.01914 -1.84624,2.66058 -0.79483,0.64701 -1.71794,0.96773 -2.76935,0.96773 -0.69998,0 -1.31911,-0.17005 -1.86016,-0.50478 -0.54105,-0.33745 -0.92591,-0.7781 -1.16296,-1.3275 h -0.22867 c -1.02074,1.21874 -2.32315,1.83228 -3.90442,1.83228 -1.67333,0 -2.99525,-0.50478 -3.963,-1.51156 -0.96216,-1.00957 -1.44742,-2.39005 -1.44742,-4.14146 0,-1.99684 0.63309,-3.606 1.90202,-4.82753 1.27173,-1.21873 2.92551,-1.82951 4.97255,-1.82951 0.81434,0 1.70957,0.0753 2.69126,0.23427 0.97609,0.15332 1.78487,0.34304 2.42073,0.56057 l -0.32629,6.94148 c 0,1.31635 0.35697,1.97453 1.0765,1.97453 0.60517,0 1.08765,-0.44343 1.4502,-1.32751 0.35977,-0.88685 0.53824,-2.04423 0.53824,-3.47493 0,-1.51992 -0.31793,-2.86695 -0.95379,-4.03828 -0.63027,-1.16854 -1.5255,-2.05818 -2.6745,-2.67453 -1.15181,-0.61354 -2.46258,-0.92311 -3.94068,-0.92311 -1.91039,0 -3.57253,0.39324 -4.9837,1.17692 -1.41118,0.78646 -2.49046,1.92151 -3.24346,3.40239 -0.7502,1.4809 -1.12949,3.19048 -1.12949,5.13431 0,2.61039 0.70001,4.61559 2.09445,6.01281 1.39723,1.39441 3.41914,2.09443 6.07134,2.09443 1.00122,0 2.10282,-0.11152 3.30762,-0.33466 1.20198,-0.22313 2.38727,-0.54942 3.55022,-0.97331 v 2.72752 c -2.0275,0.85895 -4.27534,1.29124 -6.74348,1.29124 -3.59764,0 -6.40324,-0.94543 -8.41402,-2.83907 -2.01355,-1.89366 -3.01754,-4.52632 -3.01754,-7.89529 0,-2.33705 0.51592,-4.46217 1.54223,-6.36697 1.02631,-1.91038 2.48766,-3.40521 4.38689,-4.49009 1.89643,-1.08206 4.08012,-1.62589 6.55385,-1.62589 2.08047,0 3.94066,0.42947 5.57772,1.28008 1.63706,0.85061 2.90321,2.06376 3.79006,3.63389 0.88967,1.57291 1.33588,3.38569 1.33588,5.43828" style="fill:#ffffff;fill-opacity:1;fill-rule:nonzero;stroke:none" id="path330"/></g><g id="g119760-4-0" transform="matrix(1.1790133,0,0,1.161841,45.229423,-378.08874)"><g transform="matrix(2.183564,0,0,2.183564,-1894.0277,-966.42227)" id="g94538-9-12"><path inkscape:connector-curvature="0" id="path94540-8-0" style="opacity:0.2;fill:url(#linearGradient119767-4-98)" transform="translate(-6.8,-20.46)" d="m 1098.44,763.17 0,0 -0.11,0 -0.36,-0.15 -0.1,0 -0.39,-0.15 -0.08,0 -0.42,-0.15 h -0.06 l -0.45,-0.14 h 0 l -0.49,-0.13 h 0 l -0.52,-0.12 h 0"/><path inkscape:connector-curvature="0" id="path94542-1-0" style="fill:#9dcc4a" transform="translate(-6.8,-20.46)" d="m 1093.82,732.41 c -2.86,2.71 -10.06,10.71 -10.31,22.66 a 11.68,11.68 0 0 0 11.49,12.12 11.47,11.47 0 0 0 11.4,-11.47 c 0,-12.3 -7.4,-20.54 -10.31,-23.31 a 1.69,1.69 0 0 0 -2.27,0 z"/><path inkscape:connector-curvature="0" id="path94544-6-6" style="opacity:0.7" transform="translate(-6.8,-20.46)" d="M 1100.86,758.26"/></g><path sodipodi:nodetypes="zcssscz" inkscape:connector-curvature="0" id="path119754-3-3" d="m 481.69395,653.02207 c 0.73935,32.50351 -3.1636,38.97849 -3.1636,38.97849 0,0 1.72111,-1.86556 2.86313,-1.88226 0.82322,-0.012 1.27984,1.2679 2.10267,1.29587 0.81681,0.0278 1.3564,-1.06244 2.16983,-1.14166 0.75128,-0.0732 2.16983,0.64793 2.16983,0.64793 0,0 -6.88121,-70.40188 -6.14186,-37.89837 z" style="fill:#784421;stroke:none"/></g><path sodipodi:type="arc" style="fill:#dbe3e2;fill-opacity:1;stroke:none" id="path20005" sodipodi:cx="613.53656" sodipodi:cy="430.96442" sodipodi:rx="19.740559" sodipodi:ry="7.5014124" d="m 633.27712,430.96442 a 19.740559,7.5014124 0 1 1 -39.48112,0 19.740559,7.5014124 0 1 1 39.48112,0 z"/></svg>